<svg xmlns="http://www.w3.org/2000/svg" width="17.278" height="18.5" viewBox="0 0 17.278 18.5"><defs><style>.a{fill:#3eb2ff;stroke:#3eb2ff;stroke-width:0.5px;}</style></defs><g transform="translate(0.25 0.25)"><path class="a" d="M74.372,181.8v-3.051A2.749,2.749,0,0,0,71.626,176H66.745A2.749,2.749,0,0,0,64,178.746v3.966h.61v-3.966a2.138,2.138,0,0,1,2.135-2.135h.484l1.741,1.741a.305.305,0,0,0,.431,0l1.741-1.741h.484a2.138,2.138,0,0,1,2.135,2.135V181.8ZM69.186,177.7l-1.094-1.094H70.28Zm0,0" transform="translate(-61.56 -169.464)"/><path class="a" d="M120,264h.61v2.745H120Zm0,0" transform="translate(-115.424 -254.129)"/><path class="a" d="M264,264h.61v2.135H264Zm0,0" transform="translate(-253.933 -254.122)"/><path class="a" d="M16.473,337.38h-3.89a4.7,4.7,0,0,0-2.191-.577c-.023,0-.047,0-.069,0a4.723,4.723,0,0,0-2.26.576l-2.267,0a1.22,1.22,0,0,0-1.22,1.22.51.51,0,0,0,0,.072,1.2,1.2,0,0,0,.04.247l-1.72-.788-.028-.014-1.027-.469A1.3,1.3,0,0,0,0,338.832v.067a1.29,1.29,0,0,0,.72,1.163l3.944,1.975a2.16,2.16,0,0,0,.954.223H16.473a.305.305,0,0,0,.305-.305v-4.271a.305.305,0,0,0-.305-.305ZM12.2,341.651H5.619a1.555,1.555,0,0,1-.684-.16L.993,339.516A.685.685,0,0,1,.61,338.9v-.067a.691.691,0,0,1,.98-.628l1.019.465.027.013,2.422,1.11a.307.307,0,0,0,.128.028H8.542v-.61H5.8a.607.607,0,0,1-.607-.582.293.293,0,0,0,0-.03.61.61,0,0,1,.61-.608h2.34a.3.3,0,0,0,.149-.039l.073-.041a4.142,4.142,0,0,1,1.955-.5.3.3,0,0,0,.056.006,4.079,4.079,0,0,1,1.833.455Zm3.966,0H12.813V337.99h3.356Zm0,0" transform="translate(0 -324.261)"/><path class="a" d="M352,432h.61v.61H352Zm0,0" transform="translate(-338.577 -415.83)"/><path class="a" d="M138.44,6.1a2.443,2.443,0,0,0,2.44-2.44V2.44a2.44,2.44,0,1,0-4.881,0v1.22A2.443,2.443,0,0,0,138.44,6.1ZM136.61,2.44a1.83,1.83,0,1,1,3.661,0v1.22a1.83,1.83,0,1,1-3.661,0Zm0,0" transform="translate(-130.814)"/><path class="a" d="M168.61,34.982a.612.612,0,0,1,.407-.575l-.2-.575a1.223,1.223,0,0,0-.813,1.15v.305h.61Zm0,0" transform="translate(-161.594 -32.542)"/></g></svg>