<svg xmlns="http://www.w3.org/2000/svg" width="17.58" height="18.5" viewBox="0 0 17.58 18.5"><defs><style>.a{fill:#582484;stroke:#582484;stroke-width:0.5px;}</style></defs><g transform="translate(0.25 0.25)"><g transform="translate(0)"><g transform="translate(4.289 3.567)"><g transform="translate(0)"><path class="a" d="M144.956,102.5h-5.965a1,1,0,0,0-.994.994v2.838a1,1,0,0,0,.994.994h3.272a.271.271,0,0,0,0-.542h-3.272a.452.452,0,0,1-.452-.452v-2.838a.452.452,0,0,1,.452-.452h5.965a.452.452,0,0,1,.452.452v2.838a.452.452,0,0,1-.452.452h-1.524a.271.271,0,0,0,0,.542h1.524a1,1,0,0,0,.994-.994v-2.838A1,1,0,0,0,144.956,102.5Z" transform="translate(-137.997 -102.497)"/></g></g><path class="a" d="M29.295,0H15.633a.865.865,0,0,0-.864.864V2.4h-.75a.939.939,0,0,0,0,1.879h.75V6.175h-.75a.939.939,0,0,0,0,1.879h.75V9.947h-.75a.94.94,0,0,0-.939.939.264.264,0,1,0,.527,0,.412.412,0,0,1,.412-.412h2.027a.412.412,0,1,1,0,.824h-1.9a.264.264,0,1,0,0,.527h.625v1.894h-.75a.939.939,0,0,0,0,1.879h.75v1.538a.865.865,0,0,0,.864.864H29.295a.865.865,0,0,0,.864-.864V.864A.865.865,0,0,0,29.295,0ZM14.018,3.754a.412.412,0,1,1,0-.824h2.027a.412.412,0,1,1,0,.824Zm0,3.772a.412.412,0,0,1,0-.824h2.027a.412.412,0,1,1,0,.824Zm0,7.545a.412.412,0,1,1,0-.824h2.027a.412.412,0,1,1,0,.824ZM27.38,17.135a.338.338,0,0,1-.337.337H15.633a.338.338,0,0,1-.337-.337V15.6h.75a.939.939,0,0,0,0-1.879H15.3V11.825h.75a.939.939,0,1,0,0-1.879H15.3V8.053h.75a.939.939,0,0,0,0-1.879H15.3V4.281h.75a.939.939,0,0,0,0-1.879H15.3V.864a.338.338,0,0,1,.337-.337h11.41a.338.338,0,0,1,.337.337Zm2.252,0a.338.338,0,0,1-.337.337H27.839a.86.86,0,0,0,.068-.337v-.664h1.388a.859.859,0,0,0,.337-.068Zm0-1.529a.338.338,0,0,1-.337.337H27.907V11.685h.862a.264.264,0,1,0,0-.527h-.862V6.9h1.725Zm0-9.234H27.907V2.114h1.388a.338.338,0,0,1,.337.337Zm0-4.717a.86.86,0,0,0-.337-.068H27.907V.864a.859.859,0,0,0-.068-.337h1.456a.338.338,0,0,1,.337.337Z" transform="translate(-13.079)"/></g></g></svg>