<svg xmlns="http://www.w3.org/2000/svg" width="11.976" height="12" viewBox="0 0 11.976 12"><defs><style>.a{fill:none;stroke-linecap:round;stroke-linejoin:round;}.b,.c{stroke:none;}.c{fill:#abb1bb;}</style></defs><g class="a" transform="translate(-3.168 -3)"><path class="b" d="M15.144,11.984v1.806a1.2,1.2,0,0,1-1.313,1.2,11.917,11.917,0,0,1-5.2-1.849A11.742,11.742,0,0,1,5.021,9.533,11.917,11.917,0,0,1,3.173,4.313,1.2,1.2,0,0,1,4.371,3H6.177a1.2,1.2,0,0,1,1.2,1.036A7.732,7.732,0,0,0,7.8,5.728,1.2,1.2,0,0,1,7.532,7l-.765.765a9.635,9.635,0,0,0,3.613,3.613l.765-.765a1.2,1.2,0,0,1,1.271-.271,7.732,7.732,0,0,0,1.692.422,1.2,1.2,0,0,1,1.036,1.222Z"/><path class="c" d="M 13.93941020965576 14.19985103607178 C 14.04086017608643 14.19985103607178 14.13792037963867 14.16207122802734 14.21269035339355 14.09346103668213 C 14.29640007019043 14.0166711807251 14.34414005279541 13.90748119354248 14.34367084503174 13.79064083099365 L 14.34367084503174 11.98415088653564 C 14.34367084503174 11.97753047943115 14.34375 11.97092056274414 14.34392070770264 11.96430110931396 C 14.34899234771729 11.75975704193115 14.20059204101563 11.5838623046875 13.99837303161621 11.55424308776855 C 13.3631010055542 11.47007465362549 12.73657608032227 11.31380939483643 12.13438034057617 11.08910083770752 C 12.08868026733398 11.07192039489746 12.04089069366455 11.06321048736572 11.99233055114746 11.06321048736572 C 11.88508033752441 11.06321048736572 11.7840404510498 11.10471057891846 11.71100997924805 11.17692089080811 L 10.94626998901367 11.94166088104248 C 10.79222774505615 12.095703125 10.58741664886475 12.17599391937256 10.38032054901123 12.17599391937256 C 10.24506378173828 12.17599391937256 10.10882472991943 12.14173889160156 9.985140800476074 12.0714111328125 C 8.35319995880127 11.14346122741699 7.000120162963867 9.790380477905273 6.072170257568359 8.158440589904785 C 5.894160270690918 7.845380783081055 5.947270393371582 7.451961040496826 6.201920509338379 7.197310924530029 L 6.963510513305664 6.435750961303711 C 7.074130535125732 6.323890686035156 7.109840393066406 6.156450748443604 7.053800582885742 6.007380962371826 C 6.829780101776123 5.407020568847656 6.673517227172852 4.780495643615723 6.589338779449463 4.145213603973389 C 6.560293197631836 3.948147058486938 6.388820648193359 3.799850940704346 6.185530185699463 3.799870729446411 C 6.182850360870361 3.799900770187378 6.18017053604126 3.7999107837677 6.177490234375 3.7999107837677 L 4.37177038192749 3.7999107837677 C 4.25855016708374 3.800020694732666 4.149850368499756 3.848030805587769 4.073540210723877 3.931630849838257 C 3.998314619064331 4.014041423797607 3.960376977920532 4.124625205993652 3.969049453735352 4.235724925994873 C 4.153468132019043 5.960895538330078 4.749434471130371 7.64221715927124 5.692770481109619 9.098401069641113 C 5.694040298461914 9.100360870361328 5.695300579071045 9.102331161499023 5.696550369262695 9.104300498962402 C 6.552350521087646 10.45108127593994 7.716580390930176 11.61530113220215 9.063370704650879 12.47111034393311 C 9.065450668334961 12.47243118286133 9.067520141601563 12.4737606048584 9.06959056854248 12.47511100769043 C 10.51863956451416 13.4148120880127 12.19159603118896 14.01070594787598 13.90842723846436 14.19866371154785 C 13.91874694824219 14.19945526123047 13.92914009094238 14.19985103607178 13.93941020965576 14.19985103607178 M 13.93941020965576 14.99985313415527 C 13.90335750579834 14.99985313415527 13.86717796325684 14.99823379516602 13.83096027374268 14.99496078491211 C 11.9780101776123 14.79362106323242 10.1981201171875 14.16045093536377 8.634310722351074 13.14632034301758 C 7.179390430450439 12.22180080413818 5.945860385894775 10.98828125 5.021340370178223 9.533360481262207 C 4.003680229187012 7.962440967559814 3.370360374450684 6.173900604248047 3.172710418701172 4.312620639801025 C 3.142280340194702 3.975940704345703 3.254770278930664 3.641970872879028 3.482680320739746 3.392290830612183 C 3.710590362548828 3.142620801925659 4.032950401306152 3.00023078918457 4.371010303497314 2.999910831451416 L 6.177490234375 2.999910831451416 C 6.181475162506104 2.999871492385864 6.185542106628418 2.999851703643799 6.189518928527832 2.999851703643799 C 6.788840770721436 2.999851703643799 7.297768115997314 3.441006422042847 7.381810188293457 4.035630702972412 C 7.458060264587402 4.613740921020508 7.599460601806641 5.181380748748779 7.803320407867432 5.727700710296631 C 7.96876049041748 6.167810916900635 7.862950325012207 6.663940906524658 7.532350540161133 6.998260974884033 L 6.767610549926758 7.763000965118408 C 7.624820232391357 9.270541191101074 8.873040199279785 10.51876068115234 10.38057994842529 11.3759708404541 L 11.14531993865967 10.61123085021973 C 11.37485885620117 10.38424587249756 11.68074417114258 10.26321029663086 11.99233436584473 10.26321029663086 C 12.13457107543945 10.26321029663086 12.27794647216797 10.28840923309326 12.41588020324707 10.34026050567627 C 12.9622106552124 10.54412078857422 13.52984046936035 10.68552112579346 14.10795021057129 10.7617712020874 C 14.71345996856689 10.84719085693359 15.15884017944336 11.37284088134766 15.14367008209229 11.98415088653564 L 15.14367008209229 13.79064083099365 C 15.14505004882813 14.12974071502686 15.0034008026123 14.45371055603027 14.75352001190186 14.68296051025391 C 14.53043746948242 14.88761711120605 14.23954486846924 14.99985313415527 13.93941020965576 14.99985313415527 Z"/></g></svg>