<svg xmlns="http://www.w3.org/2000/svg" width="10.743" height="18.5" viewBox="0 0 10.743 18.5"><defs><style>.a{fill:#f5a436;stroke:#f5a436;stroke-width:0.5px;}</style></defs><g transform="translate(0.25 0.25)"><path class="a" d="M167.518,350a.272.272,0,0,0-.189.336l.8,2.88a.522.522,0,0,0,1.006,0l.8-2.88a.272.272,0,0,0-.525-.146l-.781,2.8-.781-2.8A.272.272,0,0,0,167.518,350Z" transform="translate(-165.335 -337.864)"/><path class="a" d="M255.629,350.314v3.061a.272.272,0,0,0,.545,0v-3.06a.272.272,0,0,0-.545,0Z" transform="translate(-250.529 -337.912)"/><path class="a" d="M290.3,349.918a.272.272,0,0,0-.272.272v3.066a.272.272,0,0,0,.545,0v-1.04h.287a1.149,1.149,0,1,0,0-2.3H290.3Zm1.164,1.149a.6.6,0,0,1-.6.6h-.287v-1.208h.287A.6.6,0,0,1,291.464,351.067Z" transform="translate(-283.755 -337.793)"/><path class="a" d="M192.669,190.672l-.874-.2a.1.1,0,0,1-.065-.047l-.457-.77a.646.646,0,0,0-1.111,0l-.457.77a.1.1,0,0,1-.065.047l-.873.2a.646.646,0,0,0-.343,1.056l.591.672a.1.1,0,0,1,.025.076l-.083.891a.646.646,0,0,0,.9.653l.822-.355a.1.1,0,0,1,.08,0l.822.355a.648.648,0,0,0,.635-.071.64.64,0,0,0,.263-.582l-.083-.891a.1.1,0,0,1,.025-.076l.591-.672a.646.646,0,0,0-.343-1.056Zm-.066.7-.591.672a.648.648,0,0,0-.158.486l.083.891a.1.1,0,0,1-.141.1l-.822-.355a.652.652,0,0,0-.511,0l-.822.355a.1.1,0,0,1-.141-.1l.083-.891a.648.648,0,0,0-.158-.486l-.591-.672a.1.1,0,0,1,.054-.165l.873-.2a.648.648,0,0,0,.414-.3l.457-.77a.1.1,0,0,1,.174,0l.457.77a.648.648,0,0,0,.414.3l.873.2A.1.1,0,0,1,192.6,191.368Z" transform="translate(-185.598 -182.756)"/><path class="a" d="M119.494,3.561H117.56l.377-.753a.261.261,0,0,0-.119-.351.265.265,0,0,0-.354.118l-.494.986H116l-.252-.5,1.27-2.534h1.478l-.557,1.112a.261.261,0,0,0,.119.351.265.265,0,0,0,.354-.118l.747-1.49A.265.265,0,0,0,118.919,0h-2.068a.265.265,0,0,0-.237.145L115.449,2.47,114.284.145A.265.265,0,0,0,114.048,0h-2.068a.264.264,0,0,0-.237.378l1.6,3.183H111.4a1.073,1.073,0,0,0-1.076,1.067V6.8a.264.264,0,0,0,.528,0V4.628a.546.546,0,0,1,.548-.543h2.2l.388.775H113.8a.262.262,0,1,0,0,.524h3.3a.262.262,0,1,0,0-.524h-.452l-.388-.775h3.235a.546.546,0,0,1,.548.543v9a.264.264,0,0,0,.528,0v-9A1.073,1.073,0,0,0,119.494,3.561Zm-4.915,1.3L112.406.524h1.478l2.173,4.336Z" transform="translate(-110.328 0)"/><path class="a" d="M120.305,224.868a.268.268,0,0,0-.264.272v2.185a.557.557,0,0,1-.548.565H111.4a.557.557,0,0,1-.548-.565v-9.282a.264.264,0,1,0-.528,0v9.282a1.1,1.1,0,0,0,1.076,1.11h8.09a1.1,1.1,0,0,0,1.076-1.11V225.14A.268.268,0,0,0,120.305,224.868Z" transform="translate(-110.327 -210.435)"/></g></svg>