<svg xmlns="http://www.w3.org/2000/svg" width="20" height="19.948" viewBox="0 0 20 19.948"><defs><style>.a{fill:#9767bf;}</style></defs><path class="a" d="M17.655,119.948A2.353,2.353,0,0,0,20,117.592V114.45a.785.785,0,0,0-.536-.745l-4.7-1.571a.785.785,0,0,0-.685.091l-2,1.333a13.884,13.884,0,0,1-5.69-5.639l1.332-2a.785.785,0,0,0,.091-.685l-1.571-4.7A.785.785,0,0,0,5.5,100H2.356A2.353,2.353,0,0,0,0,102.345a17.578,17.578,0,0,0,5.413,12.218,17.687,17.687,0,0,0,12.242,5.385Zm-15.3-18.377H4.932l1.27,3.8-1.357,2.036a.785.785,0,0,0-.076.727,12.991,12.991,0,0,0,2.943,4.135,13.316,13.316,0,0,0,4.155,2.911.786.786,0,0,0,.727-.076l2.036-1.357,3.8,1.27v2.576a.772.772,0,0,1-.774.785c-8.268,0-16.084-7.791-16.084-16.032A.772.772,0,0,1,2.356,101.571Z" transform="translate(0 -100)"/></svg>