<svg xmlns="http://www.w3.org/2000/svg" width="11.809" height="12.2" viewBox="0 0 11.809 12.2"><defs><style>.a{fill:#abb1bb;stroke:#abb1bb;stroke-width:0.2px;}</style></defs><g transform="translate(0.1 0.1)"><g transform="translate(4.556)"><g transform="translate(0)"><path class="a" d="M199.8,0a3.157,3.157,0,1,0,3.156,3.158A3.16,3.16,0,0,0,199.8,0Zm0,5.831a2.675,2.675,0,0,1-2.676-2.673v0a2.674,2.674,0,1,1,2.676,2.676Z" transform="translate(-196.648)"/></g></g><g transform="translate(6.177 1.411)"><path class="a" d="M267.032,61.6a.239.239,0,0,0-.3-.162s0,0,0,0l-.164.051a.686.686,0,0,1-.516-.046,1.163,1.163,0,0,0-.531-.128.822.822,0,0,0-.1,0,1.37,1.37,0,0,0,.106-.427v-.019c0-.068.01-.138.01-.21h.6a.241.241,0,0,0,0-.483H265.5a3.308,3.308,0,0,0-.065-.343,1.793,1.793,0,0,1-.053-.374.5.5,0,0,1,.036-.188.426.426,0,0,1,.1-.152.488.488,0,0,1,.157-.106.531.531,0,0,1,.2-.039.411.411,0,0,1,.47.347.241.241,0,0,0,.473-.092.009.009,0,0,0,0-.007.885.885,0,0,0-.941-.729,1.026,1.026,0,0,0-.391.077,1,1,0,0,0-.316.212.944.944,0,0,0-.2.311,1,1,0,0,0-.07.367,2.192,2.192,0,0,0,.065.485c.019.077.034.159.046.232h-.524a.242.242,0,0,0-.241.241.236.236,0,0,0,.241.234h.557c0,.072,0,.123-.007.179v.019a.9.9,0,0,1-.166.444l-.125.171a.243.243,0,0,0,.224.384l.463-.055h0c.027,0,.053,0,.077,0a.714.714,0,0,1,.314.075,1.175,1.175,0,0,0,.876.077l.164-.051A.239.239,0,0,0,267.032,61.6Z" transform="translate(-264.248 -58.5)"/></g><g transform="translate(0 6.393)"><path class="a" d="M20.517,264.52a.135.135,0,0,0-.019-.031.9.9,0,0,0-1.263-.13c-.484.393-1.188.96-1.645,1.329a1.916,1.916,0,0,1-1.132.42l-1.239.041a.14.14,0,0,1-.123-.065l-.138-.236a.129.129,0,0,1-.007-.125.135.135,0,0,1,.1-.077l1.28-.241a.889.889,0,0,0,.714-.97.874.874,0,0,0-.871-.777h-.044l-1.71-.07a3.922,3.922,0,0,0-1.952.437l-.9.432a.755.755,0,0,0-.68-.427H9.9a.748.748,0,0,0-.752.743v3.674a.751.751,0,0,0,.752.745h.99a.749.749,0,0,0,.75-.745V268.2l.951-.174a3.745,3.745,0,0,1,.827-.048l2.6.121a3.761,3.761,0,0,0,2.572-.866l1.8-1.491,0,0A.881.881,0,0,0,20.517,264.52Zm-9.36,3.925a.264.264,0,0,1-.264.263h-1a.264.264,0,0,1-.264-.263v-3.672a.264.264,0,0,1,.264-.263h1a.264.264,0,0,1,.264.263Zm8.927-3.078-1.8,1.489a3.3,3.3,0,0,1-2.243.755l-2.6-.121a4.3,4.3,0,0,0-.924.053.009.009,0,0,0-.007,0l-.869.159v-2.75l1.035-.5a3.454,3.454,0,0,1,1.723-.388l1.723.07h.051a.4.4,0,0,1,.392.347.4.4,0,0,1-.322.441l-1.28.241a.62.62,0,0,0-.494.724.631.631,0,0,0,.075.2l.138.234a.623.623,0,0,0,.556.3l1.239-.041a2.432,2.432,0,0,0,1.42-.526c.457-.369,1.164-.936,1.648-1.329a.421.421,0,0,1,.571.051.2.2,0,0,0,.019.029A.4.4,0,0,1,20.084,265.367Z" transform="translate(-9.148 -263.584)"/></g></g></svg>