<svg xmlns="http://www.w3.org/2000/svg" width="18.5" height="18.5" viewBox="0 0 18.5 18.5"><defs><style>.a{fill:#ff6d6a;stroke:#ff6d6a;stroke-width:0.5px;}</style></defs><g transform="translate(0.25 0.25)"><path class="a" d="M246.352,61.7a.352.352,0,0,0,.351-.337s0-.009,0-.014a.352.352,0,0,0-.7,0s0,.01,0,.014A.352.352,0,0,0,246.352,61.7Z" transform="translate(-237.351 -58.855)"/><path class="a" d="M170.782,141.15l.207.8h-.637a.352.352,0,0,0,0,.7h.818l.174.676a1.7,1.7,0,0,1-.7,1.83l-.023.015a2.409,2.409,0,0,0-.324.217l0,0a.352.352,0,0,0,.417.566l.275-.184a1.689,1.689,0,0,1,1.861.169l.009.007a2.4,2.4,0,0,0,2.988-.006.352.352,0,0,0-.439-.549,1.695,1.695,0,0,1-2.118,0l-.009-.007a2.394,2.394,0,0,0-1.457-.52,2.4,2.4,0,0,0,.2-1.715l-.129-.5h2.675a.352.352,0,0,0,0-.7h-2.856l-.252-.979a1.678,1.678,0,1,1,3.3-.415.352.352,0,0,0,.7,0,2.381,2.381,0,1,0-4.683.589Z" transform="translate(-164.023 -133.306)"/><path class="a" d="M9,18a9.163,9.163,0,0,0,9-9A9.162,9.162,0,0,0,9,0,9.162,9.162,0,0,0,0,9,9.162,9.162,0,0,0,9,18ZM9,.7A8.514,8.514,0,0,1,17.3,9,8.514,8.514,0,0,1,9,17.3,8.514,8.514,0,0,1,.7,9,8.514,8.514,0,0,1,9,.7Z"/><path class="a" d="M66.891,78.311A6.883,6.883,0,0,0,68.372,64.7a.352.352,0,0,0-.162.684,6.188,6.188,0,1,1-2.638,0,.352.352,0,0,0-.162-.684,6.883,6.883,0,0,0,1.481,13.607Z" transform="translate(-57.891 -62.42)"/></g></svg>