<svg xmlns="http://www.w3.org/2000/svg" width="12" height="11.873" viewBox="0 0 12 11.873"><defs><style>.a{fill:#fe6d6b;}</style></defs><g transform="translate(-260.532 -66.502)"><path class="a" d="M270.419,67.8a.568.568,0,0,0-.936.437.327.327,0,0,0,0,.044.567.567,0,0,0,.2.388,4.863,4.863,0,1,1-6.3,0,.569.569,0,0,0,.068-.8l0,0a.57.57,0,0,0-.8-.065,5.928,5.928,0,0,0-2.121,4.535,6,6,0,1,0,9.887-4.534Z"/><path class="a" d="M266.654,73.079a.578.578,0,0,0,.578-.578V67.08a.578.578,0,1,0-1.156,0h0V72.5A.579.579,0,0,0,266.654,73.079Z"/></g></svg>