<svg xmlns="http://www.w3.org/2000/svg" xmlns:xlink="http://www.w3.org/1999/xlink" width="54" height="54" viewBox="0 0 54 54"><defs><style>.a{fill:#2580e9;opacity:0.1;}.b{fill:none;stroke:#2580e9;stroke-linecap:round;stroke-linejoin:round;}.c{filter:url(#a);}</style><filter id="a" x="0" y="0" width="54" height="54" filterUnits="userSpaceOnUse"><feOffset input="SourceAlpha"/><feGaussianBlur stdDeviation="3" result="b"/><feFlood flood-color="#fff" flood-opacity="0.561"/><feComposite operator="in" in2="b"/><feComposite in="SourceGraphic"/></filter></defs><g transform="translate(-872 -15)"><g class="c" transform="matrix(1, 0, 0, 1, 872, 15)"><rect class="a" width="36" height="36" rx="10" transform="translate(9 9)"/></g><g transform="translate(890.5 33.5)"><path class="b" d="M17.318,15.409A1.909,1.909,0,1,1,15.409,13.5,1.909,1.909,0,0,1,17.318,15.409Z" transform="translate(-6.909 -6.909)"/><path class="b" d="M13.209,10.409a1.05,1.05,0,0,0,.21,1.158l.038.038a1.273,1.273,0,1,1-1.8,1.8l-.038-.038a1.059,1.059,0,0,0-1.795.751v.108a1.273,1.273,0,1,1-2.545,0V14.17a1.1,1.1,0,0,0-1.845-.751l-.038.038a1.273,1.273,0,1,1-1.8-1.8l.038-.038a1.059,1.059,0,0,0-.751-1.795H2.773a1.273,1.273,0,1,1,0-2.545H2.83a1.1,1.1,0,0,0,.751-1.845l-.038-.038a1.273,1.273,0,1,1,1.8-1.8l.038.038a1.05,1.05,0,0,0,1.158.21h.051a1.05,1.05,0,0,0,.636-.961V2.773a1.273,1.273,0,0,1,2.545,0V2.83a1.059,1.059,0,0,0,1.795.751l.038-.038a1.273,1.273,0,1,1,1.8,1.8l-.038.038a1.05,1.05,0,0,0-.21,1.158v.051a1.05,1.05,0,0,0,.961.636h.108a1.273,1.273,0,1,1,0,2.545H14.17a1.05,1.05,0,0,0-.961.636Z"/></g></g></svg>