<svg xmlns="http://www.w3.org/2000/svg" width="18.7" height="18.7" viewBox="0 0 18.7 18.7"><defs><style>.a{fill:#c52b96;stroke:#c52b96;stroke-width:0.7px;}</style></defs><g transform="translate(0.35 0.35)"><path class="a" d="M17.648,5.484H15.891V.7h.7a.352.352,0,1,0,0-.7H10.055a.352.352,0,0,0,0,.7h.7V5.484H9a.352.352,0,0,0-.352.352v4.922H7.137V9a.352.352,0,0,0-.352-.352H3.621A.352.352,0,0,0,3.27,9v1.758H.352A.352.352,0,0,0,0,11.109v6.539A.352.352,0,0,0,.352,18H3.8a.352.352,0,1,0,0-.7H2.813V11.461H7.594V17.3H6.961a.352.352,0,1,0,0,.7h3.094a.352.352,0,0,0,.352-.352v-.7h5.836v.7a.352.352,0,0,0,.7,0v-.7h.7A.352.352,0,0,0,18,16.594V5.836A.352.352,0,0,0,17.648,5.484ZM2.109,17.3H.7V11.461H2.109Zm4.324-6.539H3.973V9.352H6.434ZM11.461.7h3.727V5.484H11.461ZM9.7,17.3H8.3V11.461H9.7ZM17.3,16.242H10.406V11.109a.352.352,0,0,0-.352-.352h-.7V6.188H17.3Z"/><path class="a" d="M306.349,246.7h3v.7a.349.349,0,1,0,.7,0v-.7h.7a.349.349,0,0,0,0-.7h-4.4a.349.349,0,0,0,0,.7Z" transform="translate(-295.194 -237.345)"/><circle class="a" cx="0.319" cy="0.319" r="0.319" transform="translate(5.347 17.361)"/></g></svg>