<svg xmlns="http://www.w3.org/2000/svg" width="24" height="23.994" viewBox="0 0 24 23.994"><defs><style>.a{fill:#554d62;}</style></defs><path class="a" d="M37.352,43.445l1.6,1.6a1.2,1.2,0,0,0,1.784-.1l3.2-4a1.2,1.2,0,0,0-1.872-1.5L39.7,42.4l-.651-.651a1.228,1.228,0,0,0-1.7,0,1.2,1.2,0,0,0,0,1.695Zm.565-1.13a.4.4,0,0,1,.565,0l.967.967a.4.4,0,0,0,.595-.033l2.638-3.3a.4.4,0,1,1,.624.5l-3.2,4a.4.4,0,0,1-.595.033l-1.6-1.6a.4.4,0,0,1,0-.565Z" transform="translate(-22.199 -23.399)"/><path class="a" d="M.4,23.994h18a5.6,5.6,0,1,0-5.542-6.35A1.19,1.19,0,0,1,12.4,16.7v-.8a1.16,1.16,0,0,1,.386-.88,4.447,4.447,0,0,0,1.61-3.423A1.6,1.6,0,0,0,16,10V8.8a1.593,1.593,0,0,0-.541-1.2c.416-1.816-.052-3.874-1.8-4.552C12.959.913,10.722,0,8.478,0,4.723,0,2.872,3.817,3.851,7.506A1.592,1.592,0,0,0,3.2,8.8V10A1.6,1.6,0,0,0,4.8,11.6a4.447,4.447,0,0,0,1.608,3.42A1.16,1.16,0,0,1,6.8,15.9v.8a1.189,1.189,0,0,1-.775,1.122l-3.9,1.488A3.319,3.319,0,0,0,0,22.395v1.2a.4.4,0,0,0,.4.4Zm18-10.4a4.8,4.8,0,1,1-4.8,4.8A4.8,4.8,0,0,1,18.4,13.6ZM.8,22.395a2.515,2.515,0,0,1,1.61-2.338l3.9-1.487A2.008,2.008,0,0,0,7.6,16.7v-.8a1.946,1.946,0,0,0-.67-1.494A3.7,3.7,0,0,1,5.6,11.353a.522.522,0,0,0-.1-.427c-.144-.156-.265-.129-.7-.129A.8.8,0,0,1,4,10V8.8a.8.8,0,0,1,.8-.8.4.4,0,1,0,0-.8,1.624,1.624,0,0,0-.188.019C3.809,4.051,5.272.8,8.478.8c1.936,0,4.023.794,4.466,2.652.062.262.3.29.429.34,1.312.507,1.594,2.045,1.337,3.445A1.186,1.186,0,0,0,14.4,7.2a.4.4,0,1,0,0,.8.8.8,0,0,1,.8.8V10a.8.8,0,0,1-.8.8c-.406,0-.552-.034-.7.129a.524.524,0,0,0-.1.429,3.7,3.7,0,0,1-1.33,3.054A1.946,1.946,0,0,0,11.6,15.9v.8A2.006,2.006,0,0,0,12.8,18.53a5.593,5.593,0,0,0,2.723,4.664H.8Z"/></svg>