<svg xmlns="http://www.w3.org/2000/svg" width="15.334" height="24" viewBox="0 0 15.334 24"><defs><style>.a{fill:#554d62;}</style></defs><g transform="translate(-86.439 0)"><g transform="translate(91.367 14.195)"><g transform="translate(0)"><path class="a" d="M190.615,283.386h-4.463a.509.509,0,1,0,0,1.019h4.463a.509.509,0,1,0,0-1.019Z" transform="translate(-185.642 -283.386)"/></g></g><g transform="translate(89.243 16.248)"><g transform="translate(0)"><path class="a" d="M153.164,324.386h-8.712a.509.509,0,1,0,0,1.019h8.712a.509.509,0,1,0,0-1.019Z" transform="translate(-143.942 -324.386)"/></g></g><g transform="translate(89.243 18.352)"><g transform="translate(0)"><path class="a" d="M153.164,366.386h-8.712a.509.509,0,1,0,0,1.019h8.712a.509.509,0,1,0,0-1.019Z" transform="translate(-143.942 -366.386)"/></g></g><g transform="translate(86.439 0)"><g transform="translate(0 0)"><path class="a" d="M101.467.034a.49.49,0,0,0-.546.13L99.853,1.332,98.785.17a.5.5,0,0,0-.707-.03l-.03.03L96.981,1.332,95.913.165a.5.5,0,0,0-.707-.03l-.03.03L94.109,1.327,93.041.165a.5.5,0,0,0-.707-.03l-.03.03L91.236,1.327,90.169.165a.5.5,0,0,0-.707-.03l-.03.03L88.364,1.327,87.291.165A.488.488,0,0,0,86.439.5v23a.492.492,0,0,0,.481.5.483.483,0,0,0,.376-.16l1.068-1.168,1.068,1.163a.5.5,0,0,0,.707.03l.03-.03,1.068-1.163L92.3,23.834a.5.5,0,0,0,.707.03l.03-.03,1.068-1.163,1.068,1.163a.5.5,0,0,0,.707.03l.03-.03,1.068-1.163,1.068,1.163a.5.5,0,0,0,.707.03l.03-.03,1.068-1.163,1.068,1.163a.5.5,0,0,0,.371.16.4.4,0,0,0,.17-.035.489.489,0,0,0,.311-.466V.5A.476.476,0,0,0,101.467.034ZM99.858,21.423a.5.5,0,0,0-.371.165l-1.068,1.168-1.068-1.163a.5.5,0,0,0-.707-.03l-.03.03-1.068,1.163-1.068-1.163a.5.5,0,0,0-.707-.03l-.03.03-1.068,1.163-1.068-1.163a.5.5,0,0,0-.707-.03l-.03.03L89.8,22.756,88.73,21.593a.5.5,0,0,0-.732,0l-.556.617V1.789L88,2.405a.473.473,0,0,0,.361.165.5.5,0,0,0,.371-.165L89.8,1.237,90.865,2.4a.5.5,0,0,0,.707.03l.03-.03L92.67,1.237,93.738,2.4a.5.5,0,0,0,.707.03l.03-.03,1.068-1.163L96.61,2.4a.5.5,0,0,0,.707.03l.03-.03,1.068-1.163,1.068,1.168a.5.5,0,0,0,.371.165.473.473,0,0,0,.361-.165l.561-.622V22.2l-.556-.617A.473.473,0,0,0,99.858,21.423Z" transform="translate(-86.439 0)"/></g></g><g transform="translate(91.471 4.773)"><g transform="translate(0)"><path class="a" d="M192.194,100.506a.508.508,0,0,0-.632-.331l-.245.076a.9.9,0,0,1-.678-.061,1.992,1.992,0,0,0-.815-.209,2.31,2.31,0,0,0,.092-.453c0-.01.005-.02.005-.031.005-.071.01-.153.01-.2h.525a.509.509,0,1,0,0-1.019h-.586a3.113,3.113,0,0,0-.082-.413,2.467,2.467,0,0,1-.076-.545.731.731,0,0,1,.041-.234.693.693,0,0,1,.122-.194.536.536,0,0,1,.189-.127,0,0,0,0,0,.005-.005.7.7,0,0,1,.25-.046c.255,0,.5.051.571.408a.51.51,0,0,0,1-.209,1.492,1.492,0,0,0-1.569-1.223,1.69,1.69,0,0,0-.652.127,1.548,1.548,0,0,0-.525.357l-.005.005a1.6,1.6,0,0,0-.331.509c0,.005,0,.005-.005.01a1.666,1.666,0,0,0-.117.606,3.678,3.678,0,0,0,.1.785,1.006,1.006,0,0,1,.036.178h-.769a.511.511,0,0,0-.509.509.524.524,0,0,0,.52.515h.846s-.005.056-.005.087c0,.015-.005.025-.005.041a1.137,1.137,0,0,1-.229.606l-.189.255a.513.513,0,0,0,.474.81l.7-.082h.01a.717.717,0,0,1,.1-.005.94.94,0,0,1,.408.1,1.915,1.915,0,0,0,1.442.127l.245-.076A.509.509,0,0,0,192.194,100.506Z" transform="translate(-187.542 -95.686)"/></g></g></g></svg>