<svg xmlns="http://www.w3.org/2000/svg" width="24" height="18.416" viewBox="0 0 24 18.416"><defs><style>.a{fill:#ff6e6b;}</style></defs><g transform="translate(0 -56.994)"><path class="a" d="M10.01,57.976a8.328,8.328,0,0,0-4.083-.982,8.328,8.328,0,0,0-4.083.982A3.164,3.164,0,0,0,0,60.58H0V71.831c0,2.007,2.6,3.579,5.927,3.579s5.927-1.572,5.927-3.579V60.594h0A3.158,3.158,0,0,0,10.01,57.976Zm.812,7.135c0,1.387-2.242,2.56-4.9,2.56s-4.9-1.172-4.9-2.56v-.189a7.516,7.516,0,0,0,4.9,1.54,7.517,7.517,0,0,0,4.9-1.54Zm0,2.237c0,1.387-2.242,2.56-4.9,2.56s-4.9-1.172-4.9-2.56v-.189a7.517,7.517,0,0,0,4.9,1.54,7.517,7.517,0,0,0,4.9-1.54ZM1.031,69.4a7.516,7.516,0,0,0,4.9,1.54,7.517,7.517,0,0,0,4.9-1.54v.189c0,1.387-2.242,2.56-4.9,2.56s-4.9-1.172-4.9-2.56V69.4Zm9.791-6.522c0,1.387-2.242,2.56-4.9,2.56s-4.9-1.172-4.9-2.56v-.233a7.552,7.552,0,0,0,4.9,1.53,7.552,7.552,0,0,0,4.9-1.53ZM2.358,58.867a7.288,7.288,0,0,1,3.569-.844,7.288,7.288,0,0,1,3.569.844,2.224,2.224,0,0,1,1.327,1.74c0,1.374-2.242,2.534-4.9,2.534s-4.9-1.161-4.9-2.534A2.224,2.224,0,0,1,2.358,58.867ZM5.927,74.382c-2.654,0-4.9-1.168-4.9-2.55v-.2a7.517,7.517,0,0,0,4.9,1.54,7.517,7.517,0,0,0,4.9-1.54v.2C10.822,73.214,8.58,74.382,5.927,74.382Z"/><path class="a" d="M260.372,193a3.163,3.163,0,0,0-1.843-2.629,8.966,8.966,0,0,0-8.167,0,3.159,3.159,0,0,0-1.843,2.638h0v4.537c0,2,2.6,3.572,5.927,3.572s5.927-1.569,5.927-3.572V193h0Zm-1.031,2.28c0,1.391-2.242,2.565-4.9,2.565s-4.9-1.175-4.9-2.565v-.233a8.583,8.583,0,0,0,9.791,0Zm-8.465-4.016a7.949,7.949,0,0,1,7.138,0,2.229,2.229,0,0,1,1.327,1.744c0,1.377-2.242,2.54-4.9,2.54s-4.9-1.163-4.9-2.54A2.229,2.229,0,0,1,250.877,191.267Zm3.569,8.823c-2.654,0-4.9-1.164-4.9-2.541v-.214a8.533,8.533,0,0,0,9.791,0v.214C259.341,198.927,257.1,200.091,254.446,200.091Z" transform="translate(-236.372 -125.938)"/></g></svg>