<svg xmlns="http://www.w3.org/2000/svg" width="24" height="19.55" viewBox="0 0 24 19.55"><defs><style>.a{fill:#ff6e6b;}</style></defs><g transform="translate(0 -40.52)"><g transform="translate(0 40.52)"><path class="a" d="M23.565,40.52H18.592c-1.283.2-3.137,1.757-3.673,2.2H6.243a.9.9,0,0,0-.9.9V51.31H.9a.9.9,0,0,0-.9.9v6.95a.9.9,0,0,0,.9.9H18.957a.9.9,0,0,0,.9-.9h0v-4.6a.439.439,0,0,0-.127-.308l-.923-.94h.141a.9.9,0,0,0,.9-.9h0V47.426c.773-.189,1.318-.343,1.388-.356a.439.439,0,0,0,.132-.062l2.434-1.691a.439.439,0,0,0,.189-.36v-4A.439.439,0,0,0,23.565,40.52ZM6.216,43.608h12.74v.439c-.879.259-3.194.98-3.853,1.757-.518.6-.672,1.133-.466,1.59a1.629,1.629,0,0,0,1.5.751h.176c.8-.1,1.757-.286,2.636-.479l.009,1.314H6.216V43.608Zm12.74,15.583L.879,59.165V57.407h18.1l0,1.757A.026.026,0,0,1,18.957,59.191Zm.026-4.446V56.5H.887V52.18h15.6l.975,1Zm-.026-2.306h-1l-.971-.993a.439.439,0,0,0-.312-.132H6.238V49.856h12.74Zm1.955-6.194a40.986,40.986,0,0,1-4.688,1h-.07c-.3,0-.641-.114-.7-.237s0-.277.329-.65c.439-.523,2.535-1.234,3.743-1.56a.439.439,0,0,0,.325-.439V43.187a.431.431,0,0,0,0-.057.461.461,0,0,0-.022-.114.44.44,0,0,0-.088-.132h-.031a.439.439,0,0,0-.105-.075h-.066a.44.44,0,0,0-.105,0H16.316a7.124,7.124,0,0,1,2.39-1.344H23.1l.009,3.264Z" transform="translate(0 -40.52)"/></g></g></svg>