<svg xmlns="http://www.w3.org/2000/svg" width="24" height="23.301" viewBox="0 0 24 23.301"><defs><style>.a{fill:#554d62;}</style></defs><g transform="translate(0 -7.425)"><g transform="translate(0 7.425)"><path class="a" d="M23.562,25.169a.471.471,0,0,0-.588.313,6.314,6.314,0,0,1-5.6,4.3,2.8,2.8,0,0,1-2.965-2.6,5.5,5.5,0,0,1,1.748-3.932A5.955,5.955,0,0,1,20.2,21.441a3.11,3.11,0,0,1,2.045.677.471.471,0,1,0,.608-.719,4.036,4.036,0,0,0-2.653-.9,5.638,5.638,0,0,0-1.19.131V11.076a1.744,1.744,0,0,0-1.742-1.742h-3.13V8.91a1.487,1.487,0,0,0-1.485-1.485h-.007A1.487,1.487,0,0,0,11.157,8.91v.423H7.492V8.91A1.487,1.487,0,0,0,6.007,7.425H6A1.487,1.487,0,0,0,4.515,8.91v.423H1.742A1.744,1.744,0,0,0,0,11.076V25.913a1.744,1.744,0,0,0,1.742,1.742H13.511a3.639,3.639,0,0,0,.665,1.593,3.842,3.842,0,0,0,3.2,1.478,6.66,6.66,0,0,0,3.98-1.455,7.156,7.156,0,0,0,2.523-3.514A.471.471,0,0,0,23.562,25.169ZM12.1,8.91a.544.544,0,0,1,.543-.543h.007a.544.544,0,0,1,.543.543v1.849a.547.547,0,0,1-1.093,0Zm-6.642,0A.544.544,0,0,1,6,8.367h.007a.544.544,0,0,1,.543.543v1.853a.547.547,0,0,1-1.093,0V8.91ZM.942,11.076a.8.8,0,0,1,.8-.8H4.515v.488a1.5,1.5,0,0,0,1.493,1.485,1.487,1.487,0,0,0,1.484-1.485v-.488h3.665v.488a1.507,1.507,0,0,0,1.492,1.485,1.487,1.487,0,0,0,1.485-1.485v-.488h3.13a.8.8,0,0,1,.8.8v3.131H.942Zm0,14.837V15.148H18.064v5.763a7.071,7.071,0,0,0-4.6,5.8H1.742a.8.8,0,0,1-.8-.8Z" transform="translate(0 -7.425)"/><path class="a" d="M359.3,332.369l-.7,2.291-1.239.76a.477.477,0,0,0,.5.814l1.394-.854a.477.477,0,0,0,.207-.268l.75-2.464a.477.477,0,1,0-.913-.278Z" transform="translate(-340.351 -316.791)"/><path class="a" d="M124.4,374.494h-6.213a.477.477,0,1,0,0,.955H124.4a.477.477,0,1,0,0-.955Z" transform="translate(-112.199 -357.219)"/><path class="a" d="M74.97,374.792a.477.477,0,1,0-.2.592A.482.482,0,0,0,74.97,374.792Z" transform="translate(-70.517 -357.222)"/><path class="a" d="M163.058,457.379h-4.167a.477.477,0,1,0,0,.955h4.167a.477.477,0,0,0,0-.955Z" transform="translate(-150.982 -436.22)"/><path class="a" d="M135.369,200.388a.477.477,0,0,0-.385-.325l-1.936-.281-.866-1.755a.482.482,0,0,0-.856,0l-.866,1.755-1.936.281a.482.482,0,0,0-.265.814l1.4,1.366-.331,1.929a.482.482,0,0,0,.693.5l1.732-.911,1.732.911a.482.482,0,0,0,.693-.5l-.331-1.929,1.4-1.366A.477.477,0,0,0,135.369,200.388ZM133,201.735a.478.478,0,0,0-.137.423l.21,1.223-1.1-.577a.478.478,0,0,0-.444,0l-1.1.577.21-1.223a.478.478,0,0,0-.137-.423l-.888-.866,1.228-.178a.477.477,0,0,0,.359-.261l.549-1.112.549,1.112a.477.477,0,0,0,.359.261l1.228.178Z" transform="translate(-122.12 -188.855)"/><path class="a" d="M490.621,336.119a.477.477,0,1,0-.375.561A.482.482,0,0,0,490.621,336.119Z" transform="translate(-466.63 -320.285)"/></g></g></svg>