<svg xmlns="http://www.w3.org/2000/svg" width="24" height="19.689" viewBox="0 0 24 19.689"><defs><style>.a{fill:#554d62;}</style></defs><g transform="translate(0 -45.984)"><g transform="translate(0 45.984)"><path class="a" d="M22.949,51l0,0c-.357-.125-1.307-.514-2.407-.965-1.537-.63-3.45-1.414-4.98-1.989a9.108,9.108,0,0,0-4.7-.749l-2.8.134-.407-.649a1.425,1.425,0,0,0-1.512-.793H1.24a1.219,1.219,0,0,0-1.059.609,1.4,1.4,0,0,0,0,1.383l1.395,2.467a6.109,6.109,0,0,0,4.1,3.328,11.408,11.408,0,0,0,4.253-.084l.035-.005a.469.469,0,0,0-.139-.928l-.035.005c-2.423.365-5.439.819-7.392-2.768l0-.007L1,47.517a.45.45,0,0,1-.012-.448.28.28,0,0,1,.251-.147h4.9a1.391,1.391,0,0,1,.478.051.922.922,0,0,1,.241.3l.553.88a.469.469,0,0,0,.419.219L10.9,48.23a8.211,8.211,0,0,1,4.329.69c1.518.57,3.423,1.351,4.954,1.978,1.156.474,2.069.848,2.451.982a.574.574,0,0,1,.408.709c-.092.317-.405.448-.839.353l-4.862-1.176a2.105,2.105,0,0,0-.931-.7,24.65,24.65,0,0,0-3.931-1.344.469.469,0,0,0-.214.914,23.678,23.678,0,0,1,3.772,1.291c.624.271.6.52.594.613a.536.536,0,0,1-.189.368.472.472,0,0,1-.348.112c-.247-.023-1.149-.123-1.945-.211a.469.469,0,0,0-.1.933c.8.089,1.707.189,1.962.213q.065.006.13.006a1.4,1.4,0,0,0,.905-.332,1.464,1.464,0,0,0,.5-.85l4.444,1.074.008,0a1.549,1.549,0,0,0,1.947-1.007A1.506,1.506,0,0,0,22.949,51Z" transform="translate(0 -45.984)"/><path class="a" d="M232.992,307.493a.311.311,0,0,1,.221.092.469.469,0,0,0,.664-.664,1.244,1.244,0,0,0-.53-.315v-.155a.469.469,0,0,0-.939,0v.248a1.252,1.252,0,0,0-.3,1.993l.877.877a.313.313,0,1,1-.443.443.469.469,0,0,0-.664.664,1.244,1.244,0,0,0,.53.315v.155a.469.469,0,1,0,.939,0V310.9a1.252,1.252,0,0,0,.3-1.993l-.877-.877a.313.313,0,0,1,.221-.534Z" transform="translate(-220.878 -293.804)"/><path class="a" d="M160.661,265.982a4.694,4.694,0,1,0,4.695,4.694A4.7,4.7,0,0,0,160.661,265.982Zm0,8.45a3.756,3.756,0,1,1,3.756-3.756A3.76,3.76,0,0,1,160.661,274.432Z" transform="translate(-148.662 -255.682)"/><path class="a" d="M246.9,186.909a.469.469,0,0,0-.469-.469h0a.469.469,0,1,0,.47.469Z" transform="translate(-234.434 -179.856)"/></g></g></svg>