<svg xmlns="http://www.w3.org/2000/svg" width="22.122" height="24.001" viewBox="0 0 22.122 24.001"><defs><style>.a{fill:#554d62;}</style></defs><g transform="translate(-20.042 0)"><g transform="translate(20.042 3.756)"><g transform="translate(0)"><path class="a" d="M25.279,80.121a5.237,5.237,0,1,0,5.237,5.237A5.243,5.243,0,0,0,25.279,80.121Zm0,9.77a4.533,4.533,0,1,1,4.533-4.533A4.538,4.538,0,0,1,25.279,89.891Z" transform="translate(-20.042 -80.121)"/></g></g><g transform="translate(23.49 4.884)"><g transform="translate(0)"><path class="a" d="M96.95,107.506a.352.352,0,0,0,.352-.352v-.376a1.481,1.481,0,0,0-1.48-1.48H95.8v-.775a.352.352,0,0,0-.7,0v.783a1.667,1.667,0,0,0,.164,3.327h.376a.963.963,0,0,1,0,1.926h-.564a.776.776,0,0,1-.775-.775.352.352,0,0,0-.7,0,1.481,1.481,0,0,0,1.48,1.48H95.1v.775a.352.352,0,0,0,.7,0v-.783a1.667,1.667,0,0,0-.164-3.327h-.376a.963.963,0,1,1,0-1.926h.564a.776.776,0,0,1,.775.775v.376A.352.352,0,0,0,96.95,107.506Z" transform="translate(-93.592 -104.171)"/></g></g><g transform="translate(20.042 14.278)"><g transform="translate(0)"><path class="a" d="M30.917,307.538a.352.352,0,0,0,.352-.352v-2.255a.352.352,0,0,0-.352-.352h-9.77a.352.352,0,0,0-.352.352v1.9h-.4a.352.352,0,0,0-.352.352v2.255a.352.352,0,0,0,.352.352h.4v1.55h-.4a.352.352,0,0,0-.352.352v2.255a.352.352,0,0,0,.352.352h9.77a.352.352,0,0,0,.352-.352v-1.9h.4a.352.352,0,0,0,.352-.352V309.44a.352.352,0,0,0-.352-.352h-.4v-1.55Zm-10.169,1.55v-1.55h9.066v1.55Zm9.066,4.509H20.748v-1.55h9.066Zm.752-3.8v1.55H21.5v-1.55ZM21.5,306.834v-1.55h9.066v1.55Z" transform="translate(-20.043 -304.579)"/></g></g><g transform="translate(30.941 0)"><g transform="translate(0 0)"><path class="a" d="M263.7,6.515,258.441.127a.356.356,0,0,0-.544,0l-5.261,6.388a.355.355,0,0,0,.272.576h2.278V18.012a.352.352,0,0,0,.352.352H260.8a.352.352,0,0,0,.352-.352v-1.48a.352.352,0,0,0-.7,0V17.66h-4.556V6.739a.352.352,0,0,0-.352-.352h-1.884L258.169.9l4.514,5.482H260.8a.352.352,0,0,0-.352.352v8.126a.352.352,0,1,0,.7,0V7.091h2.278A.355.355,0,0,0,263.7,6.515Z" transform="translate(-252.558 0)"/></g></g><g transform="translate(33.57 19.539)"><g transform="translate(0)"><path class="a" d="M314.242,416.807h-5.261a.352.352,0,0,0,0,.7h5.261a.352.352,0,0,0,0-.7Z" transform="translate(-308.629 -416.807)"/></g></g><g transform="translate(33.57 21.418)"><g transform="translate(0)"><path class="a" d="M314.242,456.888h-5.261a.352.352,0,0,0,0,.7h5.261a.352.352,0,0,0,0-.7Z" transform="translate(-308.629 -456.888)"/></g></g><g transform="translate(33.57 23.296)"><g transform="translate(0)"><path class="a" d="M314.242,496.97h-5.261a.352.352,0,0,0,0,.7h5.261a.352.352,0,0,0,0-.7Z" transform="translate(-308.629 -496.97)"/></g></g></g></svg>