<svg xmlns="http://www.w3.org/2000/svg" width="22.4" height="24" viewBox="0 0 22.4 24"><defs><style>.a{fill:#554d62;}</style></defs><path class="a" d="M22,11.2H18.4V2a2,2,0,0,0-2-2H3.2A1.6,1.6,0,0,0,1.6,1.6V6.4H.4a.4.4,0,0,0-.4.4V9.2a.4.4,0,0,0,.4.4H1.6V14a.4.4,0,0,0,.4.4H4v8A1.6,1.6,0,0,0,5.6,24H18.8a1.6,1.6,0,0,0,0-3.2h-.4V14.4H22a.4.4,0,0,0,.4-.4V11.6A.4.4,0,0,0,22,11.2ZM2.4,1.6A.8.8,0,1,1,4,1.6V6.4H2.4ZM.8,7.2H12a.4.4,0,0,0,.4-.349L13.775,8,12.4,9.149A.4.4,0,0,0,12,8.8H.8Zm1.6,6.4v-4H4v4Zm17.2,8.8a.8.8,0,0,1-.8.8H6.985a1.587,1.587,0,0,0,.215-.8v-.8H18.8a.8.8,0,0,1,.8.8Zm-2-1.6H6.8a.4.4,0,0,0-.4.4v1.2a.8.8,0,1,1-1.6,0V9.6h6.8V10a.4.4,0,0,0,.656.307l2.4-2a.4.4,0,0,0,0-.614l-2.4-2A.4.4,0,0,0,11.6,6v.4H4.8V1.6A1.582,1.582,0,0,0,4.578.8H16.4A1.2,1.2,0,0,1,17.6,2v9.2H10.8v-.4a.4.4,0,0,0-.656-.307l-2.4,2a.4.4,0,0,0,0,.614l2.4,2A.4.4,0,0,0,10.8,14.8v-.4h6.8Zm4-7.2H10.4a.391.391,0,0,0-.15.03,1.386,1.386,0,0,0-.122.08.422.422,0,0,0-.036.046.379.379,0,0,0-.05.074.35.35,0,0,0-.018.058.345.345,0,0,0-.02.061L8.625,12.8,10,11.651a.345.345,0,0,0,.02.061.333.333,0,0,0,.018.058.371.371,0,0,0,.05.074.421.421,0,0,0,.036.046,1.388,1.388,0,0,0,.122.08A.388.388,0,0,0,10.4,12H21.6Zm0,0"/><path class="a" d="M128,48h4v.8h-4Zm0,0" transform="translate(-121.6 -45.6)"/><path class="a" d="M128,80h4v.8h-4Zm0,0" transform="translate(-121.6 -76)"/><path class="a" d="M160,352h8v.8h-8Zm0,0" transform="translate(-152 -334.4)"/><path class="a" d="M160,384h8v.8h-8Zm0,0" transform="translate(-152 -364.8)"/><path class="a" d="M272,320h2.4v.8H272Zm0,0" transform="translate(-258.4 -304)"/></svg>