<svg xmlns="http://www.w3.org/2000/svg" width="18.4" height="13.174" viewBox="0 0 18.4 13.174"><defs><style>.a{fill:#acb2c4;stroke:#acb1c3;stroke-linecap:square;stroke-width:0.4px;}</style></defs><path class="a" d="M25.71,89.581h-.29V87.258A1.163,1.163,0,0,0,24.258,86.1V81.161A1.163,1.163,0,0,0,23.1,80H10.9a1.163,1.163,0,0,0-1.161,1.161V86.1a1.163,1.163,0,0,0-1.161,1.161v2.323H8.29a.29.29,0,0,0-.29.29v1.161a.29.29,0,0,0,.29.29h.29v1.161a.29.29,0,0,0,.29.29h.871a.29.29,0,0,0,.285-.233l.244-1.218H23.73l.244,1.218a.29.29,0,0,0,.285.233h.871a.29.29,0,0,0,.29-.29V91.323h.29a.29.29,0,0,0,.29-.29V89.871A.29.29,0,0,0,25.71,89.581ZM10.323,81.161a.581.581,0,0,1,.581-.581H23.1a.581.581,0,0,1,.581.581V86.1H23.1V84.935a1.163,1.163,0,0,0-1.161-1.161H18.452a1.163,1.163,0,0,0-1.161,1.161V86.1H16.71V84.935a1.163,1.163,0,0,0-1.161-1.161H12.065A1.163,1.163,0,0,0,10.9,84.935V86.1h-.581Zm12.194,3.774V86.1H17.871V84.935a.581.581,0,0,1,.581-.581h3.484a.581.581,0,0,1,.581.581Zm-6.387,0V86.1H11.484V84.935a.581.581,0,0,1,.581-.581h3.484A.581.581,0,0,1,16.129,84.935ZM9.161,87.258a.581.581,0,0,1,.581-.581H24.258a.581.581,0,0,1,.581.581v2.323H9.161ZM9.5,92.194H9.161v-.871h.517Zm15.335,0H24.5l-.174-.871h.517Zm.581-1.452H8.581v-.581H25.419Z" transform="translate(-7.8 -79.8)"/></svg>