<svg xmlns="http://www.w3.org/2000/svg" width="15.75" height="18" viewBox="0 0 15.75 18"><defs><style>.a{fill:none;}.b,.c{stroke:none;}.c{fill:#acb2c4;}</style></defs><g class="a"><path class="b" d="M15.328,16.875h-.7V.844A.844.844,0,0,0,13.781,0H1.969a.844.844,0,0,0-.844.844V16.875h-.7A.422.422,0,0,0,0,17.3V18H15.75v-.7A.422.422,0,0,0,15.328,16.875ZM4.5,3.672a.422.422,0,0,1,.422-.422H6.328a.422.422,0,0,1,.422.422V5.078a.422.422,0,0,1-.422.422H4.922A.422.422,0,0,1,4.5,5.078ZM6.328,10.25H4.922A.422.422,0,0,1,4.5,9.828V8.422A.422.422,0,0,1,4.922,8H6.328a.422.422,0,0,1,.422.422V9.828A.422.422,0,0,1,6.328,10.25ZM9,16.875H6.75V13.922a.422.422,0,0,1,.422-.422H8.578A.422.422,0,0,1,9,13.922Zm2.25-7.047a.422.422,0,0,1-.422.422H9.422A.422.422,0,0,1,9,9.828V8.422A.422.422,0,0,1,9.422,8h1.406a.422.422,0,0,1,.422.422Zm0-4.75a.422.422,0,0,1-.422.422H9.422A.422.422,0,0,1,9,5.078V3.672a.422.422,0,0,1,.422-.422h1.406a.422.422,0,0,1,.422.422Z"/><path class="c" d="M 13.625 17 L 13.625 16.875 L 13.625 1 L 2.125 1 L 2.125 16.875 L 2.125 17 L 5.75 17 L 5.75 16.875 L 5.75 13.92187976837158 C 5.75 13.13784980773926 6.387849807739258 12.5 7.171879768371582 12.5 L 8.578129768371582 12.5 C 9.362150192260742 12.5 10 13.13784980773926 10 13.92187976837158 L 10 16.875 L 10 17 L 13.625 17 M 9.421879768371582 7 L 10.82812976837158 7 C 11.61215019226074 7 12.25 7.637849807739258 12.25 8.421879768371582 L 12.25 9.828129768371582 C 12.25 10.61215019226074 11.61215019226074 11.25 10.82812976837158 11.25 L 9.421879768371582 11.25 C 8.637849807739258 11.25 8 10.61215019226074 8 9.828129768371582 L 8 8.421879768371582 C 8 7.637849807739258 8.637849807739258 7 9.421879768371582 7 M 4.921879768371582 7 L 6.328129768371582 7 C 7.112150192260742 7 7.75 7.637849807739258 7.75 8.421879768371582 L 7.75 9.828129768371582 C 7.75 10.61215019226074 7.112150192260742 11.25 6.328129768371582 11.25 L 4.921879768371582 11.25 C 4.137849807739258 11.25 3.5 10.61215019226074 3.5 9.828129768371582 L 3.5 8.421879768371582 C 3.5 7.637849807739258 4.137849807739258 7 4.921879768371582 7 M 9.421879768371582 2.25 L 10.82812976837158 2.25 C 11.61215019226074 2.25 12.25 2.887850046157837 12.25 3.671880006790161 L 12.25 5.078129768371582 C 12.25 5.862150192260742 11.61215019226074 6.5 10.82812976837158 6.5 L 9.421879768371582 6.5 C 8.637849807739258 6.5 8 5.862150192260742 8 5.078129768371582 L 8 3.671880006790161 C 8 2.887850046157837 8.637849807739258 2.25 9.421879768371582 2.25 M 4.921879768371582 2.25 L 6.328129768371582 2.25 C 7.112150192260742 2.25 7.75 2.887850046157837 7.75 3.671880006790161 L 7.75 5.078129768371582 C 7.75 5.862150192260742 7.112150192260742 6.5 6.328129768371582 6.5 L 4.921879768371582 6.5 C 4.137849807739258 6.5 3.5 5.862150192260742 3.5 5.078129768371582 L 3.5 3.671880006790161 C 3.5 2.887850046157837 4.137849807739258 2.25 4.921879768371582 2.25 M 15.75 18 L -8.881784197001252e-16 18 L -8.881784197001252e-16 17.2968807220459 C -8.881784197001252e-16 17.06389045715332 0.1888999938964844 16.875 0.4218800067901611 16.875 L 1.125 16.875 L 1.125 0.84375 C 1.125 0.3777500092983246 1.502750039100647 0 1.96875 0 L 13.78125 0 C 14.24724960327148 0 14.625 0.3777500092983246 14.625 0.84375 L 14.625 16.875 L 15.32812976837158 16.875 C 15.56110954284668 16.875 15.75 17.06389045715332 15.75 17.2968807220459 L 15.75 18 Z M 7.171879768371582 13.5 C 6.938889980316162 13.5 6.75 13.68889045715332 6.75 13.92187976837158 L 6.75 16.875 L 9 16.875 L 9 13.92187976837158 C 9 13.68889045715332 8.81110954284668 13.5 8.578129768371582 13.5 L 7.171879768371582 13.5 Z M 9.421879768371582 8 C 9.18889045715332 8 9 8.18889045715332 9 8.421879768371582 L 9 9.828129768371582 C 9 10.06110954284668 9.18889045715332 10.25 9.421879768371582 10.25 L 10.82812976837158 10.25 C 11.06110954284668 10.25 11.25 10.06110954284668 11.25 9.828129768371582 L 11.25 8.421879768371582 C 11.25 8.18889045715332 11.06110954284668 8 10.82812976837158 8 L 9.421879768371582 8 Z M 4.921879768371582 8 C 4.688889980316162 8 4.5 8.18889045715332 4.5 8.421879768371582 L 4.5 9.828129768371582 C 4.5 10.06110954284668 4.688889980316162 10.25 4.921879768371582 10.25 L 6.328129768371582 10.25 C 6.561110019683838 10.25 6.75 10.06110954284668 6.75 9.828129768371582 L 6.75 8.421879768371582 C 6.75 8.18889045715332 6.561110019683838 8 6.328129768371582 8 L 4.921879768371582 8 Z M 9.421879768371582 3.25 C 9.18889045715332 3.25 9 3.438889980316162 9 3.671880006790161 L 9 5.078129768371582 C 9 5.311110019683838 9.18889045715332 5.5 9.421879768371582 5.5 L 10.82812976837158 5.5 C 11.06110954284668 5.5 11.25 5.311110019683838 11.25 5.078129768371582 L 11.25 3.671880006790161 C 11.25 3.438889980316162 11.06110954284668 3.25 10.82812976837158 3.25 L 9.421879768371582 3.25 Z M 4.921879768371582 3.25 C 4.688889980316162 3.25 4.5 3.438889980316162 4.5 3.671880006790161 L 4.5 5.078129768371582 C 4.5 5.311110019683838 4.688889980316162 5.5 4.921879768371582 5.5 L 6.328129768371582 5.5 C 6.561110019683838 5.5 6.75 5.311110019683838 6.75 5.078129768371582 L 6.75 3.671880006790161 C 6.75 3.438889980316162 6.561110019683838 3.25 6.328129768371582 3.25 L 4.921879768371582 3.25 Z"/></g></svg>