<svg xmlns="http://www.w3.org/2000/svg" width="18" height="18" viewBox="0 0 18 18"><defs><style>.a{fill:#acb2c4;}</style></defs><path class="a" d="M16.714,1.286H14.143V0H12.857V1.286H5.143V0H3.857V1.286H1.286A1.287,1.287,0,0,0,0,2.571V16.714A1.287,1.287,0,0,0,1.286,18H12.214a.642.642,0,0,0,.455-.188l5.143-5.143A.642.642,0,0,0,18,12.214V2.571a1.287,1.287,0,0,0-1.286-1.286Zm-3.857,14.52V12.857h2.948Zm3.857-4.234H12.857a1.287,1.287,0,0,0-1.286,1.286v3.857H1.286V6.429H16.714v5.143Zm0-6.429H1.286V2.571H3.857V3.857H5.143V2.571h7.714V3.857h1.286V2.571h2.571V5.143Z" transform="translate(0)"/></svg>