<svg xmlns="http://www.w3.org/2000/svg" width="11.674" height="18.691" viewBox="0 0 11.674 18.691"><defs><style>.a{fill:#acb2c4;stroke:#acb2c4;stroke-width:0.5px;}</style></defs><g transform="translate(-90.75 -3.75)"><path class="a" d="M96.587,0A5.593,5.593,0,0,0,91,5.587c0,3.228,3.09,7.4,5.225,9.567a.508.508,0,0,0,.723,0c2.166-2.2,5.225-6.355,5.225-9.567A5.593,5.593,0,0,0,96.587,0Zm0,14.054c-1.139-1.247-4.571-5.273-4.571-8.468a4.571,4.571,0,0,1,9.142,0C101.158,8.778,97.725,12.807,96.587,14.054Z" transform="translate(0 4)"/><path class="a" d="M151.621,482a.5.5,0,1,0,0,.975h7.449a.5.5,0,1,0,0-.975Z" transform="translate(-58.634 -460.784)"/></g></svg>