<svg xmlns="http://www.w3.org/2000/svg" width="18" height="18" viewBox="0 0 18 18"><defs><style>.a{fill:none;}.b,.c{stroke:none;}.c{fill:#abb1c4;}</style></defs><g class="a" transform="translate(-3.586 -3.579)"><path class="b" d="M9.906,6.831a8.355,8.355,0,0,1,.654-3.252A9.129,9.129,0,1,0,21.586,14.6,8.425,8.425,0,0,1,9.906,6.831Z"/><path class="c" d="M 8.429866790771484 6.141805648803711 C 7.796710968017578 6.572263717651367 7.226394653320313 7.097749710083008 6.744869232177734 7.701677322387695 C 5.659587860107422 9.062826156616211 5.085939407348633 10.70457744598389 5.085939407348633 12.44942665100098 C 5.085939407348633 16.65633773803711 8.508508682250977 20.07890701293945 12.71541881561279 20.07890701293945 C 14.46026802062988 20.07890701293945 16.10201835632324 19.50525665283203 17.46316909790039 18.41997718811035 C 18.06709671020508 17.93845176696777 18.59258270263672 17.36813354492188 19.02304077148438 16.73497772216797 C 18.79446220397949 16.75064849853516 18.56464576721191 16.75849723815918 18.33355903625488 16.75849723815918 C 12.85967826843262 16.75849723815918 8.406349182128906 12.30516719818115 8.406349182128906 6.831287384033203 C 8.406349182128906 6.600275039672852 8.414205551147461 6.370307922363281 8.429866790771484 6.141805648803711 M 10.56033802032471 3.578907012939453 C 10.1389684677124 4.57963752746582 9.90634822845459 5.67692756652832 9.90634822845459 6.831287384033203 C 9.90634822845459 11.48380661010742 13.68103885650635 15.25849723815918 18.33355903625488 15.25849723815918 C 19.48352813720703 15.25849723815918 20.58520889282227 15.0258674621582 21.5859375 14.60450744628906 C 20.61592864990234 18.60743713378906 17.01241874694824 21.57890701293945 12.71541881561279 21.57890701293945 C 7.67664909362793 21.57890701293945 3.585939407348633 17.48819732666016 3.585939407348633 12.44942665100098 C 3.585939407348633 8.152427673339844 6.557409286499023 4.548917770385742 10.56033802032471 3.578907012939453 Z"/></g></svg>