<svg xmlns="http://www.w3.org/2000/svg" width="18.307" height="10.03" viewBox="0 0 18.307 10.03"><defs><style>.a{fill:#acb2c4;stroke:#acb2c4;stroke-width:0.3px;}</style></defs><g transform="translate(-0.348 -118.043)"><g transform="translate(-0.001 118.236)"><path class="a" d="M17.94,119.053a.9.9,0,0,0-.608-.55c-.288-.077-2.869-.725-4.7.331-.446.258-1.272.811-2.519,1.687l-7.282-1.953a.9.9,0,0,0-.682.09l-.778.45a.9.9,0,0,0,.028,1.574l4.861,2.587c-.821.577-1.621,1.127-2.106,1.46l-2.181-1.284a.9.9,0,0,0-.905,0l-.623.36a.9.9,0,0,0-.121,1.474l2.966,2.443a.9.9,0,0,0,.625.2l2.007-.121a.9.9,0,0,0,.4-.119l8.564-4.95a10.179,10.179,0,0,0,2.965-2.863A.9.9,0,0,0,17.94,119.053Zm-3.505,2.9L5.871,126.9l-2.007.121L.9,124.58l.623-.36,2.672,1.573s2.146-1.457,3.778-2.635l-6.146-3.271.778-.45,7.687,2.062c1.2-.848,2.277-1.586,2.8-1.885,1.557-.9,4.013-.241,4.013-.241A9.3,9.3,0,0,1,14.435,121.952Z" transform="translate(0.501 -118.236)"/></g></g></svg>