<svg xmlns="http://www.w3.org/2000/svg" width="17.754" height="24.4" viewBox="0 0 17.754 24.4"><defs></defs><g transform="translate(-64.2 -13.8)"><path fill="#554d62" stroke=#554d62 stroke-width=0.4px  d="M72,136.492A8.492,8.492,0,1,0,80.492,128,8.5,8.5,0,0,0,72,136.492Zm11.8,3.445a8.448,8.448,0,0,0,1.682,2.482,7.718,7.718,0,0,1-4.625,1.819v-7.376h2.224A8.412,8.412,0,0,0,83.8,139.937ZM77.9,136.862h2.224v7.376a7.719,7.719,0,0,1-4.625-1.818,8.461,8.461,0,0,0,2.4-5.557Zm5.186-.738H80.862v-7.375a7.719,7.719,0,0,1,4.625,1.818,8.461,8.461,0,0,0-2.4,5.557Zm-2.962,0H77.9a8.461,8.461,0,0,0-2.4-5.557,7.719,7.719,0,0,1,4.625-1.818Zm-5.167-5.054a7.787,7.787,0,0,1,2.2,5.054H72.748A7.729,7.729,0,0,1,74.956,131.069Zm-2.209,5.792H77.16a7.787,7.787,0,0,1-2.2,5.054A7.729,7.729,0,0,1,72.748,136.862Zm13.281,5.054a7.787,7.787,0,0,1-2.2-5.054h4.413a7.729,7.729,0,0,1-2.209,5.054Zm2.209-5.792H83.825a7.787,7.787,0,0,1,2.2-5.054A7.729,7.729,0,0,1,88.237,136.123Z" transform="translate(-7.6 -106.985)"/><path fill="#554d62" stroke=#554d62 stroke-width=0.4px   d="M96.984,17.108a.369.369,0,0,0-.369-.369H91.137l-2.159-.719A.369.369,0,0,0,88.861,16H83.323a.369.369,0,0,0-.165.039l-2.546,1.273A1.1,1.1,0,0,0,80,18.3v1.021a.369.369,0,0,0,.534.33l2.876-1.438h3.822l.738.738H85.538a1.108,1.108,0,0,0,0,2.215H96.615a.369.369,0,0,0,.369-.369Zm-.738,3.323H85.538a.369.369,0,1,1,0-.738h3.323a.369.369,0,0,0,.261-.63l-1.477-1.477a.369.369,0,0,0-.261-.108H83.323a.369.369,0,0,0-.165.039l-2.419,1.21V18.3a.367.367,0,0,1,.2-.33l2.468-1.234H88.8l2.159.72a.371.371,0,0,0,.117.019h5.169Z" transform="translate(-15.231 -2)"/></g></svg>