<svg xmlns="http://www.w3.org/2000/svg" width="23.995" height="23.995" viewBox="0 0 23.995 23.995"><defs><style>.a{fill:#554d62;}</style></defs><g transform="translate(0 -0.001)"><g transform="translate(0 0.001)"><g transform="translate(0 0)"><path class="a" d="M18.8,13.6a5.2,5.2,0,0,0-4.375,2.393l-1.473-.8a1.057,1.057,0,0,1-.551-.928V12.937a8.4,8.4,0,0,0,1.4-2.895A1.59,1.59,0,0,0,14.4,8.8V7.2A1.6,1.6,0,0,0,14,6.15V4.023a3.586,3.586,0,0,0-.837-2.61A5.033,5.033,0,0,0,9.2,0,5.033,5.033,0,0,0,5.236,1.413,3.585,3.585,0,0,0,4.4,4.023V6.15A1.6,1.6,0,0,0,4,7.2V8.8a1.591,1.591,0,0,0,.6,1.243A8.4,8.4,0,0,0,6,12.937V14.26a1.058,1.058,0,0,1-.551.928L1.88,17.134A3.606,3.606,0,0,0,0,20.3V22a.4.4,0,0,0,.4.4H15.048A5.2,5.2,0,1,0,18.8,13.6Zm-18,8V20.3a2.806,2.806,0,0,1,1.463-2.465L5.831,15.89A1.856,1.856,0,0,0,6.8,14.26V12.8a.4.4,0,0,0-.093-.256A7.591,7.591,0,0,1,5.342,9.716a.4.4,0,0,0-.173-.246A.8.8,0,0,1,4.8,8.8V7.2a.788.788,0,0,1,.268-.59.4.4,0,0,0,.132-.3V4a.387.387,0,0,0,0-.052A2.776,2.776,0,0,1,5.837,1.94,4.3,4.3,0,0,1,9.2.8a4.307,4.307,0,0,1,3.354,1.131A2.813,2.813,0,0,1,13.2,3.948.386.386,0,0,0,13.2,4V6.313a.4.4,0,0,0,.132.3.789.789,0,0,1,.268.59V8.8a.8.8,0,0,1-.37.671.4.4,0,0,0-.173.246,7.6,7.6,0,0,1-1.364,2.826.4.4,0,0,0-.093.256V14.26a1.856,1.856,0,0,0,.968,1.63l1.476.805a5.191,5.191,0,0,0,.376,4.9H.8Zm18,1.6a4.388,4.388,0,0,1-3.244-1.432.4.4,0,0,0-.058-.065,4.4,4.4,0,1,1,3.3,1.5Z" transform="translate(0 -0.001)"/><path class="a" d="M346.535,343.735h-2v-2a.4.4,0,1,0-.8,0v2h-2a.4.4,0,0,0,0,.8h2v2a.4.4,0,1,0,.8,0v-2h2a.4.4,0,0,0,0-.8Z" transform="translate(-325.339 -325.338)"/></g></g></g></svg>