<svg xmlns="http://www.w3.org/2000/svg" width="23.996" height="23.996" viewBox="0 0 23.996 23.996"><defs><style>.a{fill:#554D62;}.b,.d{fill:none;}.b{stroke:#554D62;stroke-width:0.8px;}.c{stroke:none;}</style></defs><g transform="translate(-2 -2)"><path class="a" d="M14.8,7.6V6.4A4.4,4.4,0,1,0,6,6.4V7.6A1.2,1.2,0,0,0,6,10v.4a4.4,4.4,0,0,0,2.4,3.915V15.7L5.087,16.738A4.385,4.385,0,0,0,2,20.937V25.6a.4.4,0,0,0,.4.4H13.2v-.8H5.6V20.8H4.8v4.4h-2V20.937A3.583,3.583,0,0,1,5.327,17.5l2.112-.66L7.2,18.749a.393.393,0,0,0,.156.368.412.412,0,0,0,.24.08.418.418,0,0,0,.156-.032L10.4,18.033l2.644,1.132a.418.418,0,0,0,.156.032.412.412,0,0,0,.24-.08.393.393,0,0,0,.156-.368l-.236-1.908.92.288.24-.764L12.4,15.7V14.314A4.4,4.4,0,0,0,14.8,10.4V10a1.2,1.2,0,0,0,0-2.4ZM6,9.2a.4.4,0,0,1,0-.8Zm2.084,8.955.2-1.576.408-.128L9.7,17.462ZM9.2,15.834V14.626a4.271,4.271,0,0,0,2.4,0v1.208l-1.2,1.2Zm3.319.744.2,1.576L11.1,17.462,12.11,16.45ZM14,10.4a3.6,3.6,0,1,1-7.2,0V8.567A10.816,10.816,0,0,1,9.767,6.491a3.082,3.082,0,0,0,1.252,1.464.4.4,0,0,0,.536-.176,1.257,1.257,0,0,1,.608-.544A3.223,3.223,0,0,0,14,8.691Zm0-2.556a2.236,2.236,0,0,1-1.22-1.172A.406.406,0,0,0,12.4,6.4a1.707,1.707,0,0,0-1.3.644,3.21,3.21,0,0,1-.72-1.172.406.406,0,0,0-.476-.26,8.822,8.822,0,0,0-3.1,1.88V6.4a3.6,3.6,0,1,1,7.2,0ZM14.8,9.2V8.4a.4.4,0,0,1,0,.8Z" transform="translate(0 0)"/><path class="a" d="M17,19h.8v.8H17Z" transform="translate(-9.001 -10.201)"/><path class="a" d="M27,19h.8v.8H27Z" transform="translate(-15.002 -10.201)"/><path class="a" d="M22.2,25h-.8a.8.8,0,1,1-1.6,0H19a1.6,1.6,0,1,0,3.2,0Z" transform="translate(-10.201 -13.801)"/><path class="a" d="M43.973,42.458,42.8,39.326V34.2A1.2,1.2,0,0,0,41.6,33v.8a.4.4,0,0,1,.4.4V39H34V34.2a.4.4,0,0,1,.4-.4V33a1.2,1.2,0,0,0-1.2,1.2v5.126l-1.175,3.132A.4.4,0,0,0,32,42.6v1.2a.8.8,0,0,0,.8.8H43.2a.8.8,0,0,0,.8-.8V42.6A.4.4,0,0,0,43.973,42.458ZM42.121,39.8l.9,2.4H40.287l-.309-.926A.4.4,0,0,0,39.6,41H36.4a.4.4,0,0,0-.379.274l-.309.926H32.977l.9-2.4Zm-2.677,2.4h-2.89l.134-.4H39.31ZM32.8,43.8V43H43.2v.8Z" transform="translate(-18.002 -18.602)"/><path class="a" d="M46,40h.8v.8H46Z" transform="translate(-26.403 -22.802)"/><path class="a" d="M50,40h.8v.8H50Z" transform="translate(-28.803 -22.802)"/><path class="a" d="M42,40h.8v.8H42Z" transform="translate(-24.003 -22.802)"/><g class="b" transform="translate(15.998 7.998)"><circle class="c" cx="4" cy="4" r="4"/><circle class="d" cx="4" cy="4" r="3.6"/></g><path class="a" d="M344.678,342.878h-1.286v-1.286a.257.257,0,0,0-.514,0v1.286h-1.286a.257.257,0,1,0,0,.514h1.286v1.286a.257.257,0,1,0,.514,0v-1.286h1.286a.257.257,0,1,0,0-.514Z" transform="translate(-323.139 -331.338)"/></g></svg>