<svg xmlns="http://www.w3.org/2000/svg" width="24" height="22.906" viewBox="0 0 24 22.906"><defs><style>.a{fill:#fff;}</style></defs><g transform="translate(0 -11.672)"><path class="a" d="M11.624,30.46H1.479A.777.777,0,0,1,.7,29.684v-12.8H18.788V23.3a.352.352,0,0,0,.7,0V14.654a1.481,1.481,0,0,0-1.479-1.479h-.4v-.4a1.1,1.1,0,0,0-2.206,0v.4H5.236a.352.352,0,1,0,0,.7h10.17v.4a1.1,1.1,0,0,0,2.206,0v-.4h.4a.777.777,0,0,1,.776.776v1.527H.7V14.654a.777.777,0,0,1,.776-.776h.4v.4a1.1,1.1,0,1,0,2.206,0v-1.5a1.1,1.1,0,1,0-2.206,0v.4h-.4A1.481,1.481,0,0,0,0,14.654v15.03a1.48,1.48,0,0,0,1.479,1.479H11.624a.352.352,0,1,0,0-.7Zm4.885-15.782a.4.4,0,0,1-.4-.4v-1.5a.4.4,0,0,1,.8,0v1.5A.4.4,0,0,1,16.509,14.678Zm-13.927-1.9a.4.4,0,0,1,.8,0v1.5a.4.4,0,1,1-.8,0Z"/><path class="a" d="M283.691,279.857a.352.352,0,0,0-.3-.292l-1.358-.17a4.127,4.127,0,0,0-.746-1.291l.532-1.262a.352.352,0,0,0-.1-.409,5.224,5.224,0,0,0-1.579-.912.352.352,0,0,0-.4.117l-.827,1.092a3.931,3.931,0,0,0-1.49,0l-.827-1.092a.352.352,0,0,0-.4-.117,5.224,5.224,0,0,0-1.579.912.352.352,0,0,0-.1.409l.532,1.262a4.128,4.128,0,0,0-.746,1.291l-1.358.17a.352.352,0,0,0-.3.292,5.224,5.224,0,0,0,0,1.823.352.352,0,0,0,.3.292l1.358.17a4.129,4.129,0,0,0,.746,1.291l-.532,1.262a.352.352,0,0,0,.1.409,5.224,5.224,0,0,0,1.579.912.352.352,0,0,0,.4-.117l.827-1.092a3.931,3.931,0,0,0,1.49,0l.827,1.092a.351.351,0,0,0,.4.117,5.222,5.222,0,0,0,1.579-.912.352.352,0,0,0,.1-.409l-.532-1.262a4.127,4.127,0,0,0,.746-1.291l1.358-.17a.351.351,0,0,0,.3-.292,5.227,5.227,0,0,0,0-1.823Zm-.657,1.451-1.313.164a.351.351,0,0,0-.294.25,3.414,3.414,0,0,1-.808,1.4.352.352,0,0,0-.07.38l.515,1.221a4.291,4.291,0,0,1-.934.539l-.8-1.057a.351.351,0,0,0-.363-.129,3.289,3.289,0,0,1-1.614,0,.352.352,0,0,0-.363.129l-.8,1.057a4.288,4.288,0,0,1-.934-.539l.515-1.221a.352.352,0,0,0-.07-.38,3.415,3.415,0,0,1-.808-1.4.352.352,0,0,0-.294-.25l-1.313-.164a4.288,4.288,0,0,1,0-1.079l1.313-.164a.351.351,0,0,0,.294-.25,3.413,3.413,0,0,1,.808-1.4.352.352,0,0,0,.07-.38l-.515-1.221a4.289,4.289,0,0,1,.934-.539l.8,1.057a.352.352,0,0,0,.363.129,3.289,3.289,0,0,1,1.614,0,.352.352,0,0,0,.363-.129l.8-1.057a4.291,4.291,0,0,1,.934.539l-.515,1.221a.352.352,0,0,0,.07.38,3.415,3.415,0,0,1,.808,1.4.352.352,0,0,0,.294.25l1.313.164a4.278,4.278,0,0,1,0,1.079Z" transform="translate(-259.771 -251.46)"/><path class="a" d="M348.576,341.6a.352.352,0,0,0-.214.449,1.525,1.525,0,1,1-.944-.934.352.352,0,0,0,.228-.665,2.229,2.229,0,1,0,1.379,1.364A.351.351,0,0,0,348.576,341.6Z" transform="translate(-328.535 -313.255)"/><path class="a" d="M70.343,173.1a1.1,1.1,0,0,0-1.1-1.1H57.216a1.1,1.1,0,1,0,0,2.206H69.24A1.1,1.1,0,0,0,70.343,173.1Zm-1.1.4H57.216a.4.4,0,1,1,0-.8H69.24a.4.4,0,1,1,0,.8Z" transform="translate(-53.483 -152.808)"/><path class="a" d="M57.216,244.843H69.24a.352.352,0,0,0,0-.7H57.216a1.1,1.1,0,0,0,0,2.206H67.361a.352.352,0,0,0,0-.7H57.216a.4.4,0,0,1,0-.8Z" transform="translate(-53.483 -221.571)"/><path class="a" d="M57.216,316.988H67.361a.352.352,0,0,0,0-.7H57.216a1.1,1.1,0,1,0,0,2.206h7.891a.352.352,0,0,0,0-.7H57.216a.4.4,0,1,1,0-.8Z" transform="translate(-53.483 -290.334)"/></g></svg>