<svg xmlns="http://www.w3.org/2000/svg" width="9.818" height="12" viewBox="0 0 9.818 12"><defs><style>.a{fill:none;}.b,.c{stroke:none;}.c{fill:#abb1bb;}</style></defs><g class="a" transform="translate(-4.5)"><path class="b" d="M9.409,3.273A1.091,1.091,0,0,0,10.5,2.182a1.038,1.038,0,0,0-.158-.562L9.409,0,8.476,1.62a1.038,1.038,0,0,0-.158.562A1.094,1.094,0,0,0,9.409,3.273Zm2.509,5.449-.584-.584-.589.584a1.933,1.933,0,0,1-2.667,0l-.584-.584L6.9,8.722a1.873,1.873,0,0,1-1.331.551A1.9,1.9,0,0,1,4.5,8.94v2.515A.547.547,0,0,0,5.045,12h8.727a.547.547,0,0,0,.545-.545V8.94a1.9,1.9,0,0,1-1.069.333A1.873,1.873,0,0,1,11.918,8.722Zm.764-3.813H9.955V3.818H8.864V4.909H6.136A1.634,1.634,0,0,0,4.5,6.545v.84A1.071,1.071,0,0,0,5.569,8.455a1.047,1.047,0,0,0,.753-.311L7.489,6.982,8.651,8.144a1.094,1.094,0,0,0,1.511,0l1.167-1.162,1.162,1.162a1.056,1.056,0,0,0,.753.311,1.071,1.071,0,0,0,1.069-1.069v-.84A1.626,1.626,0,0,0,12.682,4.909Z"/><path class="c" d="M 6.136358261108398 5.909088611602783 C 5.785468101501465 5.909088611602783 5.499998092651367 6.194558620452881 5.499998092651367 6.545448780059814 L 5.499998092651367 7.385448455810547 C 5.499998092651367 7.422248363494873 5.532288551330566 7.454538345336914 5.569087982177734 7.454538345336914 C 5.590928077697754 7.454538345336914 5.603347778320313 7.447798728942871 5.605117797851563 7.446258544921875 L 5.610697746276855 7.440518379211426 L 5.616368293762207 7.434878349304199 L 6.783638000488281 6.273058414459229 L 7.149314880371094 5.909088611602783 L 6.136358261108398 5.909088611602783 M 7.830573081970215 5.909088611602783 L 8.196198463439941 6.27470874786377 L 9.356867790222168 7.435498714447021 C 9.35994815826416 7.437798500061035 9.377378463745117 7.446358680725098 9.406357765197754 7.446358680725098 C 9.435348510742188 7.446358680725098 9.452777862548828 7.437788486480713 9.456368446350098 7.434878349304199 L 10.62363815307617 6.273058414459229 L 10.98931503295898 5.909088611602783 L 9.954538345336914 5.909088611602783 L 8.954538345336914 5.909088611602783 L 8.863637924194336 5.909088611602783 L 7.830573081970215 5.909088611602783 M 11.67057228088379 5.909088611602783 L 12.03619766235352 6.27470874786377 L 13.197998046875 7.436518669128418 C 13.20912742614746 7.447638511657715 13.22063827514648 7.454538345336914 13.24362754821777 7.454538345336914 C 13.28042793273926 7.454538345336914 13.31271743774414 7.422248363494873 13.31271743774414 7.385448455810547 L 13.31271743774414 6.545448780059814 L 13.31271743774414 6.542428493499756 L 13.3127384185791 6.539418697357178 C 13.31374835968018 6.371158599853516 13.24947834014893 6.213278770446777 13.13176822662354 6.0948486328125 C 13.01269817352295 5.975058555603027 12.85289764404297 5.909088611602783 12.68181800842285 5.909088611602783 L 11.67057228088379 5.909088611602783 M 7.489450454711914 9.54029369354248 C 6.960728645324707 10.01383209228516 6.284946441650391 10.27272891998291 5.569087982177734 10.27272891998291 C 5.546021461486816 10.27272891998291 5.52301025390625 10.27245235443115 5.499998092651367 10.27190017700195 L 5.499998092651367 10.99999809265137 L 13.31817817687988 10.99999809265137 L 13.31817817687988 10.27190017700195 C 13.295166015625 10.27245235443115 13.27215385437012 10.27272891998291 13.24908828735352 10.27272891998291 C 12.5344705581665 10.27272891998291 11.85976791381836 10.01471710205078 11.33143138885498 9.54271125793457 C 10.81599521636963 9.997604370117188 10.12546920776367 10.25567817687988 9.41105842590332 10.25567817687988 C 8.69626522064209 10.25567817687988 8.005105018615723 9.996698379516602 7.489450454711914 9.54029369354248 M 9.409088134765625 -9.5367431640625e-07 L 10.34181785583496 1.619998931884766 C 10.44544792175293 1.783638954162598 10.49999809265137 1.97454833984375 10.49999809265137 2.181818962097168 C 10.49999809265137 2.781818389892578 10.0145378112793 3.27272891998291 9.409088134765625 3.27272891998291 C 8.809087753295898 3.27272891998291 8.318178176879883 2.781818389892578 8.318178176879883 2.181818962097168 C 8.318178176879883 1.97454833984375 8.37272834777832 1.783638954162598 8.476358413696289 1.619998931884766 L 9.409088134765625 -9.5367431640625e-07 Z M 8.863637924194336 3.818178176879883 L 9.954538345336914 3.818178176879883 L 9.954538345336914 4.909088611602783 L 12.68181800842285 4.909088611602783 C 13.5872688293457 4.909088611602783 14.31817817687988 5.639998435974121 14.31271743774414 6.545448780059814 L 14.31271743774414 7.385448455810547 C 14.31271743774414 7.974538803100586 13.83272743225098 8.454538345336914 13.24362754821777 8.454538345336914 C 12.95999813079834 8.454538345336914 12.69272804260254 8.34544849395752 12.49090766906738 8.143638610839844 L 11.32908821105957 6.981818675994873 L 10.1618185043335 8.143638610839844 C 9.95999813079834 8.345453262329102 9.683177947998047 8.446361541748047 9.406359672546387 8.446361541748047 C 9.12954044342041 8.446361541748047 8.852723121643066 8.345453262329102 8.650908470153809 8.143638610839844 L 7.48908805847168 6.981818675994873 L 6.321818351745605 8.143638610839844 C 6.125448226928711 8.34544849395752 5.852727890014648 8.454538345336914 5.569087982177734 8.454538345336914 C 4.979998588562012 8.454538345336914 4.499998092651367 7.974538803100586 4.499998092651367 7.385448455810547 L 4.499998092651367 6.545448780059814 C 4.499998092651367 5.639998435974121 5.230908393859863 4.909088611602783 6.136358261108398 4.909088611602783 L 8.863637924194336 4.909088611602783 L 8.863637924194336 3.818178176879883 Z M 7.494538307189941 8.138178825378418 L 8.078178405761719 8.721818923950195 C 8.434799194335938 9.078433990478516 8.923084259033203 9.255681991577148 9.411053657531738 9.255681991577148 C 9.900813102722168 9.255681991577148 10.39025402069092 9.07701301574707 10.74544811248779 8.721818923950195 L 11.33453750610352 8.138178825378418 L 11.91817855834961 8.721818923950195 C 12.27272796630859 9.076358795166016 12.74726867675781 9.27272891998291 13.24908828735352 9.27272891998291 C 13.64726829528809 9.27272891998291 14.01272773742676 9.147268295288086 14.31817817687988 8.939998626708984 L 14.31817817687988 11.45453834533691 C 14.31817817687988 11.75453853607178 14.07272815704346 11.99999809265137 13.77271842956543 11.99999809265137 L 5.045448303222656 11.99999809265137 C 4.745458602905273 11.99999809265137 4.499998092651367 11.75453853607178 4.499998092651367 11.45453834533691 L 4.499998092651367 8.939998626708984 C 4.805448532104492 9.147268295288086 5.170907974243164 9.27272891998291 5.569087982177734 9.27272891998291 C 6.070908546447754 9.27272891998291 6.54545783996582 9.076358795166016 6.899997711181641 8.721818923950195 L 7.494538307189941 8.138178825378418 Z"/></g></svg>