<svg xmlns="http://www.w3.org/2000/svg" width="16.386" height="20" viewBox="0 0 16.386 20"><defs><style>.a{fill:none;}.b,.c{stroke:none;}.c{fill:#a3a1fb;}</style></defs><g class="a" transform="translate(-19.695 -11.689)"><path class="b" d="M29.466,17.63H26.315a.315.315,0,1,1,0-.63h3.151a.315.315,0,0,1,0,.63Z"/><path class="c" d="M 29.46636772155762 17.63024711608887 L 26.31512641906738 17.63024711608887 C 26.14108657836914 17.63024711608887 25.99999618530273 17.48916625976563 25.99999618530273 17.31512641906738 C 25.99999618530273 17.14108657836914 26.14108657836914 17.0000057220459 26.31512641906738 17.0000057220459 L 29.46636772155762 17.0000057220459 C 29.64040756225586 17.0000057220459 29.78149795532227 17.14108657836914 29.78149795532227 17.31512641906738 C 29.78149795532227 17.48916625976563 29.64040756225586 17.63024711608887 29.46636772155762 17.63024711608887 Z"/></g><g class="a" transform="translate(-16.771)"><path class="b" d="M21.727,0,23.15,5.042h3.618L28.436,0Zm4.482,1.99L25.4,4.412h-.875L23.72,1.99a.316.316,0,1,1,.6-.2l.646,1.94.646-1.939a.316.316,0,1,1,.6.2Z"/><path class="c" d="M 21.72699928283691 4.291534423828125e-06 L 28.43599891662598 4.291534423828125e-06 L 26.76772880554199 5.041984558105469 L 23.15009880065918 5.041984558105469 L 21.72699928283691 4.291534423828125e-06 Z M 24.96426963806152 3.730444431304932 L 24.31858825683594 1.790854454040527 C 24.2745246887207 1.658604621887207 24.15139579772949 1.574952840805054 24.01926422119141 1.574958801269531 C 23.98620414733887 1.574960231781006 23.95256805419922 1.580199003219604 23.91947937011719 1.591224431991577 C 23.7541389465332 1.646304368972778 23.66476821899414 1.824984312057495 23.7198486328125 1.9903244972229 L 24.52687835693359 4.411744594573975 L 25.40165901184082 4.411744594573975 L 26.20869827270508 1.9903244972229 L 26.20932960510254 1.990644454956055 C 26.2644100189209 1.825304508209229 26.17502975463867 1.64661431312561 26.00969886779785 1.591534376144409 C 25.97659873962402 1.580507755279541 25.94299125671387 1.575270652770996 25.90991973876953 1.575273513793945 C 25.77779579162598 1.575285196304321 25.65464401245117 1.658932685852051 25.61059951782227 1.791164398193359 L 24.96426963806152 3.730444431304932 Z"/></g><g class="a" transform="translate(-5.775 -13.698)"><path class="b" d="M22.083,30.188,19.757,22.1A2.811,2.811,0,0,0,17.033,20H10.9a2.811,2.811,0,0,0-2.719,2.089L5.856,30.194a2.653,2.653,0,0,0,.5,2.308A3.08,3.08,0,0,0,8.772,33.7H19.129a3.127,3.127,0,0,0,2.444-1.213A2.645,2.645,0,0,0,22.083,30.188ZM11.167,21.482l.216-.859h.644l-.253,1.009a.312.312,0,1,1-.606-.149Zm4.366,8.957H12.72a.5.5,0,0,1-.469-.229c-.156-.267.016-.566.2-.883a5.009,5.009,0,0,0,.272-.591V28.26h-.938a.311.311,0,1,1,0-.623h.938V26.081a.936.936,0,0,1,.938-.934h.625a.936.936,0,0,1,.938.934v.311a.313.313,0,0,1-.625,0v-.311a.312.312,0,0,0-.312-.311h-.625a.312.312,0,0,0-.313.311v1.557H14.6a.311.311,0,1,1,0,.623h-1.25v.475a.936.936,0,0,1-.1.418s-.323.6-.355.663h2.642a.311.311,0,1,1,0,.623Zm1.012-8.581a.313.313,0,0,1-.378-.227l-.253-1.009h.644l.216.859A.311.311,0,0,1,16.545,21.859Z"/><path class="c" d="M 19.12214851379395 32.39751815795898 C 19.68409156799316 32.39055633544922 20.20245170593262 32.13282775878906 20.54496002197266 31.68982696533203 L 20.55321884155273 31.67914581298828 L 20.56169891357422 31.66863632202148 C 20.82055854797363 31.34781074523926 20.91864967346191 30.91969871520996 20.8259162902832 30.51962852478027 L 18.50753021240234 22.46137619018555 L 18.50271987915039 22.44466590881348 L 18.49835968017578 22.42782592773438 C 18.42571258544922 22.14727973937988 18.2762508392334 21.90248870849609 18.07570457458496 21.71330451965332 C 18.05269813537598 21.95022964477539 17.97657012939453 22.18088722229004 17.84955024719238 22.39061737060547 C 17.62698936462402 22.75811576843262 17.27459907531738 23.01732635498047 16.85537910461426 23.12098693847656 C 16.72933959960938 23.15193748474121 16.5997486114502 23.16763687133789 16.47021865844727 23.16763687133789 C 15.72840976715088 23.16763687133789 15.08507919311523 22.66513633728027 14.90625953674316 21.94767570495605 L 14.74372386932373 21.30000686645508 L 13.19685363769531 21.30000686645508 L 13.038330078125 21.93166542053223 C 12.90822696685791 22.49371910095215 12.48781299591064 22.943603515625 11.93311977386475 23.11087608337402 C 11.78193950653076 23.15644645690918 11.62524890899658 23.17955589294434 11.46740913391113 23.17955589294434 C 11.04146957397461 23.17955589294434 10.63971900939941 23.01511573791504 10.33615970611572 22.71652603149414 C 10.0586986541748 22.44359588623047 9.89443302154541 22.08609962463379 9.861029624938965 21.71167755126953 C 9.661138534545898 21.89953231811523 9.511603355407715 22.14241409301758 9.438079833984375 22.4206657409668 L 9.434579849243164 22.43390655517578 L 9.430809020996094 22.44707679748535 L 7.111896514892578 30.52952003479004 C 7.015803813934326 30.93277549743652 7.112749576568604 31.36536026000977 7.372809410095215 31.69009590148926 L 7.379829406738281 31.69886589050293 L 7.386699199676514 31.70775604248047 C 7.721358299255371 32.14076995849609 8.227992057800293 32.39200210571289 8.777283668518066 32.39750671386719 L 19.12214851379395 32.39751815795898 M 10.99965381622314 29.3569221496582 C 10.50536441802979 29.08132743835449 10.17028903961182 28.55336761474609 10.17028903961182 27.94872665405273 C 10.17028903961182 27.18475532531738 10.70511817932129 26.54325294494629 11.42028903961182 26.37845993041992 L 11.42028903961182 26.08087730407715 C 11.42028903961182 24.84908676147461 12.42402935028076 23.84695625305176 13.65778923034668 23.84695625305176 L 14.28278923034668 23.84695625305176 C 15.5165491104126 23.84695625305176 16.52028846740723 24.84908676147461 16.52028846740723 26.08087730407715 L 16.52028846740723 26.39218711853027 C 16.52028846740723 26.79445457458496 16.37204742431641 27.16271781921387 16.12723350524902 27.44535827636719 C 16.17949676513672 27.60379409790039 16.20778846740723 27.77302551269531 16.20778846740723 27.94872665405273 C 16.20778846740723 28.18326187133789 16.15741157531738 28.40618896484375 16.06685638427734 28.60738945007324 C 16.69428634643555 28.82811737060547 17.14528846740723 29.42637634277344 17.14528846740723 30.12787628173828 C 17.14528846740723 31.0163459777832 16.42193031311035 31.73917579650879 15.53278923034668 31.73917579650879 L 12.76310729980469 31.73917579650879 C 12.73281574249268 31.7407054901123 12.70248699188232 31.74147605895996 12.67234897613525 31.74147605895996 C 12.05215930938721 31.74147605895996 11.4841194152832 31.42874717712402 11.15282917022705 30.90491676330566 L 11.1409797668457 30.88617706298828 L 11.12976932525635 30.86703681945801 C 10.80571556091309 30.3137321472168 10.8563871383667 29.78225708007813 10.99965381622314 29.3569221496582 M 19.1290397644043 33.69751739501953 L 8.771849632263184 33.69750595092773 C 7.82560920715332 33.6903076171875 6.935369491577148 33.2496452331543 6.358099460601807 32.50272750854492 C 5.838199615478516 31.85353660583496 5.652349472045898 30.99977684020996 5.855599403381348 30.19437599182129 L 8.181219100952148 22.08855628967285 C 8.506329536437988 20.85818672180176 9.622818946838379 20.00049591064453 10.89997959136963 20.0000057220459 L 17.03278923034668 20.0000057220459 C 17.03310203552246 20.0000057220459 17.03321075439453 20.0000057220459 17.03352355957031 20.0000057220459 C 18.31613159179688 20.0000057220459 19.43645668029785 20.86465835571289 19.75684928894043 22.1019458770752 L 22.08309936523438 30.18752670288086 C 22.28212928771973 30.99061584472656 22.09364891052246 31.84023666381836 21.57341957092285 32.48497772216797 C 20.98857879638672 33.24141693115234 20.08745002746582 33.68843841552734 19.1290397644043 33.69751739501953 Z M 11.78278923034668 27.63740730285645 C 11.61019897460938 27.63740730285645 11.47028923034668 27.77679634094238 11.47028923034668 27.94872665405273 C 11.47028923034668 28.12065696716309 11.61019897460938 28.2600269317627 11.78278923034668 28.2600269317627 L 12.72090911865234 28.2600269317627 L 12.72090911865234 28.7357063293457 C 12.64332962036133 28.93850708007813 12.55260944366455 29.13608741760254 12.44934940338135 29.32719612121582 C 12.26747894287109 29.64410591125488 12.09528923034668 29.94326591491699 12.25153923034668 30.21005630493164 C 12.34318065643311 30.35495567321777 12.50264167785645 30.44148063659668 12.67234897613525 30.44148063659668 C 12.68825435638428 30.44148063659668 12.70425128936768 30.44071960449219 12.72028923034668 30.43917655944824 L 15.53278923034668 30.43917655944824 C 15.70537948608398 30.43917655944824 15.84528923034668 30.29980659484863 15.84528923034668 30.12787628173828 C 15.84528923034668 29.95594596862793 15.70537948608398 29.81656646728516 15.53278923034668 29.81656646728516 L 12.89121913909912 29.81656646728516 C 12.92371940612793 29.75430679321289 13.24653911590576 29.15316581726074 13.24653911590576 29.15316581726074 C 13.31139945983887 29.02337646484375 13.34519958496094 28.8803768157959 13.34528923034668 28.73539733886719 L 13.34528923034668 28.2600269317627 L 14.59528923034668 28.2600269317627 C 14.76787948608398 28.2600269317627 14.90778923034668 28.12065696716309 14.90778923034668 27.94872665405273 C 14.90778923034668 27.77679634094238 14.76787948608398 27.63740730285645 14.59528923034668 27.63740730285645 L 13.34528923034668 27.63740730285645 L 13.34528923034668 26.08087730407715 C 13.34528923034668 25.90895652770996 13.48519897460938 25.76956748962402 13.65778923034668 25.76956748962402 L 14.28278923034668 25.76956748962402 C 14.45537948608398 25.76956748962402 14.59528923034668 25.90895652770996 14.59528923034668 26.08087730407715 L 14.59528923034668 26.39218711853027 C 14.59528923034668 26.56411743164063 14.73519897460938 26.7034969329834 14.90778923034668 26.7034969329834 C 15.0803689956665 26.7034969329834 15.22028923034668 26.56411743164063 15.22028923034668 26.39218711853027 L 15.22028923034668 26.08087730407715 C 15.22028923034668 25.56509590148926 14.80054950714111 25.14695739746094 14.28278923034668 25.14695739746094 L 13.65778923034668 25.14695739746094 C 13.14001941680908 25.14695739746094 12.72028923034668 25.56509590148926 12.72028923034668 26.08087730407715 L 12.72028923034668 27.63740730285645 L 11.78278923034668 27.63740730285645 Z M 11.38278961181641 20.62261581420898 L 11.16715908050537 21.48182678222656 C 11.13536930084229 21.5914363861084 11.16630935668945 21.70958709716797 11.24780941009521 21.78975677490234 C 11.30717086791992 21.84814262390137 11.38638687133789 21.87955856323242 11.46740627288818 21.87955856323242 C 11.49763584136963 21.87955856323242 11.52813243865967 21.87517929077148 11.5579195022583 21.86619567871094 C 11.66754913330078 21.83313751220703 11.75022983551025 21.74298667907715 11.77340984344482 21.63124656677246 L 12.02653980255127 20.62261581420898 L 11.38278961181641 20.62261581420898 Z M 15.91403961181641 20.62261581420898 L 16.16716003417969 21.63124656677246 C 16.20246505737305 21.77291870117188 16.3299674987793 21.86763763427734 16.47021675109863 21.86763763427734 C 16.4949836730957 21.86763763427734 16.52016639709473 21.86467933654785 16.54528999328613 21.85850715637207 C 16.71261024475098 21.81713676452637 16.81469917297363 21.6485767364502 16.77340888977051 21.48182678222656 L 16.55778884887695 20.62261581420898 L 15.91403961181641 20.62261581420898 Z"/></g></svg>