<svg xmlns="http://www.w3.org/2000/svg" width="24.5" height="24.5" viewBox="0 0 24.5 24.5"><defs><style>.a,.b{fill:#2cd93e;stroke:#2cd93e;}.a{stroke-width:0.5px;}.b{stroke-width:0.4px;}</style></defs><g transform="translate(0.25 0.25)"><path class="a" d="M21.6,2.4H20.4V1.6a1.6,1.6,0,1,0-3.2,0v.8H13.6V1.6a1.6,1.6,0,0,0-3.2,0v.8H6.8V1.6a1.6,1.6,0,0,0-3.2,0v.8H2.4A2.4,2.4,0,0,0,0,4.8V21.6A2.4,2.4,0,0,0,2.4,24H21.6A2.4,2.4,0,0,0,24,21.6V4.8A2.4,2.4,0,0,0,21.6,2.4ZM18,1.6a.8.8,0,1,1,1.6,0V4A.8.8,0,1,1,18,4Zm-6.8,0a.8.8,0,1,1,1.6,0V4a.8.8,0,1,1-1.6,0V1.6Zm-6.8,0A.8.8,0,1,1,6,1.6V4A.8.8,0,1,1,4.4,4V1.6Zm18.8,20a1.6,1.6,0,0,1-1.6,1.6H2.4A1.6,1.6,0,0,1,.8,21.6V8H22a.4.4,0,0,0,0-.8H.8V4.8A1.6,1.6,0,0,1,2.4,3.2H3.6V4A1.6,1.6,0,0,0,6.8,4V3.2h3.6V4a1.6,1.6,0,1,0,3.2,0V3.2h3.6V4a1.6,1.6,0,1,0,3.2,0V3.2h1.2a1.6,1.6,0,0,1,1.6,1.6V21.6Z"/><g transform="translate(6.78 -14.249)"><path class="b" d="M9.726,31.28,8.7,30.81a1.482,1.482,0,0,0,.522-1.131v-2.14H7.133a.862.862,0,0,0-.87.87v1.27a1.482,1.482,0,0,0,.522,1.131l-.87.4V30.2a1.2,1.2,0,0,0-.835-1.148l-1.253-.418v-.4h.539a.862.862,0,0,0,.87-.87.591.591,0,0,0-.017-.174l-.226-1.1a1.894,1.894,0,0,0-3.706,0l-.244,1.1a.861.861,0,0,0,.679,1.026.592.592,0,0,0,.174.017h.539v.4l-1.253.418A1.211,1.211,0,0,0,.348,30.2v2.21H0V34.5H4.7V34.15H.348V32.758h4.7V34.5h5.393V32.393a1.207,1.207,0,0,0-.713-1.113Zm-3.114-1.6v-1.27a.513.513,0,0,1,.522-.522h1.74v1.792a1.131,1.131,0,0,1-2.262,0Zm-4.054-2.21-.209-.139a.158.158,0,0,1-.07-.139v-.974a.777.777,0,0,1,.731.017A1.109,1.109,0,0,0,4,26.3h.017v.887a.215.215,0,0,1-.07.139l-.209.139a.544.544,0,0,0-.226.435v.679h-.7V27.9a.664.664,0,0,0-.261-.435Zm.4,1.461v.261l-.5.383-.435-.435.626-.209Zm.348,0h.313l.626.209-.435.435-.5-.383ZM4.767,27.7a.52.52,0,0,1-.4.191H3.828a.215.215,0,0,1,.07-.139l.209-.139a.544.544,0,0,0,.226-.435V26.13l.261-.1c.017.035.017.087.035.122l.226,1.1a.462.462,0,0,1-.087.452ZM3.132,24.929a1.536,1.536,0,0,1,1.34.783l-.626.261a.776.776,0,0,1-.679-.052A1.108,1.108,0,0,0,2.053,25.9l-.435.244V26.13a1.548,1.548,0,0,1,1.514-1.2ZM1.5,27.7a.492.492,0,0,1-.1-.435l.139-.644.383-.226v.783a.544.544,0,0,0,.226.435l.209.139a.158.158,0,0,1,.07.139H1.879A.513.513,0,0,1,1.5,27.7ZM.7,30.2a.846.846,0,0,1,.592-.818l.365-.122.766.766.539-.4V32.41H1.914V30.323H1.566V32.41H.7Zm4,2.21V31.019H4.35V32.41H3.306V29.627l.539.4.766-.766.365.122a.879.879,0,0,1,.592.818v1.183a1.191,1.191,0,0,0-.522.992v.035Zm5.393,1.74h-4.7V32.393a.882.882,0,0,1,.5-.8l1.235-.557a1.406,1.406,0,0,0,1.183,0l1.235.557a.863.863,0,0,1,.5.8V34.15Zm0,0" transform="translate(0 0)"/></g></g></svg>