<svg xmlns="http://www.w3.org/2000/svg" width="24.5" height="24.5" viewBox="0 0 24.5 24.5"><defs><style>.a{fill:#2cd93e;stroke:#2cd93e;stroke-width:0.5px;}</style></defs><g transform="translate(0.25 0.25)"><path class="a" d="M21.6,2.4H20.4V1.6a1.6,1.6,0,1,0-3.2,0v.8H13.6V1.6a1.6,1.6,0,0,0-3.2,0v.8H6.8V1.6a1.6,1.6,0,0,0-3.2,0v.8H2.4A2.4,2.4,0,0,0,0,4.8V21.6A2.4,2.4,0,0,0,2.4,24H21.6A2.4,2.4,0,0,0,24,21.6V4.8A2.4,2.4,0,0,0,21.6,2.4ZM18,1.6a.8.8,0,1,1,1.6,0V4A.8.8,0,1,1,18,4Zm-6.8,0a.8.8,0,1,1,1.6,0V4a.8.8,0,1,1-1.6,0V1.6Zm-6.8,0A.8.8,0,1,1,6,1.6V4A.8.8,0,1,1,4.4,4V1.6Zm18.8,20a1.6,1.6,0,0,1-1.6,1.6H2.4A1.6,1.6,0,0,1,.8,21.6V8H22a.4.4,0,0,0,0-.8H.8V4.8A1.6,1.6,0,0,1,2.4,3.2H3.6V4A1.6,1.6,0,0,0,6.8,4V3.2h3.6V4a1.6,1.6,0,1,0,3.2,0V3.2h3.6V4a1.6,1.6,0,1,0,3.2,0V3.2h1.2a1.6,1.6,0,0,1,1.6,1.6V21.6Z"/><path class="a" d="M171.336,231.318a.938.938,0,0,0-.933-.922l-.862,0a1.117,1.117,0,0,0-.832.338l-1.133,1.306-4.373-.57a.4.4,0,0,0-.069,0,.712.712,0,0,0-.658.55.625.625,0,0,0,.28.693l2.674,1.8-.788.848-1.556-.048a.844.844,0,0,0-.9.553.87.87,0,0,0,.347,1.031l.45.292-.33.587a.934.934,0,0,0,1.264,1.268l.565-.306.3.474a.859.859,0,0,0,.716.385.894.894,0,0,0,.294-.051.849.849,0,0,0,.577-.865l-.028-1.612.857-.792,1.789,2.633a.636.636,0,0,0,.712.31.72.72,0,0,0,.556-.653.428.428,0,0,0,0-.075l-.572-4.353,1.329-1.138a1.1,1.1,0,0,0,.32-.8v-.874Zm-.8.882a.31.31,0,0,1-.061.208l-1.48,1.264a.4.4,0,0,0-.136.295.4.4,0,0,0,.012.111l.526,4-1.794-2.64a.4.4,0,0,0-.285-.172.394.394,0,0,0-.317.1l-1.33,1.228a.4.4,0,0,0-.129.3l.033,1.818a.059.059,0,0,1-.044.07.058.058,0,0,1-.076-.019l-.5-.78a.4.4,0,0,0-.528-.136l-.892.484a.133.133,0,0,1-.157-.024.129.129,0,0,1-.04-.093.127.127,0,0,1,.013-.06l.51-.912a.4.4,0,0,0-.13-.531l-.76-.492a.074.074,0,0,1-.037-.091c.01-.028.024-.035.09-.03l1.768.056a.377.377,0,0,0,.306-.127l1.233-1.324a.4.4,0,0,0-.07-.6l-2.64-1.775,4.015.522a.4.4,0,0,0,.4-.126l1.254-1.45a.338.338,0,0,1,.236-.084l.87,0a.137.137,0,0,1,.134.131v.873Z" transform="translate(-154.536 -219.591)"/></g></svg>