<svg xmlns="http://www.w3.org/2000/svg" width="24" height="18.564" viewBox="0 0 24 18.564"><defs></defs><g transform="translate(0 -53)"><g transform="translate(0 53)"><g transform="translate(0 0)"><path fill="#554d62" d="M23.082,59.9l-.523-.554-1.836-4.949A2.153,2.153,0,0,0,18.718,53H5.605A2.146,2.146,0,0,0,3.6,54.395L1.79,59.282l-.754.7A2.947,2.947,0,0,0,0,62.221v7.21a2.144,2.144,0,0,0,2.144,2.133H3.5a2.144,2.144,0,0,0,2.144-2.133V68.385H18.359v1.046A2.144,2.144,0,0,0,20.5,71.564h1.354A2.144,2.144,0,0,0,24,69.431v-7.4A2.974,2.974,0,0,0,23.082,59.9ZM4.564,54.744a1.109,1.109,0,0,1,1.041-.718H18.723a1.116,1.116,0,0,1,1.041.718l1.6,4.308H20.169a3.517,3.517,0,0,0-6.959,0H2.964Zm14.559,4.308H14.246a2.491,2.491,0,0,1,4.877,0ZM4.615,69.431A1.115,1.115,0,0,1,3.5,70.538H2.144a1.115,1.115,0,0,1-1.118-1.108V68.087a2.083,2.083,0,0,0,1.118.3H4.615Zm18.359,0a1.115,1.115,0,0,1-1.118,1.108H20.5a1.118,1.118,0,0,1-1.118-1.108V68.385h2.472a2.083,2.083,0,0,0,1.118-.3v1.344Zm-1.118-2.072H2.144a1.106,1.106,0,0,1-1.118-1.1V62.221a1.925,1.925,0,0,1,.682-1.467l.021-.021.7-.656H21.846l.492.528c.005.01.021.015.026.026a1.933,1.933,0,0,1,.605,1.4v4.231h.005A1.11,1.11,0,0,1,21.856,67.359Z" transform="translate(0 -53)"/></g></g><g transform="translate(2.41 62.128)"><g transform="translate(0 0)"><path fill="#554d62" d="M51.359,231H47.513a.514.514,0,0,0-.513.513v2.667a.514.514,0,0,0,.513.513h3.846a.514.514,0,0,0,.513-.513v-2.667A.514.514,0,0,0,51.359,231Zm-.513,2.667H48.026v-1.641h2.821Z" transform="translate(-47 -231)"/></g></g><g transform="translate(16.718 62.128)"><g transform="translate(0 0)"><path fill="#554d62" d="M330.359,231h-3.846a.514.514,0,0,0-.513.513v2.667a.514.514,0,0,0,.513.513h3.846a.514.514,0,0,0,.513-.513v-2.667A.514.514,0,0,0,330.359,231Zm-.513,2.667h-2.821v-1.641h2.821Z" transform="translate(-326 -231)"/></g></g><g transform="translate(9.01 64.282)"><path fill="#554d62" d="M181.167,273h-4.954a.513.513,0,0,0,0,1.026h4.954a.513.513,0,0,0,0-1.026Z" transform="translate(-175.7 -273)"/></g><g transform="translate(9.01 62.692)"><path fill="#554d62" d="M181.167,242h-4.954a.513.513,0,0,0,0,1.026h4.954a.513.513,0,0,0,0-1.026Z" transform="translate(-175.7 -242)"/></g></g></svg>