<svg xmlns="http://www.w3.org/2000/svg" width="36" height="36" viewBox="0 0 36 36"><defs><style>.a,.b{fill:#ff6e6b;}.a{opacity:0.1;}</style></defs><g transform="translate(-763.631 -386)"><circle class="a" cx="18" cy="18" r="18" transform="translate(763.631 386)"/><path class="b" d="M11.033,13.625l4.549-4.549a1.43,1.43,0,0,0,0-2.022L14.57,6.044a1.43,1.43,0,0,0-2.022,0L8,10.592,3.451,6.044a1.43,1.43,0,0,0-2.022,0L.419,7.055a1.43,1.43,0,0,0,0,2.022l4.549,4.549L.419,18.174a1.43,1.43,0,0,0,0,2.022L1.43,21.206a1.43,1.43,0,0,0,2.022,0L8,16.658l4.549,4.549a1.43,1.43,0,0,0,2.022,0L15.581,20.2a1.43,1.43,0,0,0,0-2.022Z" transform="translate(774 390.375)"/></g></svg>