<svg xmlns="http://www.w3.org/2000/svg" width="28" height="28" viewBox="0 0 28 28"><defs><style>.a{fill:#ff6e6b;}.b{fill:#fff;}</style></defs><g transform="translate(-1036 -328)"><circle class="a" cx="14" cy="14" r="14" transform="translate(1036 328)"/><path class="b" d="M6.9,10.625,9.738,7.782a.894.894,0,0,0,0-1.264l-.632-.632a.894.894,0,0,0-1.264,0L5,8.73,2.157,5.887a.894.894,0,0,0-1.264,0l-.632.632a.894.894,0,0,0,0,1.264L3.1,10.625.262,13.468a.894.894,0,0,0,0,1.264l.632.632a.894.894,0,0,0,1.264,0L5,12.52l2.843,2.843a.894.894,0,0,0,1.264,0l.632-.632a.894.894,0,0,0,0-1.264Z" transform="translate(1045 331.375)"/></g></svg>