<svg xmlns="http://www.w3.org/2000/svg" width="28" height="28" viewBox="0 0 28 28"><defs><style>.a,.b{fill:#ff6e6b;}.a{opacity:0.1;}</style></defs><circle class="a" cx="14" cy="14" r="14"/><path class="b" d="M8.581,11.847l3.538-3.538a1.112,1.112,0,0,0,0-1.573l-.786-.786a1.112,1.112,0,0,0-1.573,0L6.222,9.488,2.684,5.951a1.112,1.112,0,0,0-1.573,0l-.786.786a1.112,1.112,0,0,0,0,1.573l3.538,3.538L.326,15.385a1.112,1.112,0,0,0,0,1.573l.786.786a1.112,1.112,0,0,0,1.573,0l3.538-3.538L9.76,17.744a1.112,1.112,0,0,0,1.573,0l.786-.786a1.112,1.112,0,0,0,0-1.573Z" transform="translate(8.135 2.153)"/></svg>