<svg xmlns="http://www.w3.org/2000/svg" width="20" height="20" viewBox="0 0 20 20"><defs><style>.a{fill:#fff;}</style></defs><path class="a" d="M-5472-1960a10.011,10.011,0,0,1-10-10,9.934,9.934,0,0,1,2.929-7.072A9.933,9.933,0,0,1-5472-1980a10.012,10.012,0,0,1,10,10A10.011,10.011,0,0,1-5472-1960Zm.205-8.315h0l2.527,2.527a.788.788,0,0,0,.562.232.788.788,0,0,0,.561-.232l.562-.561a.8.8,0,0,0,0-1.124l-2.527-2.526,2.527-2.527a.8.8,0,0,0,0-1.124l-.562-.561a.789.789,0,0,0-.561-.232.789.789,0,0,0-.562.232l-2.527,2.527-2.527-2.527a.789.789,0,0,0-.562-.232.789.789,0,0,0-.561.232l-.563.561a.8.8,0,0,0,0,1.124l2.527,2.527-2.527,2.526a.8.8,0,0,0,0,1.124l.563.561a.789.789,0,0,0,.561.232.789.789,0,0,0,.562-.232l2.527-2.527Z" transform="translate(5482 1980)"/></svg>