<svg xmlns="http://www.w3.org/2000/svg" width="32" height="32" viewBox="0 0 32 32"><defs><style>.a,.b{fill:#fe6d6b;}.a{opacity:0.1;}</style></defs><g transform="translate(-1102 -971)"><g transform="translate(1102 971.2)"><rect class="a" width="32" height="32" rx="5" transform="translate(0 -0.2)"/></g><path class="b" d="M.75,10.875A1.125,1.125,0,0,0,1.875,12h6.75A1.125,1.125,0,0,0,9.75,10.875V3h-9Zm6.375-6a.375.375,0,0,1,.75,0v5.25a.375.375,0,0,1-.75,0Zm-2.25,0a.375.375,0,0,1,.75,0v5.25a.375.375,0,0,1-.75,0Zm-2.25,0a.375.375,0,0,1,.75,0v5.25a.375.375,0,0,1-.75,0ZM10.125.75H7.312L7.092.312A.563.563,0,0,0,6.588,0H3.909a.556.556,0,0,0-.5.312L3.187.75H.375A.375.375,0,0,0,0,1.125v.75a.375.375,0,0,0,.375.375h9.75a.375.375,0,0,0,.375-.375v-.75A.375.375,0,0,0,10.125.75Z" transform="translate(1113 980.999)"/></g></svg>