<svg xmlns="http://www.w3.org/2000/svg" width="16.979" height="18" viewBox="0 0 16.979 18"><defs><style>.a{fill:#582484;}</style></defs><path class="a" d="M16.119,18H2.538a.862.862,0,0,1-.859-.864V15.6H.933a.939.939,0,0,1,0-1.878h.746V11.826H1.058a.264.264,0,0,1,0-.527H2.237v.527H2.2V13.72h.033V11.826h.712a.939.939,0,0,0,0-1.878H2.237v.527H.933a.411.411,0,0,0-.41.412.262.262,0,1,1-.524,0,.938.938,0,0,1,.933-.94h.746V8.054H.933a.939.939,0,0,1,0-1.878h.746V4.282H.933a.94.94,0,0,1,0-1.879h.746V.866A.863.863,0,0,1,2.538,0H16.119a.863.863,0,0,1,.86.865V17.137A.863.863,0,0,1,16.119,18Zm-1.38-1.529v.664a.872.872,0,0,1-.067.338h1.447a.337.337,0,0,0,.335-.338V16.4a.844.844,0,0,1-.335.068ZM.933,14.247a.412.412,0,0,0,0,.824h1.3V15.6H2.2v1.537a.337.337,0,0,0,.335.338H13.881a.337.337,0,0,0,.335-.338v-.207a1,1,0,0,1-.56.171H3.236a1,1,0,0,1-1-1v-.5h.712a.939.939,0,0,0,0-1.878H2.237v.527ZM3.236.9H13.656a1,1,0,0,1,.56.171V16.929a1,1,0,0,0,.441-.829V1.9a1,1,0,0,0-.441-.83V.866a.337.337,0,0,0-.335-.337H2.538A.337.337,0,0,0,2.2.866V2.4h.033V1.9A1,1,0,0,1,3.236.9Zm11.5,10.787v4.258h1.38a.336.336,0,0,0,.335-.337V6.9H14.739v4.259H15.6a.264.264,0,0,1,0,.527ZM.933,6.7a.412.412,0,0,0,0,.824h1.3v.527H2.2V9.948h.033V8.055h.712a.939.939,0,0,0,0-1.878H2.237V6.7Zm8.733,1.15a.271.271,0,0,0,0,.542h1.515a.992.992,0,0,0,.988-.994V4.563a.992.992,0,0,0-.988-.994H5.252a.992.992,0,0,0-.988.994V7.4a.992.992,0,0,0,.988.994H8.5a.271.271,0,0,0,0-.542H5.252A.451.451,0,0,1,4.8,7.4V4.563a.451.451,0,0,1,.449-.452h5.929a.451.451,0,0,1,.45.452V7.4a.451.451,0,0,1-.45.452Zm5.073-5.738V6.373h1.715V2.452a.336.336,0,0,0-.335-.337ZM.933,2.93a.412.412,0,0,0,0,.824h1.3v.526H2.2V6.176h.033V4.281h.712a.939.939,0,0,0,0-1.878H2.237V2.93ZM14.672.528a.872.872,0,0,1,.067.337v.722h1.38a.843.843,0,0,1,.335.068V.866a.337.337,0,0,0-.335-.337ZM2.948,15.071H2.237v-.824h.712a.412.412,0,0,1,0,.824Zm0-3.773H2.237v-.823h.712a.412.412,0,0,1,0,.823Zm0-3.772H2.237V6.7h.712a.412.412,0,0,1,0,.824Zm0-3.772H2.237V2.93h.712a.412.412,0,0,1,0,.824Z" transform="translate(0 -0.001)"/></svg>