<svg xmlns="http://www.w3.org/2000/svg" width="67.571" height="88" viewBox="0 0 67.571 88"><defs><style>.a{opacity:0.6;}.b{fill:#e9e9e0;}.c{fill:#d9d7ca;}.d{fill:#8697cb;}.e{fill:#0096e6;}.f{fill:#fff;}</style></defs><g class="a" transform="translate(-6.5)"><path class="b" d="M54.4,0H8.8C7.529,0,6.5,1.029,6.5,3.027v83.4A2.367,2.367,0,0,0,8.8,88H71.772a2.367,2.367,0,0,0,2.3-1.571V20.394c0-1.094-.146-1.446-.4-1.7L55.382.4A1.389,1.389,0,0,0,54.4,0Z"/><path class="c" d="M37.5.151v18.62H56.12Z" transform="translate(17.714 0.086)"/><path class="d" d="M22.5,14.143H13.071a1.571,1.571,0,0,1,0-3.143H22.5a1.571,1.571,0,0,1,0,3.143Z" transform="translate(2.857 6.286)"/><path class="d" d="M27.214,19.143H13.071a1.571,1.571,0,0,1,0-3.143H27.214a1.571,1.571,0,1,1,0,3.143Z" transform="translate(2.857 9.143)"/><path class="d" d="M26.071,19.136a1.556,1.556,0,1,1,1.116-.456A1.652,1.652,0,0,1,26.071,19.136Z" transform="translate(10.286 9.15)"/><path class="d" d="M42.643,19.143H30.071a1.571,1.571,0,1,1,0-3.143H42.643a1.571,1.571,0,1,1,0,3.143Z" transform="translate(12.571 9.143)"/><path class="d" d="M13.071,34.136a1.575,1.575,0,1,1,1.116-2.687,1.623,1.623,0,0,1,.456,1.116,1.556,1.556,0,0,1-1.571,1.571Z" transform="translate(2.857 17.721)"/><path class="d" d="M29.643,34.143H17.071a1.571,1.571,0,1,1,0-3.143H29.643a1.571,1.571,0,0,1,0,3.143Z" transform="translate(5.143 17.714)"/><path class="d" d="M45.214,19.143H42.071a1.571,1.571,0,1,1,0-3.143h3.143a1.571,1.571,0,1,1,0,3.143Z" transform="translate(19.429 9.143)"/><path class="d" d="M47.643,24.143H13.071a1.571,1.571,0,1,1,0-3.143H47.643a1.571,1.571,0,1,1,0,3.143Z" transform="translate(2.857 12)"/><path class="d" d="M47.5,24.143H38.071a1.571,1.571,0,0,1,0-3.143H47.5a1.571,1.571,0,1,1,0,3.143Z" transform="translate(17.143 12)"/><path class="d" d="M19.357,29.143H13.071a1.571,1.571,0,1,1,0-3.143h6.286a1.571,1.571,0,1,1,0,3.143Z" transform="translate(2.857 14.857)"/><path class="d" d="M36.786,29.143H21.071a1.571,1.571,0,1,1,0-3.143H36.786a1.571,1.571,0,1,1,0,3.143Z" transform="translate(7.429 14.857)"/><path class="d" d="M49.214,29.143H35.071a1.571,1.571,0,0,1,0-3.143H49.214a1.571,1.571,0,1,1,0,3.143Z" transform="translate(15.429 14.857)"/><path class="e" d="M71.772,65.714H8.8a2.3,2.3,0,0,1-2.3-2.3V39H74.071V63.415A2.3,2.3,0,0,1,71.772,65.714Z" transform="translate(0 22.286)"/><g transform="translate(20.432 67.194)"><path class="f" d="M28.148,50.4a11.632,11.632,0,0,1-.42,3.341,8.305,8.305,0,0,1-1.064,2.321,5.465,5.465,0,0,1-1.45,1.472,7.275,7.275,0,0,1-1.557.806,6.435,6.435,0,0,1-1.375.344,9.165,9.165,0,0,1-.922.072H15.366V42.924h4.768a9.062,9.062,0,0,1,3.512.633,7.292,7.292,0,0,1,2.514,1.686,6.921,6.921,0,0,1,1.493,2.395A7.931,7.931,0,0,1,28.148,50.4ZM20.5,56.867a4.268,4.268,0,0,0,3.781-1.675,8.5,8.5,0,0,0,1.16-4.856,8.224,8.224,0,0,0-.236-1.955,4.182,4.182,0,0,0-.913-1.751,4.819,4.819,0,0,0-1.837-1.268,7.91,7.91,0,0,0-3.008-.484h-1.5V56.867H20.5Z" transform="translate(-15.366 -42.666)"/><path class="f" d="M38.272,50.859a11.217,11.217,0,0,1-.5,3.523,7.185,7.185,0,0,1-1.4,2.535,5.845,5.845,0,0,1-2.084,1.526,6.867,6.867,0,0,1-5.22,0,5.845,5.845,0,0,1-2.084-1.526,7.2,7.2,0,0,1-1.4-2.535,12.517,12.517,0,0,1,0-7.035,7.163,7.163,0,0,1,1.4-2.524,5.972,5.972,0,0,1,2.084-1.537,6.734,6.734,0,0,1,5.22,0,5.972,5.972,0,0,1,2.084,1.537,7.241,7.241,0,0,1,1.4,2.524A11.156,11.156,0,0,1,38.272,50.859Zm-6.661,6a3.783,3.783,0,0,0,1.515-.311,3.387,3.387,0,0,0,1.289-1.02,5.163,5.163,0,0,0,.891-1.859,11.166,11.166,0,0,0,.344-2.8,10.96,10.96,0,0,0-.333-2.739,5.5,5.5,0,0,0-.86-1.859A3.311,3.311,0,0,0,33.21,45.21a3.462,3.462,0,0,0-1.472-.322,3.878,3.878,0,0,0-1.515.3,3.245,3.245,0,0,0-1.289,1.02,5.254,5.254,0,0,0-.891,1.859,10.964,10.964,0,0,0-.344,2.792,11.1,11.1,0,0,0,.333,2.75,5.386,5.386,0,0,0,.86,1.859,3.445,3.445,0,0,0,1.246,1.053A3.391,3.391,0,0,0,31.61,56.854Z" transform="translate(-9.815 -42.76)"/><path class="f" d="M46.606,57.241a5.861,5.861,0,0,1-2,1.289,6.619,6.619,0,0,1-2.406.429,6.5,6.5,0,0,1-2.61-.515,5.845,5.845,0,0,1-2.084-1.526,7.2,7.2,0,0,1-1.4-2.535,12.517,12.517,0,0,1,0-7.035,7.163,7.163,0,0,1,1.4-2.524A5.94,5.94,0,0,1,39.6,43.286a6.394,6.394,0,0,1,2.6-.526,6.652,6.652,0,0,1,2.406.429,5.869,5.869,0,0,1,2,1.289l-1.784,1.59a3.257,3.257,0,0,0-1.193-.9,3.456,3.456,0,0,0-1.364-.28,3.878,3.878,0,0,0-1.515.3,3.245,3.245,0,0,0-1.289,1.02,5.254,5.254,0,0,0-.891,1.859,10.964,10.964,0,0,0-.344,2.792,11.1,11.1,0,0,0,.333,2.75,5.386,5.386,0,0,0,.86,1.859,3.445,3.445,0,0,0,1.246,1.053,3.359,3.359,0,0,0,1.472.333,3.774,3.774,0,0,0,1.45-.28,3.406,3.406,0,0,0,1.235-.9Z" transform="translate(-3.799 -42.76)"/></g></g></svg>