<svg xmlns="http://www.w3.org/2000/svg" width="32" height="32" viewBox="0 0 32 32"><defs><style>.a,.b{fill:#ff6e6b;}.a{opacity:0.1;}</style></defs><g transform="translate(-1330 -723)"><rect class="a" width="32" height="32" rx="5" transform="translate(1330 723)"/><path class="b" d="M6.125,3.719V0H.656A.655.655,0,0,0,0,.656V13.344A.655.655,0,0,0,.656,14H9.844a.655.655,0,0,0,.656-.656V4.375H6.781A.658.658,0,0,1,6.125,3.719ZM8.215,9.5,5.579,12.115a.466.466,0,0,1-.657,0L2.285,9.5a.437.437,0,0,1,.308-.748H4.375V6.563a.437.437,0,0,1,.438-.437h.875a.437.437,0,0,1,.438.438V8.75H7.907A.438.438,0,0,1,8.215,9.5Zm2.093-6.627L7.632.191A.656.656,0,0,0,7.167,0H7V3.5h3.5V3.333A.654.654,0,0,0,10.309,2.871Z" transform="translate(1341 732)"/></g></svg>