<svg xmlns="http://www.w3.org/2000/svg" width="124" height="46" viewBox="0 0 124 46"><defs><style>.a,.b,.c{fill:#f5a436;}.a{opacity:0.1;}.c{font-size:16px;font-family:Roboto-Medium, Roboto;font-weight:500;}</style></defs><g transform="translate(-139)"><rect class="a" width="124" height="46" rx="5" transform="translate(139)"/><g transform="translate(36)"><path class="b" d="M19.2,6H4.8A1.8,1.8,0,0,0,3.009,7.8L3,18.6a1.805,1.805,0,0,0,1.8,1.8H19.2A1.805,1.805,0,0,0,21,18.6V7.8A1.805,1.805,0,0,0,19.2,6Zm0,3.6L12,14.1,4.8,9.6V7.8L12,12.3l7.2-4.5Z" transform="translate(112 10)"/><text class="c" transform="translate(179 30)"><tspan x="-35.828" y="0">Send Mail</tspan></text></g></g></svg>