<svg xmlns="http://www.w3.org/2000/svg" xmlns:xlink="http://www.w3.org/1999/xlink" width="255.454" height="252.406" viewBox="0 0 255.454 252.406"><defs><style>.a{opacity:0.56;}.b{fill:#5b2a06;}.c{fill:#8e4711;}.d{fill:#72390a;}.e{fill:#c14cc1;}.f{fill:#d560d8;}.g{fill:#aa3dad;}.h,.v{fill:#fff;}.i{fill:#bababa;}.j{fill:#95ce28;}.k{fill:#e3e82d;}.l{fill:#9b1212;}.m{fill:none;stroke:#939393;stroke-miterlimit:10;stroke-width:0.764px;}.n{fill:#a52ca8;}.o{fill:#a3a3a3;}.p{fill:#181818;}.q{fill:url(#a);}.r,.u{fill:#00a4e8;}.r{stroke:#00a4e8;}.s{fill:#efeff1;}.t{fill:url(#d);}.v{opacity:0.16;}.w{fill:#572478;}.x{filter:url(#b);}</style><radialGradient id="a" cx="0.5" cy="0" r="0.956" gradientTransform="translate(-0.03 -0.002) scale(1.06)" gradientUnits="objectBoundingBox"><stop offset="0" stop-color="#ffa900"/><stop offset="0.517" stop-color="#ed6a00"/><stop offset="1" stop-color="#8d190f"/></radialGradient><filter id="b" x="32.118" y="115.071" width="75.524" height="79.344" filterUnits="userSpaceOnUse"><feOffset input="SourceAlpha"/><feGaussianBlur stdDeviation="1.834" result="c"/><feFlood flood-color="#010000" flood-opacity="0.4"/><feComposite operator="in" in2="c"/><feComposite in="SourceGraphic"/></filter><radialGradient id="d" cx="0.5" cy="0" r="1.025" gradientTransform="translate(-0.03) scale(1.06 1)" gradientUnits="objectBoundingBox"><stop offset="0" stop-color="#b08bbd"/><stop offset="0.517" stop-color="#572478"/><stop offset="1" stop-color="#3c1c63"/></radialGradient></defs><g transform="translate(-591.881 -432.927)"><g class="a" transform="translate(322.83 391.848)"><g transform="translate(269.05 41.08)"><g transform="translate(166.661 0)"><path class="b" d="M447.518,82.854c-1.454,8.367,4.792,10.792,4.792,10.792,7.7-10.024,20.59-7.008,20.59-7.008a13.8,13.8,0,0,0,4.9,3.263,30.418,30.418,0,0,0-3.862-10.774C466.436,83.008,447.518,82.854,447.518,82.854Z" transform="translate(-447.298 -45.104)"/><path class="c" d="M504.414,48.423c-1.948-.621-1.762.621-1.762.621,1.38,1.374,2.118,6.259,2.17,10.407.923-.117,1.848-.259,2.771-.419C505.589,57.733,506.287,49.021,504.414,48.423Z" transform="translate(-450.896 -41.838)"/><path class="d" d="M519.893,56.518c-2.816.659-5.621,1.377-8.415,2.023a6.391,6.391,0,0,1-5.457,1.3.978.978,0,0,1-.252-.123c-.924.159-1.849.3-2.771.419a15.91,15.91,0,0,1-.686,5.826c-1.3,2.661-15.921,6.15-19.137,6.15s-2.721-10.526-4.423-14.192-2.131-3.785-3.863-2.484,4.329,10.172,3.834,17.623c-.094,1.426-1.234,2.57-3.011,3.488a30.417,30.417,0,0,1,3.862,10.774c5.154,2.123,11.212,1.846,12.443,1,1.67-1.154,2.689-4.879.741-3.638S473.1,86.714,482.37,79.352s6.4-3.637,17.623-3.637,13.54-2.75,13.54-3.193-.184-3.193-.741-3.193-1.762,4.257-8.068,4.257-4.73-1.6-4.824-2.483C499.834,70.472,512.406,61.783,519.893,56.518Z" transform="translate(-449.071 -42.518)"/><path class="c" d="M527.858,51.125a1.749,1.749,0,0,0-1.02-2.661c-1.391-.444-9.182,5.588-9.182,3.548S515.987,40.569,514.41,41.1s-.094,3.548,1.205,10.113c.569,2.881-.272,4.754-1.592,5.889,2.794-.646,5.6-1.364,8.415-2.023C525.488,52.934,527.7,51.356,527.858,51.125Z" transform="translate(-451.616 -41.08)"/></g><path class="d" d="M310.635,88.122c-1.948-1.241-.928,2.484.742,3.638,1.154.8,6.551,1.092,11.467-.623a30.348,30.348,0,0,1,.517-3.85C321.472,89.671,312.027,89.01,310.635,88.122Z" transform="translate(-271.685 -45.967)"/><g transform="translate(6.105)"><path class="b" d="M355.025,82.743s-21.847.177-27.9-4.665a17.04,17.04,0,0,0-1.039,2.071,38.576,38.576,0,0,0-1.52,4.866,1.47,1.47,0,0,1-.284,1.3,30.369,30.369,0,0,0-.517,3.85,14.416,14.416,0,0,0,5.877-3.635s12.892-3.016,20.59,7.008C350.234,93.536,356.478,91.111,355.025,82.743Z" transform="translate(-278.712 -44.993)"/><path class="c" d="M288.114,51.214c1.3-6.565,2.783-9.581,1.206-10.113s-3.246,8.871-3.246,10.911-7.79-3.992-9.182-3.548a1.749,1.749,0,0,0-1.02,2.661c.224.322,4.425,3.262,9.35,6.711q2.589-.019,5.2-.219C288.715,56.573,287.447,54.586,288.114,51.214Z" transform="translate(-275.58 -41.08)"/><path class="d" d="M323.132,73.053c-.5-7.451,5.564-16.322,3.833-17.623s-2.161-1.182-3.862,2.484S321.9,72.107,318.68,72.107s-17.838-3.488-19.137-6.15c-.629-1.29-.822-4.622-.6-7.967q-1,.2-2,.361c-.266.779-.617,1.332-1.115,1.484a6.4,6.4,0,0,1-4.744-.782q-2.609.2-5.2.219c7.271,5.094,16.117,11.3,16.062,11.828-.093.887,1.485,2.483-4.823,2.483s-7.513-4.257-8.069-4.257-.741,2.75-.741,3.193,2.318,3.193,13.541,3.193,8.348-3.725,17.622,3.637c1.645,1.306,2.438,2.353,2.623,3.188a38.586,38.586,0,0,1,1.52-4.866,17.05,17.05,0,0,1,1.039-2.071A3.608,3.608,0,0,1,323.132,73.053Z" transform="translate(-276.25 -42.518)"/><path class="c" d="M301.8,49.045s.186-1.242-1.762-.621c-1.531.488-1.344,6.394-2.318,9.249q1-.164,2-.361C299.947,53.757,300.648,50.188,301.8,49.045Z" transform="translate(-277.019 -41.838)"/></g><path class="e" d="M462.262,139.636c0-.063,0-.125.007-.189C462.267,139.51,462.264,139.575,462.262,139.636Z" transform="translate(-281.61 -51.484)"/><path class="e" d="M462.227,140.545c.009-.275.02-.57.033-.887Q462.241,140.118,462.227,140.545Z" transform="translate(-281.608 -51.506)"/><path class="e" d="M462.169,142.225c.007-.157.012-.322.018-.494C462.181,141.907,462.176,142.072,462.169,142.225Z" transform="translate(-281.604 -51.725)"/><path class="e" d="M462.188,141.677c0-.142.01-.292.017-.45C462.2,141.382,462.193,141.532,462.188,141.677Z" transform="translate(-281.605 -51.672)"/><path class="e" d="M462.269,139.415c0-.089.006-.18.01-.273C462.275,139.234,462.272,139.324,462.269,139.415Z" transform="translate(-281.61 -51.452)"/><path class="e" d="M462.206,141.166c.007-.166.012-.339.02-.516C462.218,140.831,462.213,141,462.206,141.166Z" transform="translate(-281.606 -51.611)"/><path class="e" d="M462.323,137.8c.01-.259.021-.53.031-.81C462.344,137.257,462.334,137.526,462.323,137.8Z" transform="translate(-281.614 -51.223)"/><path class="e" d="M462.28,139.107c0-.1.007-.2.01-.3C462.286,138.911,462.284,139.009,462.28,139.107Z" transform="translate(-281.611 -51.416)"/><path class="e" d="M462.356,136.983v0Z" transform="translate(-281.616 -51.222)"/><path class="e" d="M462.321,137.951c0-.021,0-.04,0-.06C462.322,137.911,462.322,137.93,462.321,137.951Z" transform="translate(-281.614 -51.319)"/><path class="e" d="M462.291,138.72c.009-.243.019-.5.028-.762Q462.3,138.343,462.291,138.72Z" transform="translate(-281.612 -51.326)"/><path class="e" d="M462.356,136.914c.006-.153.011-.309.018-.468C462.367,136.6,462.362,136.758,462.356,136.914Z" transform="translate(-281.616 -51.166)"/><path class="e" d="M462.115,143.751c0-.078.008-.169.011-.273C462.122,143.584,462.118,143.675,462.115,143.751Z" transform="translate(-281.6 -51.91)"/><path class="e" d="M462.127,143.463c0-.039,0-.082,0-.127C462.13,143.38,462.129,143.423,462.127,143.463Z" transform="translate(-281.601 -51.895)"/><path class="e" d="M462.109,143.951c0-.026,0-.055,0-.089C462.111,143.9,462.11,143.925,462.109,143.951Z" transform="translate(-281.6 -51.951)"/><path class="e" d="M462.108,144v0Z" transform="translate(-281.6 -51.961)"/><path class="e" d="M462.108,144.005c-.006.142-.006.133,0,0Z" transform="translate(-281.599 -51.966)"/><path class="e" d="M462.143,142.995l0-.094Z" transform="translate(-281.602 -51.849)"/><path class="e" d="M462.159,142.543c0-.044,0-.088,0-.132C462.162,142.457,462.161,142.5,462.159,142.543Z" transform="translate(-281.603 -51.797)"/><path class="e" d="M462.146,142.865c0-.1.008-.2.012-.306C462.154,142.665,462.151,142.767,462.146,142.865Z" transform="translate(-281.602 -51.813)"/><path class="e" d="M462.139,143.117c0-.037,0-.072,0-.111C462.142,143.044,462.141,143.081,462.139,143.117Z" transform="translate(-281.602 -51.86)"/><path class="e" d="M462.164,142.4c0-.037,0-.076,0-.114C462.167,142.321,462.166,142.36,462.164,142.4Z" transform="translate(-281.603 -51.784)"/><path class="e" d="M462.132,143.314c0-.059,0-.119.007-.184C462.137,143.2,462.134,143.257,462.132,143.314Z" transform="translate(-281.601 -51.873)"/><path class="e" d="M462.113,143.854c0-.022,0-.046,0-.071C462.114,143.808,462.114,143.831,462.113,143.854Z" transform="translate(-281.6 -51.942)"/><path class="e" d="M462.6,130.15l0-.148Z" transform="translate(-281.632 -50.485)"/><path class="e" d="M462.6,129.976c0-.078,0-.151.007-.219C462.607,129.83,462.6,129.9,462.6,129.976Z" transform="translate(-281.632 -50.459)"/><path class="e" d="M462.578,130.637c0-.087.007-.17.009-.249C462.585,130.47,462.582,130.556,462.578,130.637Z" transform="translate(-281.63 -50.526)"/><path class="e" d="M462.588,130.38c0-.024,0-.048,0-.072C462.591,130.331,462.59,130.355,462.588,130.38Z" transform="translate(-281.631 -50.517)"/><path class="e" d="M462.592,130.293c0-.043,0-.085,0-.126C462.595,130.21,462.594,130.251,462.592,130.293Z" transform="translate(-281.631 -50.502)"/><path class="e" d="M462.61,129.71c.006-.132.01-.266.016-.4C462.622,129.4,462.617,129.54,462.61,129.71Z" transform="translate(-281.632 -50.412)"/><path class="f" d="M421.108,66.293a69.623,69.623,0,0,0-20.276-1.385,9.058,9.058,0,0,0,3.9-3.607c1.192-2.131-3.957-.316-5.654.327-.326.131-.529.206-.529.206s.2-.081.529-.206c1.755-.708,7.079-3.088,3.428-4.585-4.328-1.774-13.85,7.155-13.85,7.155s5.009-5.677,1.669-8.042-7.6,9.521-7.6,9.521c-9.131-.223-16.094,1.935-21.4,5.2C381.552,76.132,403.471,75.71,421.108,66.293Z" transform="translate(-275.048 -42.641)"/><path class="g" d="M342.272,123.3c.075,2.676.307,4.379.307,4.379l112.231-.748a66.466,66.466,0,0,0-1.778-18.585c-5.742,2.185-11.576,4-17.411,6.227C405.669,126.095,373.716,126.686,342.272,123.3Z" transform="translate(-273.81 -48.194)"/><path class="e" d="M439.35,80.869l5.069,1.774c-6.106-8.919-15.761-13.153-24.55-15.114-17.637,9.417-39.556,9.838-59.793,4.588-14.383,8.861-16.564,25.9-16.564,25.9a6.343,6.343,0,0,1,4.823-3.312c-5.628,7.585-6.231,18.333-6.063,24.276,31.444,3.386,63.4,2.8,93.348-8.726,5.834-2.231,11.669-4.043,17.411-6.227C448.926,87.565,439.35,80.869,439.35,80.869Z" transform="translate(-273.808 -43.877)"/><path class="e" d="M401.661,62.312c-.328.124-.529.206-.529.206S401.335,62.443,401.661,62.312Z" transform="translate(-277.636 -43.325)"/><path class="e" d="M462.627,129.291c0-.082,0-.135.006-.153Z" transform="translate(-281.634 -50.393)"/><path class="e" d="M462.633,129.137v0Z" transform="translate(-281.634 -50.392)"/><path class="e" d="M462.46,134.007c0-.088.007-.178.01-.266C462.467,133.829,462.464,133.918,462.46,134.007Z" transform="translate(-281.623 -50.88)"/><path class="e" d="M462.578,130.692v0Z" transform="translate(-281.63 -50.555)"/><path class="e" d="M462.375,136.409c0-.1.008-.207.012-.31C462.383,136.2,462.378,136.307,462.375,136.409Z" transform="translate(-281.617 -51.13)"/><path class="e" d="M462.471,133.725c0-.046,0-.093,0-.139C462.474,133.632,462.472,133.678,462.471,133.725Z" transform="translate(-281.623 -50.864)"/><path class="e" d="M462.418,135.1c.013-.36.026-.716.039-1.062Q462.436,134.589,462.418,135.1Z" transform="translate(-281.62 -50.912)"/><path class="e" d="M462.388,136.007c.008-.253.019-.512.028-.78C462.407,135.485,462.4,135.746,462.388,136.007Z" transform="translate(-281.618 -51.037)"/><path class="e" d="M462.476,133.544c0-.116.007-.235.013-.354C462.483,133.306,462.48,133.425,462.476,133.544Z" transform="translate(-281.624 -50.822)"/><path class="e" d="M462.553,131.318c.008-.222.016-.431.023-.623C462.568,130.906,462.56,131.113,462.553,131.318Z" transform="translate(-281.629 -50.558)"/><path class="e" d="M462.551,131.441c0-.016,0-.032,0-.049C462.553,131.408,462.552,131.425,462.551,131.441Z" transform="translate(-281.629 -50.632)"/><path class="e" d="M462.49,133.088c.01-.3.022-.588.031-.863C462.511,132.52,462.5,132.807,462.49,133.088Z" transform="translate(-281.625 -50.72)"/><path class="e" d="M462.544,131.633c0-.063,0-.124.007-.186C462.549,131.51,462.546,131.571,462.544,131.633Z" transform="translate(-281.628 -50.638)"/><path class="e" d="M462.523,132.165c.007-.166.013-.337.02-.51C462.537,131.819,462.53,131.989,462.523,132.165Z" transform="translate(-281.627 -50.66)"/><path class="e" d="M357.727,296.3s7.42,14.854,33.39,16.036c0,0-9.77,5.5-5.874,6.21s11.686-4.967,11.686-4.967a2.539,2.539,0,0,0,1.113,3.726c2.6,1.419,4.409-3.548,4.409-3.548s-1.812,7.45,3.938,6.387,3.71-7.985,3.71-7.985,25.6,1.243,32.276-18.095Z" transform="translate(-274.815 -67.837)"/><g transform="translate(13.418 78.737)"><path class="h" d="M486.6,268.961a8.831,8.831,0,0,1,3.427.686,7.81,7.81,0,0,1-.645-3.111,8.354,8.354,0,0,1,8.534-8.162,8.8,8.8,0,0,1,4.026.966,7.825,7.825,0,0,1-.688-3.213,8.353,8.353,0,0,1,8.533-8.16,8.925,8.925,0,0,1,2.055.24V136.719a7.793,7.793,0,0,0-7.937-7.59H291.336a7.792,7.792,0,0,0-7.935,7.59v137.56a7.792,7.792,0,0,0,7.935,7.59H479.661a7.877,7.877,0,0,1-1.6-4.748A8.353,8.353,0,0,1,486.6,268.961Z" transform="translate(-283.7 -128.793)"/><path class="i" d="M511.839,147.933V136.719a7.793,7.793,0,0,0-7.937-7.59H291.336a7.792,7.792,0,0,0-7.935,7.59v11.214Z" transform="translate(-283.401 -129.129)"/><path class="j" d="M495.088,138.3a3.435,3.435,0,1,1-3.431-3.282A3.359,3.359,0,0,1,495.088,138.3Z" transform="translate(-296.715 -129.752)"/><ellipse class="k" cx="3.432" cy="3.282" rx="3.432" ry="3.282" transform="translate(203.567 5.268)"/><path class="l" d="M520.879,138.3a3.435,3.435,0,1,1-3.432-3.282A3.36,3.36,0,0,1,520.879,138.3Z" transform="translate(-298.392 -129.752)"/><path class="m" d="M486.6,268.961a8.831,8.831,0,0,1,3.427.686,7.81,7.81,0,0,1-.645-3.111,8.354,8.354,0,0,1,8.534-8.162,8.8,8.8,0,0,1,4.026.966,7.825,7.825,0,0,1-.688-3.213,8.353,8.353,0,0,1,8.533-8.16,8.925,8.925,0,0,1,2.055.24V136.719a7.793,7.793,0,0,0-7.937-7.59H291.336a7.792,7.792,0,0,0-7.935,7.59v137.56a7.792,7.792,0,0,0,7.935,7.59H479.661a7.877,7.877,0,0,1-1.6-4.748A8.353,8.353,0,0,1,486.6,268.961Z" transform="translate(-283.401 -129.129)"/></g><path class="h" d="M369.015,124.064l8.326,11.02,3.9-6.328,5.07,6.328,5.07-6.8,5.194,6.269,4.451-6.5,5.689,6.032,5.442-6.387,6.677,6.032,6.184-12.3s-6.8-4.022-29.185-3.667S369.015,124.064,369.015,124.064Z" transform="translate(-275.548 -49.187)"/><path class="n" d="M366.655,125.692s27.577-13.16,62.2-1.452c0,0-2.474-7.938-30.174-7.938S366.655,125.692,366.655,125.692Z" transform="translate(-275.395 -49.036)"/><path class="e" d="M282.613,238.163S264.806,234.438,270,214.745s22.63-27.143,22.815-22.53-4.452,14.369-4.452,14.369,9.46-11.176,14.1-7.983c0,0,2.968.887-4.266,12.95,0,0,4.823-3.37,6.121-3.015S303.574,223.439,282.613,238.163Z" transform="translate(-269.05 -56.925)"/><path class="e" d="M526.228,238.163s17.808-3.725,12.613-23.418-22.63-27.143-22.815-22.53,4.452,14.369,4.452,14.369-9.46-11.176-14.1-7.983c0,0-2.968.887,4.267,12.95,0,0-4.824-3.37-6.121-3.015S505.267,223.439,526.228,238.163Z" transform="translate(-284.337 -56.925)"/><path class="o" d="M375.554,298.421l5.932-12.794,7.049,6.4,6.307-6.4,4.638,6.4,5.194-6.4,4.637,6.4,5.379-6.4,4.823,6.4,4.544-6.4,7.29,13.132-55.793-.339" transform="translate(-275.973 -66.945)"/><path class="h" d="M431.328,298.91l-7.781-11.379-4.2,6.148-4.757-6.547L409.2,293.7l-4.883-6.492-4.764,6.3-5.388-6.278-5.746,6.137-6.377-6.322-6.775,12.012s6.6,4.319,28.975,4.96S431.328,298.91,431.328,298.91Z" transform="translate(-275.955 -67.095)"/><path class="p" d="M372.958,94.627c-.07,3.082.834,5.615,2.019,5.657s2.2-2.422,2.273-5.5-.835-5.614-2.021-5.657-2.2,2.422-2.271,5.5" transform="translate(-275.804 -46.161)"/><path class="p" d="M419.183,94.627c-.071,3.082.834,5.615,2.02,5.657s2.2-2.422,2.272-5.5-.835-5.614-2.021-5.657-2.2,2.422-2.27,5.5" transform="translate(-278.809 -46.161)"/></g></g><g transform="translate(528.195 290.048)"><path class="q" d="M163.948,290.8c0-17.233-13.023-22.807-29.093-22.807s-29.088,5.574-29.088,22.807,13.023,38.872,29.088,38.872S163.948,308.035,163.948,290.8Z" transform="translate(-1.293 -1.32)"/><g class="x" transform="matrix(1, 0, 0, 1, 63.69, 142.88)"><path class="r" d="M165.326,288.852c0-18.814-14.219-24.9-31.763-24.9s-31.757,6.085-31.757,24.9,14.219,42.44,31.757,42.44S165.326,307.665,165.326,288.852Z" transform="translate(-63.69 -142.88)"/></g><path class="s" d="M164.695,289.63c0-18.091-13.671-23.943-30.54-23.943s-30.536,5.852-30.536,23.943,13.671,40.811,30.536,40.811S164.695,307.719,164.695,289.63Z" transform="translate(-0.592 -0.567)"/><path class="t" d="M163.948,290.8c0-17.233-13.023-22.807-29.093-22.807s-29.088,5.574-29.088,22.807,13.023,38.872,29.088,38.872S163.948,308.035,163.948,290.8Z" transform="translate(-1.293 -1.32)"/><path class="u" d="M119.776,293.472q.6-.079,1.843-.222a28.013,28.013,0,0,1,3.123-.144,15.324,15.324,0,0,1,2.8.262,7.158,7.158,0,0,1,2.548.98,5.343,5.343,0,0,1,1.843,2.026,7.139,7.139,0,0,1,.706,3.4,7.419,7.419,0,0,1-.562,3.084,5.194,5.194,0,0,1-1.49,1.961,5.746,5.746,0,0,1-2.117,1.045,9.563,9.563,0,0,1-2.445.314q-.5,0-1.006-.039a4.942,4.942,0,0,1-.719-.092v6.09q-.68.13-1.228.183t-1.02.052a13.741,13.741,0,0,1-2.274-.235Zm4.522,8.835a1.71,1.71,0,0,0,.444.078q.313.026.654.026a2.362,2.362,0,0,0,2.535-2.64,3.452,3.452,0,0,0-.222-1.32,2.2,2.2,0,0,0-.614-.863,2.268,2.268,0,0,0-.915-.458,4.562,4.562,0,0,0-1.1-.13h-.366a3.5,3.5,0,0,0-.418.026Z" transform="translate(-5.868 -9.519)"/><path class="u" d="M143.587,297.65h-4.365a8.957,8.957,0,0,1,0-4.078h13.357q.105.576.158,1.072a9.127,9.127,0,0,1,.052.943,12.323,12.323,0,0,1-.209,2.065h-4.365v14.637a14.22,14.22,0,0,1-2.3.235,13.945,13.945,0,0,1-2.326-.235Z" transform="translate(-12.141 -9.672)"/><path class="u" d="M167.571,300.741q1.1.444,1.974.9a5.925,5.925,0,0,1,1.5,1.1,4.373,4.373,0,0,1,.967,1.542,6.9,6.9,0,0,1-.143,4.678,5.186,5.186,0,0,1-1.424,1.908,6.578,6.578,0,0,1-2.314,1.229,10.525,10.525,0,0,1-3.15.431,14.085,14.085,0,0,1-2.862-.261,17.963,17.963,0,0,1-2.678-.808,14.662,14.662,0,0,1,.366-1.948q.262-1.032.628-2.1a10.775,10.775,0,0,0,4.181,1.046,4.4,4.4,0,0,0,2.078-.4,1.457,1.457,0,0,0,.745-1.4,1.532,1.532,0,0,0-.157-.719,1.6,1.6,0,0,0-.418-.51,2.655,2.655,0,0,0-.588-.353q-.327-.143-.667-.274l-1.464-.549a9.46,9.46,0,0,1-1.712-.808,5.5,5.5,0,0,1-1.32-1.111,4.658,4.658,0,0,1-.849-1.477,5.786,5.786,0,0,1-.3-1.96,6.056,6.056,0,0,1,.471-2.457,5.118,5.118,0,0,1,1.319-1.818,5.652,5.652,0,0,1,2.052-1.124,8.935,8.935,0,0,1,2.694-.379,12.457,12.457,0,0,1,2.575.262,21.192,21.192,0,0,1,2.653.758,13.334,13.334,0,0,1-.378,1.843,11.671,11.671,0,0,1-.693,1.9q-.681-.287-1.595-.6a7.071,7.071,0,0,0-2.274-.314,3.953,3.953,0,0,0-.8.078,2.34,2.34,0,0,0-.68.249,1.323,1.323,0,0,0-.484.471,1.4,1.4,0,0,0-.183.745,1.3,1.3,0,0,0,.5,1.124,4.942,4.942,0,0,0,1.176.627Z" transform="translate(-18.821 -9.522)"/><path class="v" d="M158.689,273.587c-5.918-5.918-16.052-7.7-23.208-7.7-15.759,0-28.369,5.763-28.181,22.921.091,8.386,4.483,19.1,10.364,26.945C121.381,294,140.142,281.451,158.689,273.587Z" transform="translate(-1.793 -0.631)"/><path class="w" d="M206.06,293.948c.255-.034.559-.067.908-.1s.717-.067,1.1-.09.768-.046,1.152-.067.755-.026,1.113-.026a12.331,12.331,0,0,1,2.674.282,5.994,5.994,0,0,1,2.226.972,4.854,4.854,0,0,1,1.522,1.83,6.412,6.412,0,0,1,.564,2.853,6.59,6.59,0,0,1-.6,2.981,5.221,5.221,0,0,1-1.587,1.907,6.147,6.147,0,0,1-2.239,1.01,11.142,11.142,0,0,1-2.559.294q-.487,0-.857-.013c-.247-.008-.517-.03-.808-.067v6.654a10.528,10.528,0,0,1-1.305.077c-.2,0-.422,0-.653-.013a5.238,5.238,0,0,1-.653-.064Zm2.61,9.5q.409.051.717.077t.9.026a7.52,7.52,0,0,0,1.575-.167,3.719,3.719,0,0,0,1.394-.6,3.094,3.094,0,0,0,.985-1.19,4.462,4.462,0,0,0,.371-1.958,4.314,4.314,0,0,0-.321-1.766,2.945,2.945,0,0,0-.882-1.152,3.434,3.434,0,0,0-1.356-.614,7.837,7.837,0,0,0-1.715-.179,15.818,15.818,0,0,0-1.663.077Z" transform="translate(-34.043 -9.702)"/><path class="w" d="M226.2,301.9c.188-.034.366-.059.539-.077a5.31,5.31,0,0,1,.539-.026c.189,0,.376.009.563.026a4.294,4.294,0,0,1,.512.077q.075.385.153,1.01a8.972,8.972,0,0,1,.077,1.062,5.315,5.315,0,0,1,1.42-1.51,3.766,3.766,0,0,1,2.265-.64c.135,0,.277,0,.422.013a3.718,3.718,0,0,1,.371.038,4.059,4.059,0,0,1,.077.486q.025.257.026.539a5.44,5.44,0,0,1-.038.64c-.026.222-.056.435-.09.64a1.75,1.75,0,0,0-.422-.051h-.345a4.5,4.5,0,0,0-1.318.192,2.756,2.756,0,0,0-1.126.678,3.372,3.372,0,0,0-.793,1.331,6.716,6.716,0,0,0-.294,2.175v6.526a6.247,6.247,0,0,1-.627.077q-.345.025-.626.025c-.189,0-.4-.008-.628-.025s-.448-.044-.653-.077Z" transform="translate(-40.621 -12.359)"/><path class="w" d="M243.64,315.236a6.42,6.42,0,0,1-2.687-.525,5.341,5.341,0,0,1-1.919-1.446,6.013,6.013,0,0,1-1.139-2.175,10.1,10.1,0,0,1,0-5.425,6.019,6.019,0,0,1,1.139-2.175,5.474,5.474,0,0,1,1.919-1.459,6.986,6.986,0,0,1,5.374,0,5.463,5.463,0,0,1,1.919,1.459,6.02,6.02,0,0,1,1.139,2.175,10.1,10.1,0,0,1,0,5.425,6.013,6.013,0,0,1-1.139,2.175,5.329,5.329,0,0,1-1.919,1.446,6.419,6.419,0,0,1-2.687.525Zm0-2.02a2.906,2.906,0,0,0,2.61-1.28,7.887,7.887,0,0,0,0-7.1,2.917,2.917,0,0,0-2.61-1.267,2.885,2.885,0,0,0-2.6,1.267,8,8,0,0,0,0,7.1A2.874,2.874,0,0,0,243.64,313.216Z" transform="translate(-44.319 -12.259)"/><path class="w" d="M259.269,302.4h-2l-.1-.358,4.4-4.916h.2v3.25H265.1a4.232,4.232,0,0,1,.1.972c0,.188-.009.367-.026.539a5.126,5.126,0,0,1-.077.512h-3.326v5.988a12.9,12.9,0,0,0,.09,1.715,2.5,2.5,0,0,0,.307.985,1.04,1.04,0,0,0,.589.461,3.2,3.2,0,0,0,.933.115,4.93,4.93,0,0,0,.819-.067q.384-.063.692-.141a4.077,4.077,0,0,1,.218,1.049q.038.539.038.947a8.32,8.32,0,0,1-1.078.192,10.587,10.587,0,0,1-1.2.067,4.262,4.262,0,0,1-2.88-.9,3.741,3.741,0,0,1-1.036-2.969Z" transform="translate(-50.734 -10.831)"/><path class="w" d="M273.612,308.995a4.289,4.289,0,0,0,1.113,3.148,4.421,4.421,0,0,0,3.136,1,9.406,9.406,0,0,0,3.455-.64,3.869,3.869,0,0,1,.333.934,6.1,6.1,0,0,1,.153,1.088,8.571,8.571,0,0,1-1.855.539,12.967,12.967,0,0,1-2.239.178,8.451,8.451,0,0,1-3.07-.5,5.4,5.4,0,0,1-3.327-3.557,9.187,9.187,0,0,1-.383-2.725,9.642,9.642,0,0,1,.371-2.726,6.135,6.135,0,0,1,1.138-2.2,5.522,5.522,0,0,1,1.932-1.482,6.39,6.39,0,0,1,2.751-.55,5.75,5.75,0,0,1,2.38.461,4.826,4.826,0,0,1,1.715,1.267,5.494,5.494,0,0,1,1.05,1.919,7.868,7.868,0,0,1,.358,2.418q0,.358-.025.755c-.018.265-.035.491-.051.678Zm6.5-1.894a4.8,4.8,0,0,0-.192-1.369,3.467,3.467,0,0,0-.563-1.139,2.745,2.745,0,0,0-.947-.781,2.983,2.983,0,0,0-1.368-.294,3.016,3.016,0,0,0-2.393.947,4.64,4.64,0,0,0-1.01,2.636Z" transform="translate(-55.226 -12.26)"/><path class="w" d="M300.543,312.652a4.09,4.09,0,0,1,.358.9,4.76,4.76,0,0,1,.179,1.1,9.459,9.459,0,0,1-3.455.589,6.292,6.292,0,0,1-4.939-1.855,7.215,7.215,0,0,1-1.663-5,8.682,8.682,0,0,1,.41-2.713,6.164,6.164,0,0,1,1.216-2.175,5.724,5.724,0,0,1,2.009-1.459,6.778,6.778,0,0,1,2.789-.539,12.365,12.365,0,0,1,1.894.129,7.78,7.78,0,0,1,1.561.409,5.23,5.23,0,0,1-.115,1.01,4.413,4.413,0,0,1-.32,1.01,8.735,8.735,0,0,0-2.866-.435,3.435,3.435,0,0,0-2.943,1.305,5.642,5.642,0,0,0-.973,3.455,5.023,5.023,0,0,0,1.1,3.6,4,4,0,0,0,3.02,1.139,9.132,9.132,0,0,0,1.42-.1A6.415,6.415,0,0,0,300.543,312.652Z" transform="translate(-61.785 -12.258)"/><path class="w" d="M308.972,302.4h-2l-.1-.358,4.4-4.916h.2v3.25H314.8a4.228,4.228,0,0,1,.1.972c0,.188-.009.367-.026.539a4.917,4.917,0,0,1-.077.512h-3.326v5.988a12.918,12.918,0,0,0,.09,1.715,2.512,2.512,0,0,0,.307.985,1.044,1.044,0,0,0,.589.461,3.2,3.2,0,0,0,.933.115,4.934,4.934,0,0,0,.819-.067q.384-.063.692-.141a4.078,4.078,0,0,1,.217,1.049q.038.539.038.947a8.355,8.355,0,0,1-1.078.192,10.574,10.574,0,0,1-1.2.067,4.262,4.262,0,0,1-2.88-.9,3.741,3.741,0,0,1-1.036-2.969Z" transform="translate(-66.965 -10.831)"/><path class="w" d="M323.315,308.995a4.289,4.289,0,0,0,1.113,3.148,4.421,4.421,0,0,0,3.136,1,9.4,9.4,0,0,0,3.455-.64,3.874,3.874,0,0,1,.333.934,6.1,6.1,0,0,1,.153,1.088,8.573,8.573,0,0,1-1.855.539,12.967,12.967,0,0,1-2.239.178,8.451,8.451,0,0,1-3.07-.5,5.4,5.4,0,0,1-3.328-3.557,9.185,9.185,0,0,1-.383-2.725,9.64,9.64,0,0,1,.371-2.726,6.136,6.136,0,0,1,1.138-2.2,5.522,5.522,0,0,1,1.932-1.482,6.391,6.391,0,0,1,2.751-.55,5.75,5.75,0,0,1,2.38.461,4.826,4.826,0,0,1,1.715,1.267,5.494,5.494,0,0,1,1.05,1.919,7.868,7.868,0,0,1,.358,2.418c0,.239-.009.491-.025.755s-.035.491-.051.678Zm6.5-1.894a4.8,4.8,0,0,0-.193-1.369,3.452,3.452,0,0,0-.563-1.139,2.745,2.745,0,0,0-.947-.781,2.983,2.983,0,0,0-1.368-.294,3.016,3.016,0,0,0-2.393.947,4.64,4.64,0,0,0-1.01,2.636Z" transform="translate(-71.456 -12.26)"/><path class="w" d="M349.939,293.542a6.038,6.038,0,0,1,.64-.076c.239-.017.443-.026.614-.026q.282,0,.627.026a6.07,6.07,0,0,1,.627.076v18.4a17.966,17.966,0,0,1-2.175.471,17.136,17.136,0,0,1-2.687.192,9.741,9.741,0,0,1-2.626-.345,5.357,5.357,0,0,1-3.621-3.186,7.869,7.869,0,0,1-.539-3.1,8.424,8.424,0,0,1,.471-2.892,6.492,6.492,0,0,1,1.344-2.239A5.989,5.989,0,0,1,344.7,299.4a6.894,6.894,0,0,1,2.7-.512,8.928,8.928,0,0,1,1.344.1,8.678,8.678,0,0,1,1.19.255Zm0,7.857a5.557,5.557,0,0,0-1.1-.307,7.5,7.5,0,0,0-1.28-.1,4.018,4.018,0,0,0-1.818.384,3.537,3.537,0,0,0-1.267,1.049,4.556,4.556,0,0,0-.741,1.574,7.649,7.649,0,0,0-.243,1.983,4.653,4.653,0,0,0,1.152,3.481,4.325,4.325,0,0,0,3.071,1.049,10.8,10.8,0,0,0,1.228-.067,5.9,5.9,0,0,0,1-.192Z" transform="translate(-78.042 -9.629)"/><path class="w" d="M208.4,328.4h-4.781a4.844,4.844,0,0,1-.077-.563c-.018-.2-.026-.4-.026-.588s.008-.38.026-.576a4.917,4.917,0,0,1,.077-.55H215.8a4.99,4.99,0,0,1,.077.539q.025.281.026.563t-.026.6a4.825,4.825,0,0,1-.077.576h-4.786v16.122a9.914,9.914,0,0,1-1.28.077,10.773,10.773,0,0,1-1.331-.077Z" transform="translate(-33.215 -20.302)"/><path class="w" d="M221.679,333.9c.187-.034.366-.06.539-.077s.35-.025.539-.025.376.008.563.025a4.113,4.113,0,0,1,.512.077q.075.384.154,1.01a8.984,8.984,0,0,1,.077,1.062,5.311,5.311,0,0,1,1.42-1.51,3.767,3.767,0,0,1,2.265-.64c.135,0,.277,0,.422.013a3.714,3.714,0,0,1,.37.038,4.212,4.212,0,0,1,.077.487q.025.256.026.539a5.6,5.6,0,0,1-.038.64q-.038.332-.09.639a1.716,1.716,0,0,0-.422-.051h-.345a4.5,4.5,0,0,0-1.318.192A2.746,2.746,0,0,0,225.3,337a3.359,3.359,0,0,0-.793,1.33,6.714,6.714,0,0,0-.295,2.175v6.526a6.243,6.243,0,0,1-.626.077c-.23.017-.44.025-.627.025s-.4-.008-.628-.025-.448-.044-.652-.077Z" transform="translate(-39.144 -22.809)"/><path class="w" d="M234.253,333.9a6.073,6.073,0,0,1,.64-.077q.359-.026.614-.025.281,0,.64.025a6.086,6.086,0,0,1,.64.077v7.192a7.573,7.573,0,0,0,.23,2.034,2.866,2.866,0,0,0,.692,1.267,2.461,2.461,0,0,0,1.126.64,5.9,5.9,0,0,0,1.535.179,7.686,7.686,0,0,0,2.227-.282V333.9a6.042,6.042,0,0,1,.626-.077c.23-.017.44-.025.627-.025s.4.008.627.025a6.063,6.063,0,0,1,.627.077v12.719q-.9.257-2.137.487a14.134,14.134,0,0,1-2.572.23,12.3,12.3,0,0,1-2.367-.218,4.5,4.5,0,0,1-1.958-.883,4.41,4.41,0,0,1-1.33-1.868,8.6,8.6,0,0,1-.487-3.173Z" transform="translate(-43.249 -22.809)"/><path class="w" d="M254.339,344.546a8.754,8.754,0,0,0,3.173.614,4.842,4.842,0,0,0,1.126-.127,2.981,2.981,0,0,0,.934-.385,2.129,2.129,0,0,0,.64-.627,1.488,1.488,0,0,0,.243-.832,1.677,1.677,0,0,0-.192-.844,1.783,1.783,0,0,0-.512-.563,3.407,3.407,0,0,0-.741-.4c-.281-.11-.585-.218-.908-.32l-.9-.333a6.445,6.445,0,0,1-2.38-1.382,2.853,2.853,0,0,1-.741-2.073,3.394,3.394,0,0,1,1.241-2.761,5.619,5.619,0,0,1,3.647-1.024,10.014,10.014,0,0,1,1.958.192,12.086,12.086,0,0,1,1.676.448,6.087,6.087,0,0,1-.192,1.024,5.793,5.793,0,0,1-.345.943,13.371,13.371,0,0,0-1.347-.4,7.031,7.031,0,0,0-1.676-.192,4.015,4.015,0,0,0-1.676.333,1.188,1.188,0,0,0-.729,1.177,1.443,1.443,0,0,0,.179.741,1.659,1.659,0,0,0,.486.525,3.173,3.173,0,0,0,.7.371q.4.154.857.308l1.125.383a8.413,8.413,0,0,1,1.165.486,3.441,3.441,0,0,1,.947.7,3.282,3.282,0,0,1,.639,1.024,4.218,4.218,0,0,1-.141,3.173,3.8,3.8,0,0,1-1.087,1.331,5.214,5.214,0,0,1-1.7.857,7.459,7.459,0,0,1-2.2.307,12.2,12.2,0,0,1-2.149-.166,10.858,10.858,0,0,1-1.715-.448,5.075,5.075,0,0,1,.218-1.036Q254.133,345.059,254.339,344.546Z" transform="translate(-49.617 -22.704)"/><path class="w" d="M270.63,334.4h-2l-.1-.358,4.4-4.913h.205v3.249h3.327a4.269,4.269,0,0,1,.1.972c0,.189-.009.367-.026.539a5.1,5.1,0,0,1-.077.512h-3.327v5.988a12.922,12.922,0,0,0,.09,1.715,2.514,2.514,0,0,0,.307.985,1.041,1.041,0,0,0,.589.461,3.2,3.2,0,0,0,.934.116,4.93,4.93,0,0,0,.818-.067c.256-.042.487-.09.692-.141a4.048,4.048,0,0,1,.217,1.05q.038.539.038.943a8.329,8.329,0,0,1-1.078.192,10.574,10.574,0,0,1-1.2.067,4.261,4.261,0,0,1-2.879-.9,3.742,3.742,0,0,1-1.037-2.969Z" transform="translate(-54.444 -21.283)"/><path class="w" d="M361.134,287.713a3.151,3.151,0,0,1-1.224-.23,2.767,2.767,0,0,1-1.556-1.581,3.384,3.384,0,0,1,0-2.387,2.761,2.761,0,0,1,1.556-1.585,3.152,3.152,0,0,1,1.224-.23,3.207,3.207,0,0,1,1.224.226,2.756,2.756,0,0,1,.943.63,2.887,2.887,0,0,1,.606.954,3.385,3.385,0,0,1,0,2.391,2.761,2.761,0,0,1-1.556,1.581A3.157,3.157,0,0,1,361.134,287.713Zm0-.476a2.525,2.525,0,0,0,1.026-.2,2.235,2.235,0,0,0,.768-.539,2.409,2.409,0,0,0,.486-.808,2.946,2.946,0,0,0,0-1.971,2.407,2.407,0,0,0-.486-.8,2.247,2.247,0,0,0-.768-.539,2.761,2.761,0,0,0-2.053,0,2.252,2.252,0,0,0-.768.539,2.4,2.4,0,0,0-.485.8,2.947,2.947,0,0,0,0,1.971,2.408,2.408,0,0,0,.485.808,2.241,2.241,0,0,0,.768.539A2.531,2.531,0,0,0,361.134,287.237ZM360.2,283.1c.125-.017.249-.028.376-.036s.265-.012.416-.012a2.174,2.174,0,0,1,.436.044,1.26,1.26,0,0,1,.4.154.852.852,0,0,1,.295.291.983.983,0,0,1,.053.8,1.128,1.128,0,0,1-.15.259.982.982,0,0,1-.2.194,1.356,1.356,0,0,1-.218.129l.943,1.292a1.248,1.248,0,0,1-.177.017h-.251a.784.784,0,0,1-.112-.008l-1.067-1.455.185-.073a2.249,2.249,0,0,0,.207-.1,1.108,1.108,0,0,0,.2-.138.69.69,0,0,0,.158-.185.482.482,0,0,0,.06-.242.459.459,0,0,0-.214-.413.935.935,0,0,0-.513-.135,2.744,2.744,0,0,0-.356.024v2.716a.791.791,0,0,1-.1.012c-.038,0-.086,0-.145,0a1.385,1.385,0,0,1-.141,0,.773.773,0,0,1-.094-.012Z" transform="translate(-83.704 -5.795)"/><path class="u" d="M288.4,349.074a6.494,6.494,0,0,0,.651.2,3.467,3.467,0,0,0,.829.084,1.781,1.781,0,0,0,1.155-.316,1.046,1.046,0,0,0,.382-.853,1.162,1.162,0,0,0-.08-.453.876.876,0,0,0-.24-.325,1.823,1.823,0,0,0-.4-.25c-.16-.075-.347-.156-.561-.244l-.539-.217a3.842,3.842,0,0,1-.5-.251,1.507,1.507,0,0,1-.651-.791,1.817,1.817,0,0,1-.094-.618,1.648,1.648,0,0,1,.585-1.343,2.492,2.492,0,0,1,1.64-.486,4.739,4.739,0,0,1,.859.075,4.488,4.488,0,0,1,.716.189,2.94,2.94,0,0,1-.207.783,4.861,4.861,0,0,0-.589-.17,3.453,3.453,0,0,0-.759-.075,1.5,1.5,0,0,0-.915.241.843.843,0,0,0-.321.721.756.756,0,0,0,.081.354.93.93,0,0,0,.211.274,1.592,1.592,0,0,0,.311.211,3.258,3.258,0,0,0,.378.17l.528.208a5.37,5.37,0,0,1,.669.315,2.065,2.065,0,0,1,.5.387,1.5,1.5,0,0,1,.316.523,2.1,2.1,0,0,1,.108.707,1.89,1.89,0,0,1-.669,1.532,2.834,2.834,0,0,1-1.876.561c-.2,0-.371-.006-.529-.019a4.412,4.412,0,0,1-.438-.057,3.733,3.733,0,0,1-.391-.094q-.189-.055-.387-.123a2.1,2.1,0,0,1,.085-.424C288.3,349.355,288.349,349.212,288.4,349.074Z" transform="translate(-60.857 -25.88)"/><path class="u" d="M295.9,343.381h3.724a2.786,2.786,0,0,1,.028.414c0,.067,0,.141,0,.217a1.452,1.452,0,0,1-.024.208h-2.761v1.942h2.206a1.508,1.508,0,0,1,.028.2q.01.107.01.212t-.01.216a1.479,1.479,0,0,1-.028.207h-2.206v2.321H299.7a2.812,2.812,0,0,1,.028.415c0,.067,0,.141,0,.218a1.426,1.426,0,0,1-.024.207h-3.8Z" transform="translate(-63.381 -25.937)"/><path class="u" d="M302.945,343.316c.135-.012.265-.025.378-.037s.224-.024.337-.033.224-.018.344-.024.251-.009.4-.009a4.919,4.919,0,0,1,.952.094,2.425,2.425,0,0,1,.839.33,1.823,1.823,0,0,1,.6.636,2.007,2.007,0,0,1,.231,1.014,1.764,1.764,0,0,1-.122.669,2.156,2.156,0,0,1-.311.539,2.2,2.2,0,0,1-.429.41,3.381,3.381,0,0,1-.467.288l-.113.057,1.97,2.857a5.087,5.087,0,0,1-.574.028,4.448,4.448,0,0,1-.509-.028l-2.169-3.14v-.037l.076-.02a4.313,4.313,0,0,0,.539-.179,2.188,2.188,0,0,0,.524-.3,1.642,1.642,0,0,0,.4-.442,1.172,1.172,0,0,0,.161-.628,1.228,1.228,0,0,0-.4-1.01,1.647,1.647,0,0,0-1.078-.33c-.108,0-.206,0-.3.009s-.193.016-.306.029V350.1l-.232.02c-.085.005-.165.009-.24.009s-.158,0-.245,0a1.808,1.808,0,0,1-.246-.024Z" transform="translate(-65.682 -25.882)"/><path class="u" d="M309.749,343.362a2.119,2.119,0,0,1,.25-.029c.1-.006.19-.009.278-.009s.171,0,.269.009a2.708,2.708,0,0,1,.269.029l1.717,5.8,1.706-5.8a4.535,4.535,0,0,1,.519-.029c.081,0,.168,0,.259.005a1.723,1.723,0,0,1,.25.024l-2.206,6.778c-.081.013-.173.022-.269.028s-.2.009-.283.009-.181,0-.278-.009-.191-.016-.278-.028Z" transform="translate(-67.904 -25.919)"/><path class="u" d="M318.989,343.362c.075-.013.154-.022.236-.029s.163-.009.245-.009.163,0,.244.009a2.336,2.336,0,0,1,.236.029v6.778c-.075.013-.153.022-.231.028s-.162.009-.25.009a2.183,2.183,0,0,1-.25-.009,2.12,2.12,0,0,1-.231-.028Z" transform="translate(-70.921 -25.919)"/><path class="u" d="M326.587,349.115a2.564,2.564,0,0,1,.264.783,3.733,3.733,0,0,1-.808.244,5.052,5.052,0,0,1-.9.075,3.491,3.491,0,0,1-1.325-.24,2.694,2.694,0,0,1-.995-.689,3.041,3.041,0,0,1-.622-1.089,4.475,4.475,0,0,1-.218-1.442,4.648,4.648,0,0,1,.217-1.467,3.165,3.165,0,0,1,.622-1.117,2.714,2.714,0,0,1,.99-.712,3.3,3.3,0,0,1,1.311-.25,4.95,4.95,0,0,1,.925.075,5.224,5.224,0,0,1,.688.179,1.782,1.782,0,0,1-.08.4c-.041.122-.09.253-.146.391-.094-.031-.185-.059-.273-.084s-.182-.048-.283-.067a2.961,2.961,0,0,0-.337-.043c-.123-.009-.263-.013-.42-.013a1.953,1.953,0,0,0-1.6.7,3.1,3.1,0,0,0-.57,2.009,3.735,3.735,0,0,0,.16,1.159,2.2,2.2,0,0,0,.453.808,1.843,1.843,0,0,0,.7.481,2.505,2.505,0,0,0,.919.16,3.532,3.532,0,0,0,.717-.067A3.07,3.07,0,0,0,326.587,349.115Z" transform="translate(-71.9 -25.882)"/><path class="u" d="M330.554,343.381h3.724a2.786,2.786,0,0,1,.028.414c0,.067,0,.141,0,.217a1.366,1.366,0,0,1-.024.208h-2.761v1.942h2.206a1.766,1.766,0,0,1,.028.2c.007.071.009.142.009.212a1.7,1.7,0,0,1-.009.216,1.721,1.721,0,0,1-.028.207h-2.206v2.321h2.84a2.719,2.719,0,0,1,.028.415c0,.067,0,.141,0,.218a1.262,1.262,0,0,1-.024.207h-3.8Z" transform="translate(-74.698 -25.937)"/><path class="u" d="M337.2,349.074a6.555,6.555,0,0,0,.651.2,3.475,3.475,0,0,0,.83.084,1.783,1.783,0,0,0,1.155-.316,1.048,1.048,0,0,0,.382-.853,1.162,1.162,0,0,0-.08-.453.867.867,0,0,0-.24-.325,1.8,1.8,0,0,0-.4-.25q-.24-.112-.561-.244l-.539-.217a3.8,3.8,0,0,1-.5-.251,1.507,1.507,0,0,1-.651-.791,1.817,1.817,0,0,1-.094-.618,1.649,1.649,0,0,1,.585-1.343,2.5,2.5,0,0,1,1.641-.486,4.722,4.722,0,0,1,.858.075,4.47,4.47,0,0,1,.717.189,2.963,2.963,0,0,1-.207.783,4.864,4.864,0,0,0-.589-.17,3.453,3.453,0,0,0-.759-.075,1.5,1.5,0,0,0-.915.241.84.84,0,0,0-.321.721.755.755,0,0,0,.08.354.931.931,0,0,0,.212.274,1.593,1.593,0,0,0,.311.211,3.254,3.254,0,0,0,.377.17l.528.208a5.44,5.44,0,0,1,.669.315,2.065,2.065,0,0,1,.5.387,1.488,1.488,0,0,1,.315.523,2.081,2.081,0,0,1,.109.707,1.886,1.886,0,0,1-.67,1.532,2.833,2.833,0,0,1-1.876.561c-.2,0-.37-.006-.528-.019a4.4,4.4,0,0,1-.438-.057,3.684,3.684,0,0,1-.391-.094q-.189-.055-.387-.123a2.144,2.144,0,0,1,.084-.424C337.105,349.355,337.152,349.212,337.2,349.074Z" transform="translate(-76.793 -25.88)"/></g></g></svg>