<svg xmlns="http://www.w3.org/2000/svg" width="44" height="44" viewBox="0 0 44 44"><defs><style>.a{fill:#3b5998;}.b{fill:#fff;}</style></defs><g transform="translate(-1 -1)"><path class="a" d="M5,0H44a0,0,0,0,1,0,0V44a0,0,0,0,1,0,0H5a5,5,0,0,1-5-5V5A5,5,0,0,1,5,0Z" transform="translate(1 1)"/><path class="b" d="M11.619,11.25l.555-3.62H8.7V5.282a1.81,1.81,0,0,1,2.041-1.955h1.579V.245A19.254,19.254,0,0,0,9.518,0c-2.86,0-4.73,1.734-4.73,4.872V7.63H1.609v3.62H4.789V20H8.7V11.25Z" transform="translate(16.391 13)"/></g></svg>