<svg xmlns="http://www.w3.org/2000/svg" width="16.25" height="18.5" viewBox="0 0 16.25 18.5"><defs><style>.a{fill:#3eb2ff;stroke:#3eb2ff;stroke-width:0.5px;}</style></defs><path class="a" d="M19.507,5.955A15.941,15.941,0,0,0,17.975,4.2,15.943,15.943,0,0,0,16.222,2.67a2.8,2.8,0,0,0-1.6-.742H5.9A1.408,1.408,0,0,0,4.5,3.334V18.522A1.408,1.408,0,0,0,5.9,19.928H18.842a1.408,1.408,0,0,0,1.406-1.406V7.553a2.8,2.8,0,0,0-.742-1.6ZM17.179,5a15.343,15.343,0,0,1,1.276,1.43H15.749V3.722A15.327,15.327,0,0,1,17.179,5Zm1.945,13.524a.285.285,0,0,1-.281.281H5.9a.285.285,0,0,1-.281-.281V3.334A.285.285,0,0,1,5.9,3.053h8.719V6.991a.563.563,0,0,0,.563.562h3.938Zm-2.813-1.969H8.436a.563.563,0,0,1,0-1.125h7.875a.563.563,0,1,1,0,1.125Zm0-2.25H8.436a.562.562,0,1,1,0-1.125h7.875a.562.562,0,1,1,0,1.125Zm0-2.25H8.436a.563.563,0,0,1,0-1.125h7.875a.563.563,0,1,1,0,1.125Z" transform="translate(-4.249 -1.678)"/></svg>