<svg xmlns="http://www.w3.org/2000/svg" width="20" height="16.837" viewBox="0 0 20 16.837"><defs><style>.a{fill:none;stroke:#ffef0c;stroke-linecap:round;stroke-linejoin:round;stroke-width:2px;}</style></defs><g transform="translate(1 1.11)"><path class="a" d="M14.688,27.445V25.8a3.3,3.3,0,0,0-3.3-3.3H4.8a3.3,3.3,0,0,0-3.3,3.3v1.648" transform="translate(-1.5 -12.718)"/><path class="a" d="M14.094,7.8a3.3,3.3,0,1,1-3.3-3.3A3.3,3.3,0,0,1,14.094,7.8Z" transform="translate(-4.241 -4.5)"/><path class="a" d="M32.473,27.533V25.885A3.3,3.3,0,0,0,30,22.7" transform="translate(-14.473 -12.806)"/><path class="a" d="M24,4.7a3.3,3.3,0,0,1,0,6.388" transform="translate(-11.742 -4.588)"/></g></svg>