<svg xmlns="http://www.w3.org/2000/svg" xmlns:xlink="http://www.w3.org/1999/xlink" width="54" height="54" viewBox="0 0 54 54"><defs><style>.a{fill:#e5f4ff;}.b{fill:#0097ff;}.c{filter:url(#a);}</style><filter id="a" x="0" y="0" width="54" height="54" filterUnits="userSpaceOnUse"><feOffset input="SourceAlpha"/><feGaussianBlur stdDeviation="3" result="b"/><feFlood flood-color="#fff" flood-opacity="0.561"/><feComposite operator="in" in2="b"/><feComposite in="SourceGraphic"/></filter></defs><g transform="translate(-872 -15)"><g class="c" transform="matrix(1, 0, 0, 1, 872, 15)"><rect class="a" width="36" height="36" rx="10" transform="translate(9 9)"/></g><path class="b" d="M14.757,6.04A1.759,1.759,0,0,0,13.52,4.794,41.572,41.572,0,0,0,8.05,4.5a41.572,41.572,0,0,0-5.47.294A1.759,1.759,0,0,0,1.343,6.04,18.454,18.454,0,0,0,1.05,9.432a18.454,18.454,0,0,0,.293,3.392A1.733,1.733,0,0,0,2.58,14.049a41.572,41.572,0,0,0,5.47.294,41.572,41.572,0,0,0,5.47-.294,1.733,1.733,0,0,0,1.238-1.226,18.454,18.454,0,0,0,.293-3.392,18.454,18.454,0,0,0-.293-3.392ZM6.618,11.513V7.35l3.659,2.082L6.618,11.513Z" transform="translate(890.95 32.5)"/></g></svg>