<svg xmlns="http://www.w3.org/2000/svg" xmlns:xlink="http://www.w3.org/1999/xlink" width="54" height="54" viewBox="0 0 54 54"><defs><style>.a{fill:#e5f4ff;}.b{fill:#0097ff;}.c{filter:url(#a);}</style><filter id="a" x="0" y="0" width="54" height="54" filterUnits="userSpaceOnUse"><feOffset input="SourceAlpha"/><feGaussianBlur stdDeviation="3" result="b"/><feFlood flood-color="#fff" flood-opacity="0.561"/><feComposite operator="in" in2="b"/><feComposite in="SourceGraphic"/></filter></defs><g transform="translate(-872 -15)"><g class="c" transform="matrix(1, 0, 0, 1, 872, 15)"><rect class="a" width="36" height="36" rx="10" transform="translate(9 9)"/></g><path class="b" d="M12.561,6.215c.009.124.009.249.009.373a8.108,8.108,0,0,1-8.164,8.164A8.108,8.108,0,0,1,0,13.463a5.936,5.936,0,0,0,.693.036,5.746,5.746,0,0,0,3.562-1.226,2.874,2.874,0,0,1-2.683-1.99,3.619,3.619,0,0,0,.542.044,3.035,3.035,0,0,0,.755-.1,2.87,2.87,0,0,1-2.3-2.816V7.378a2.89,2.89,0,0,0,1.3.364A2.874,2.874,0,0,1,.977,3.9a8.156,8.156,0,0,0,5.916,3,3.239,3.239,0,0,1-.071-.657,2.872,2.872,0,0,1,4.966-1.963,5.649,5.649,0,0,0,1.821-.693,2.862,2.862,0,0,1-1.261,1.581A5.752,5.752,0,0,0,14,4.731a6.168,6.168,0,0,1-1.439,1.483Z" transform="translate(892 32.619)"/></g></svg>