<svg xmlns="http://www.w3.org/2000/svg" width="36" height="36" viewBox="0 0 36 36"><defs><style>.a,.b{fill:#fff;}.a{opacity:0.2;}</style></defs><g transform="translate(-881 -24)"><rect class="a" style="fill:#33acff;" width="36" height="36" rx="10" transform="translate(881 24)"/><path class="b" d="M11.451,1.5a6.888,6.888,0,1,1-8.006,0,.669.669,0,0,1,.972.214l.439.781a.666.666,0,0,1-.183.861,4.666,4.666,0,1,0,5.553,0,.663.663,0,0,1-.181-.858l.439-.781a.666.666,0,0,1,.967-.217ZM8.562,7.333V.667A.665.665,0,0,0,7.9,0H7.007A.665.665,0,0,0,6.34.667V7.333A.665.665,0,0,0,7.007,8H7.9A.665.665,0,0,0,8.562,7.333Z" transform="translate(891.438 35)"/></g></svg>