<svg xmlns="http://www.w3.org/2000/svg" xmlns:xlink="http://www.w3.org/1999/xlink" width="54" height="54" viewBox="0 0 54 54"><defs><style>.a{fill:#e5f4ff;}.b{fill:#0097ff;}.c{filter:url(#a);}</style><filter id="a" x="0" y="0" width="54" height="54" filterUnits="userSpaceOnUse"><feOffset input="SourceAlpha"/><feGaussianBlur stdDeviation="3" result="b"/><feFlood flood-color="#fff" flood-opacity="0.561"/><feComposite operator="in" in2="b"/><feComposite in="SourceGraphic"/></filter></defs><g transform="translate(-872 -15)"><g class="c" transform="matrix(1, 0, 0, 1, 872, 15)"><rect class="a" width="36" height="36" rx="10" transform="translate(9 9)"/></g><g transform="translate(892 35)"><path class="b" d="M213.461,212.23a1.23,1.23,0,1,1-1.23-1.23A1.231,1.231,0,0,1,213.461,212.23Zm0,0" transform="translate(-205.23 -205.23)"/><path class="b" d="M125.8,120h-4.156A1.642,1.642,0,0,0,120,121.641V125.8a1.642,1.642,0,0,0,1.641,1.641H125.8a1.642,1.642,0,0,0,1.641-1.641v-4.156A1.642,1.642,0,0,0,125.8,120Zm-2.078,5.77a2.051,2.051,0,1,1,2.051-2.051A2.053,2.053,0,0,1,123.719,125.77Zm2.352-3.992a.41.41,0,1,1,.41-.41A.41.41,0,0,1,126.07,121.777Zm0,0" transform="translate(-116.719 -116.719)"/><path class="b" d="M10.309,0H3.691A3.7,3.7,0,0,0,0,3.691v6.617A3.7,3.7,0,0,0,3.691,14h6.617A3.7,3.7,0,0,0,14,10.309V3.691A3.7,3.7,0,0,0,10.309,0Zm1.23,9.078a2.464,2.464,0,0,1-2.461,2.461H4.922A2.464,2.464,0,0,1,2.461,9.078V4.922A2.464,2.464,0,0,1,4.922,2.461H9.078a2.464,2.464,0,0,1,2.461,2.461Zm0,0"/></g></g></svg>