<svg xmlns="http://www.w3.org/2000/svg" xmlns:xlink="http://www.w3.org/1999/xlink" width="44" height="44" viewBox="0 0 44 44"><defs><style>.a{fill:url(#a);}.b{fill:none;stroke:#fff;stroke-linecap:round;stroke-linejoin:round;stroke-width:3px;}</style><linearGradient id="a" x2="1" y2="1" gradientUnits="objectBoundingBox"><stop offset="0" stop-color="#8440af"/><stop offset="0.506" stop-color="#ce3081"/><stop offset="1" stop-color="#fca94a"/></linearGradient></defs><g transform="translate(-1 -1)"><path class="a" d="M5,0H44a0,0,0,0,1,0,0V44a0,0,0,0,1,0,0H5a5,5,0,0,1-5-5V5A5,5,0,0,1,5,0Z" transform="translate(1 1)"/><g transform="translate(10 10)"><path class="b" d="M8,3H18a5,5,0,0,1,5,5V18a5,5,0,0,1-5,5H8a5,5,0,0,1-5-5V8A5,5,0,0,1,8,3Z"/><path class="b" d="M20.022,15.348a4,4,0,1,1-3.37-3.37,4,4,0,0,1,3.37,3.37Z" transform="translate(-3.022 -2.978)"/><path class="b" d="M26.25,9.75h0" transform="translate(-7.75 -2.25)"/></g></g></svg>