<svg xmlns="http://www.w3.org/2000/svg" width="40" height="40" viewBox="0 0 40 40"><defs><style>.a{fill:#e5f4ff;}.b{fill:#0097ff;}</style></defs><g transform="translate(-1330 -723)"><rect class="a" width="40" height="40" rx="5" transform="translate(1330 723)"/><path class="b" d="M7,4.251V0H.75A.748.748,0,0,0,0,.75v14.5A.748.748,0,0,0,.75,16h10.5a.748.748,0,0,0,.75-.75V5H7.751A.752.752,0,0,1,7,4.251Zm2.389,6.606L6.377,13.848a.533.533,0,0,1-.751,0L2.612,10.857A.5.5,0,0,1,2.964,10H5V7.5A.5.5,0,0,1,5.5,7h1a.5.5,0,0,1,.5.5V10H9.038A.5.5,0,0,1,9.391,10.857Zm2.393-7.575L8.723.219A.75.75,0,0,0,8.192,0H8V4h4V3.81A.748.748,0,0,0,11.783,3.282Z" transform="translate(1344 734.999)"/></g></svg>