<svg xmlns="http://www.w3.org/2000/svg" width="17.805" height="24" viewBox="0 0 17.805 24"><g transform="translate(-66.08 0)"><circle cx="0.468" cy="0.468" r="0.468" transform="translate(82.706 10.163)"/><path d="M122.649,50a6.546,6.546,0,1,0,6.568,6.546A6.557,6.557,0,0,0,122.649,50Zm0,12.157a5.611,5.611,0,1,1,5.63-5.611A5.621,5.621,0,0,1,122.649,62.157Z" transform="translate(-47.663 -47.662)"/><path d="M83.083,5.192a8.906,8.906,0,0,0-17,3.714,7.854,7.854,0,0,0,.383,2.246,16.729,16.729,0,0,0,.984,2.421,34.022,34.022,0,0,0,2.143,3.682c.692,1.048,1.484,2.156,2.355,3.294.806,1.052,1.527,1.929,2.02,2.514H71.142a.469.469,0,0,0,0,.938H78.83a.469.469,0,0,0,0-.937H76.008c.539-.639,1.35-1.627,2.255-2.824.935-1.237,1.771-2.43,2.485-3.547A29.616,29.616,0,0,0,82.885,12.8a.469.469,0,0,0-.24-.618.468.468,0,0,0-.618.24,39.851,39.851,0,0,1-4.511,7.247c-.818,1.08-1.558,1.988-2.034,2.558-.168.2-.335.4-.5.586a65.9,65.9,0,0,1-4.226-5.5,33.519,33.519,0,0,1-2.614-4.452,9.889,9.889,0,0,1-1.128-3.959A7.968,7.968,0,0,1,74.986.938h0a7.947,7.947,0,0,1,7.961,7.626.467.467,0,0,0,.468.449h.02a.469.469,0,0,0,.449-.488,8.832,8.832,0,0,0-.8-3.332Z" transform="translate(0 0)"/><path d="M166.271,97.754l.546-.947a.465.465,0,0,0-.172-.637l-1.627-.938a.472.472,0,0,0-.643.17l-.545.938a3.245,3.245,0,0,0-.556,0l-.546-.941a.472.472,0,0,0-.285-.218.477.477,0,0,0-.357.047l-1.628.935a.467.467,0,0,0-.173.637l.554.965a2.828,2.828,0,0,0-.273.479h-1.1a.479.479,0,0,0-.334.137.472.472,0,0,0-.14.331v1.87a.472.472,0,0,0,.14.331.479.479,0,0,0,.334.137h1.137a3.727,3.727,0,0,0,.249.423l-.57.978a.467.467,0,0,0,.172.64l1.628.932a.47.47,0,0,0,.641-.172l.572-.987a3.234,3.234,0,0,0,.5,0l.57.984a.471.471,0,0,0,.642.171l1.628-.935a.466.466,0,0,0,.171-.641l-.562-.96a3.878,3.878,0,0,0,.256-.434h1.138a.466.466,0,0,0,.466-.468v-1.87a.466.466,0,0,0-.466-.468h-1.1a2.924,2.924,0,0,0-.281-.49Zm.9,2.36h-.964a.469.469,0,0,0-.433.286,2.872,2.872,0,0,1-.443.742.466.466,0,0,0-.051.542l.483.824-.812.467-.492-.847a.471.471,0,0,0-.407-.234.478.478,0,0,0-.082.007,2.361,2.361,0,0,1-.839,0,.468.468,0,0,0-.491.226l-.494.851-.812-.465.49-.841a.465.465,0,0,0-.05-.539,2.822,2.822,0,0,1-.434-.731.469.469,0,0,0-.434-.288h-.972v-.935h.956a.467.467,0,0,0,.45-.332,1.974,1.974,0,0,1,.42-.742.467.467,0,0,0,.049-.534l-.478-.832.815-.469.469.808a.471.471,0,0,0,.407.234.467.467,0,0,0,.088-.008,2.35,2.35,0,0,1,.88,0,.471.471,0,0,0,.493-.226l.467-.8.816.47-.471.815a.466.466,0,0,0,.05.536,2.015,2.015,0,0,1,.429.752.471.471,0,0,0,.449.33h.948Z" transform="translate(-88.574 -90.698)"/><path d="M227.484,160a1.4,1.4,0,1,0,1.4,1.4A1.4,1.4,0,0,0,227.484,160Zm0,1.87a.468.468,0,1,1,.468-.468A.468.468,0,0,1,227.484,161.87Z" transform="translate(-152.497 -152.498)"/></g></svg>