<svg xmlns="http://www.w3.org/2000/svg" width="12.785" height="20.5" viewBox="0 0 12.785 20.5"><defs><style>.a{fill:#acb2c4;stroke:#acb2c4;stroke-width:0.5px;}</style></defs><g transform="translate(-90.75 -3.75)"><path class="a" d="M97.142,0A6.149,6.149,0,0,0,91,6.142c0,3.549,3.4,8.139,5.745,10.518a.558.558,0,0,0,.795,0c2.382-2.414,5.745-6.987,5.745-10.518A6.149,6.149,0,0,0,97.142,0Zm0,15.452c-1.252-1.371-5.025-5.8-5.025-9.309a5.026,5.026,0,1,1,10.051,0C102.168,9.651,98.394,14.08,97.142,15.452Z" transform="translate(0 4)"/><path class="a" d="M151.682,482a.552.552,0,1,0,0,1.072h8.19a.552.552,0,1,0,0-1.072Z" transform="translate(-58.499 -459.072)"/></g></svg>