<svg xmlns="http://www.w3.org/2000/svg" width="24" height="21.236" viewBox="0 0 24 21.236"><defs><style>.a{fill:#fff;}</style></defs><path class="a" d="M5.835,35.1a2.127,2.127,0,1,0,2.127,2.127A2.129,2.129,0,0,0,5.835,35.1Zm0,3.135a1.009,1.009,0,1,1,1.009-1.009A1.01,1.01,0,0,1,5.835,38.238Zm17.6-15.99H1.151a.581.581,0,0,0-.566.577v8.444a.559.559,0,0,0,1.118,0V25.858l10.121,5.924a.568.568,0,0,0,.563,0l10.495-5.944v12.8H13.45a.559.559,0,1,0,0,1.118h9.985A.591.591,0,0,0,24,39.173V22.825A.58.58,0,0,0,23.435,22.248Zm-.553,2.309-10.767,6.1L1.7,24.563v-1.2H22.882ZM11.319,38.346l-.722-.523a4.852,4.852,0,0,0,0-1.177l.722-.524a.906.906,0,0,0,.316-1.029,3.314,3.314,0,0,0-.389-.984c-.536-.929-1.186-1.335-1.7-1.071L8.73,33.4a4.751,4.751,0,0,0-1.024-.593l-.091-.88c-.028-.583-.7-.944-1.78-.944s-1.749.36-1.78.941l-.092.883A4.749,4.749,0,0,0,2.94,33.4l-.811-.362a.906.906,0,0,0-1.049.241,3.312,3.312,0,0,0-.657.829c-.537.929-.564,1.7-.074,2.012l.723.524a4.841,4.841,0,0,0,0,1.177l-.724.524c-.49.317-.463,1.083.074,2.012a3.313,3.313,0,0,0,.657.829.906.906,0,0,0,1.049.241l.819-.366a4.754,4.754,0,0,0,1.015.586l.093.893c.03.582.707.942,1.78.942s1.752-.361,1.78-.944l.092-.891a4.754,4.754,0,0,0,1.015-.586l.82.366c.519.265,1.169-.141,1.705-1.07S11.811,38.662,11.319,38.346ZM9.444,36.5a3.724,3.724,0,0,1,0,1.459.559.559,0,0,0,.22.563l.877.635a2.545,2.545,0,0,1-.684,1.184L8.863,39.9a.559.559,0,0,0-.6.091,3.655,3.655,0,0,1-1.258.726.559.559,0,0,0-.378.472l-.112,1.081a2.208,2.208,0,0,1-.683.093,2.208,2.208,0,0,1-.684-.094l-.112-1.081a.559.559,0,0,0-.378-.472A3.657,3.657,0,0,1,3.4,39.993a.559.559,0,0,0-.6-.091l-.993.444a2.209,2.209,0,0,1-.423-.545,2.205,2.205,0,0,1-.261-.639l.877-.635a.559.559,0,0,0,.22-.563,3.718,3.718,0,0,1,0-1.459.559.559,0,0,0-.22-.562l-.875-.634a2.207,2.207,0,0,1,.261-.639,2.208,2.208,0,0,1,.423-.545l.985.44a.559.559,0,0,0,.6-.092,3.657,3.657,0,0,1,1.265-.733.559.559,0,0,0,.378-.472L5.151,32.2a2.208,2.208,0,0,1,.684-.094,2.207,2.207,0,0,1,.683.093l.111,1.071a.559.559,0,0,0,.378.472,3.657,3.657,0,0,1,1.265.732.559.559,0,0,0,.6.092l.985-.44a2.544,2.544,0,0,1,.684,1.184l-.875.634A.559.559,0,0,0,9.444,36.5Z" transform="translate(0 -22.248)"/></svg>