<svg xmlns="http://www.w3.org/2000/svg" width="12" height="9.6" viewBox="0 0 12 9.6"><defs><style>.a{fill:none;}.b,.c{stroke:none;}.c{fill:#abb1bb;}</style></defs><g class="a" transform="translate(-3 -6)"><path class="b" d="M13.8,6H4.2A1.2,1.2,0,0,0,3.006,7.2L3,14.4a1.2,1.2,0,0,0,1.2,1.2h9.6A1.2,1.2,0,0,0,15,14.4V7.2A1.2,1.2,0,0,0,13.8,6Zm0,2.4L9,11.4l-4.8-3V7.2l4.8,3,4.8-3Z"/><path class="c" d="M 5.766799926757813 7 L 9 9.020750045776367 L 12.23320007324219 7 L 5.766799926757813 7 M 14 9.454250335693359 L 9.529999732971191 12.2480001449585 L 9 12.57925033569336 L 8.470000267028809 12.2480001449585 L 4.004119873046875 9.456825256347656 L 4 14.39999961853027 C 4 14.50840950012207 4.09158992767334 14.60000038146973 4.199999809265137 14.60000038146973 L 13.80000019073486 14.60000038146973 C 13.90841007232666 14.60000038146973 14 14.50840950012207 14 14.39999961853027 L 14 9.454250335693359 M 4.199999809265137 6 L 13.80000019073486 6 C 14.46000003814697 6 15 6.539999961853027 15 7.199999809265137 L 15 14.39999961853027 C 15 15.0600004196167 14.46000003814697 15.60000038146973 13.80000019073486 15.60000038146973 L 4.199999809265137 15.60000038146973 C 3.539999961853027 15.60000038146973 3 15.0600004196167 3 14.39999961853027 L 3.005999565124512 7.199999809265137 C 3.005999565124512 6.539999961853027 3.539999961853027 6 4.199999809265137 6 Z M 9 10.19999980926514 L 4.199999809265137 7.199999809265137 L 4.199999809265137 8.40000057220459 L 9 11.40000057220459 L 13.80000019073486 8.40000057220459 L 13.80000019073486 7.199999809265137 L 9 10.19999980926514 Z"/></g></svg>