<svg xmlns="http://www.w3.org/2000/svg" width="126" height="163" viewBox="0 0 126 163"><defs><style>.a{fill:#ffbc61;}</style></defs><path class="a" d="M58.813,162.74A48.363,48.363,0,0,1,46.586,69.252L0,0H12.543L57.469,66.576a44.148,44.148,0,0,1,6.219-.421c1.023,0,2.053.028,3.055.105l-.554-.84L56.941,51.2,21.819,0H34.388l28.8,41.525L91.566,0H104L69.112,50.654l4.721,7.185L113.272,0H126L80.129,67.521l1.288,1.967A48.391,48.391,0,0,1,63.689,163,42.707,42.707,0,0,1,58.813,162.74Z"/><path class="a" d="M32,0A32,32,0,1,1,0,32,31.988,31.988,0,0,1,32,0Z" transform="translate(32.333 83)"/></svg>