<svg xmlns="http://www.w3.org/2000/svg" width="45" height="45" viewBox="0 0 45 45"><defs><style>.a{fill:#fef1e1;}.b{fill:#ffb54e;}</style></defs><g transform="translate(0 -9.5)"><rect class="a" width="45" height="45" rx="10" transform="translate(0 9.5)"/><g transform="translate(-66 20.5)"><path class="b" d="M86.375,1.875a10.054,10.054,0,0,0-4.5,1.052V.938A.938.938,0,0,0,80,.938V23.063a.938.938,0,0,0,1.875,0v-1.99a10.126,10.126,0,1,0,4.5-19.2ZM87.313,3.8A8.252,8.252,0,0,1,93,7.092l-1.637.945a6.377,6.377,0,0,0-4.052-2.343ZM81.875,5.085A8.156,8.156,0,0,1,85.438,3.8V5.694a6.363,6.363,0,0,0-3.563,1.795ZM85.438,20.2a8.157,8.157,0,0,1-3.563-1.282v-2.4a6.363,6.363,0,0,0,3.563,1.795ZM81.875,12a4.5,4.5,0,1,1,4.5,4.5A4.505,4.505,0,0,1,81.875,12Zm5.438,8.2V18.306a6.377,6.377,0,0,0,4.052-2.343L93,16.909A8.253,8.253,0,0,1,87.313,20.2ZM92.3,14.341a6.377,6.377,0,0,0,0-4.682l1.637-.945a8.241,8.241,0,0,1,0,6.572Z"/></g></g></svg>