<svg xmlns="http://www.w3.org/2000/svg" width="45" height="45" viewBox="0 0 45 45"><defs><style>.a{fill:#fef1e1;}.b{fill:#f5a436;}</style></defs><g transform="translate(-50 -237)"><rect class="a" width="45" height="45" rx="10" transform="translate(50 237)"/><g transform="translate(60 247)"><g transform="translate(0)"><path class="b" d="M17.231,12.043a12.2,12.2,0,0,0-1.411-.566,6.375,6.375,0,1,0-7.633,0A12.194,12.194,0,0,0,.061,20.566,2.848,2.848,0,0,0,2.845,24H14.391a.938.938,0,1,0,0-1.875H2.845a.953.953,0,0,1-.75-.357.979.979,0,0,1-.2-.821,10.358,10.358,0,0,1,9.855-8.2q.124,0,.249,0t.251,0a10.212,10.212,0,0,1,4.174.991.938.938,0,0,0,.8-1.693Zm-5-1.173-.229,0-.227,0a4.5,4.5,0,1,1,.456,0Z" transform="translate(0 0)"/></g><g transform="translate(15.094 15.094)"><path class="b" d="M329.969,325.516h-2.578v-2.578a.938.938,0,1,0-1.875,0v2.578h-2.578a.938.938,0,1,0,0,1.875h2.578v2.578a.938.938,0,0,0,1.875,0v-2.578h2.578a.938.938,0,0,0,0-1.875Z" transform="translate(-322 -322)"/></g></g></g></svg>