<svg xmlns="http://www.w3.org/2000/svg" width="45" height="45" viewBox="0 0 45 45"><defs><style>.a{fill:#fef1e1;}.b{fill:#ffb248;stroke:#ffb248;}.b,.c{stroke-width:0.3px;}.c{fill:#ffb348;stroke:#ffb348;}</style></defs><g transform="translate(0 -9.5)"><rect class="a" width="45" height="45" rx="10" transform="translate(0 9.5)"/><g transform="translate(11.001 20.5)"><path class="b" d="M22.837,11.612H19.354V3.323L16.03,0H0V24H19.354V21.676h3.484A1.163,1.163,0,0,0,24,20.515V12.773a1.163,1.163,0,0,0-1.161-1.161ZM17.031,3.87V6.193H10.064V2.322h5.419V3.87ZM16.257,3.1V1.321L18.032,3.1Zm2.322,20.128H.774V.774H15.483v.774H9.289V6.967h8.516V3.87h.774v7.742H10.451a1.163,1.163,0,0,0-1.161,1.161v7.742a1.163,1.163,0,0,0,1.161,1.161h8.129Zm4.645-2.71a.388.388,0,0,1-.387.387H10.451a.388.388,0,0,1-.387-.387V12.773a.388.388,0,0,1,.387-.387H22.837a.388.388,0,0,1,.387.387Zm0,0"/><path class="b" d="M37.927,314.832l-1.352,1.608H32v4.845h5.5V316.44h-.026l.976-1.161Zm-1.113,5.76H32.688v-3.461h3.305l-1.607,1.912-.767-.772-.486.489,1.3,1.3,2.386-2.838v3.365Zm0,0" transform="translate(-30.5 -299.599)"/><path class="c" d="M39.51,39.175a1.714,1.714,0,0,0-1.238-1.641L37.121,37.2v-.174a2.387,2.387,0,0,0,1.024-1.958V34.39a2.39,2.39,0,0,0-4.779,0v.683a2.387,2.387,0,0,0,1.024,1.958V37.2l-1.151.329A1.713,1.713,0,0,0,32,39.175v1.018h7.51Zm-5.462-4.1V34.39a1.707,1.707,0,1,1,3.414,0v.683a1.707,1.707,0,0,1-3.414,0Zm2.335,2.3L35.755,38l-.628-.628a2.325,2.325,0,0,0,1.255,0Zm2.445,2.135H32.683v-.336a1.029,1.029,0,0,1,.743-.985l1.206-.344,1.123,1.123,1.123-1.123,1.206.344a1.029,1.029,0,0,1,.743.985Zm0,0" transform="translate(-30.5 -29.904)"/><path class="b" d="M89.85,289.515a.753.753,0,0,0-.42.128l-.881-.661a.746.746,0,0,0,.038-.225.758.758,0,0,0-1.515,0,.75.75,0,0,0,.045.247L85.7,290.136a.743.743,0,0,0-.85.037l-1.089-.726a.74.74,0,0,0,.026-.185.758.758,0,0,0-1.515,0,.741.741,0,0,0,.026.185l-1.089.726a.75.75,0,0,0-.452-.153.758.758,0,1,0,.758.758.741.741,0,0,0-.026-.185l1.089-.726a.744.744,0,0,0,.9,0l1.089.726a.743.743,0,0,0-.026.185.758.758,0,0,0,1.515,0,.75.75,0,0,0-.045-.247l1.414-1.132a.748.748,0,0,0,.818-.012l.881.661a.746.746,0,0,0-.038.225.758.758,0,1,0,.758-.758Zm-9.092,1.515a.253.253,0,1,1,.253-.253A.253.253,0,0,1,80.758,291.031Zm2.273-1.515a.253.253,0,1,1,.253-.253A.253.253,0,0,1,83.031,289.515Zm2.273,1.515a.253.253,0,1,1,.253-.253A.253.253,0,0,1,85.3,291.031Zm2.526-2.02a.253.253,0,1,1,.253-.253A.253.253,0,0,1,87.829,289.01Zm2.02,1.515a.253.253,0,1,1,.253-.253A.253.253,0,0,1,89.85,290.526Zm0,0" transform="translate(-68.801 -273)"/></g></g></svg>