<svg xmlns="http://www.w3.org/2000/svg" width="45" height="45" viewBox="0 0 45 45"><defs><style>.a{fill:#fef1e1;}.b,.c{fill:#ffb248;stroke:#ffb248;}.b{stroke-width:0.5px;}.c{stroke-width:0.4px;}</style></defs><g transform="translate(0 -9.5)"><rect class="a" width="45" height="45" rx="10" transform="translate(0 9.5)"/><g transform="translate(11 19.5)"><path class="b" d="M.8,2.675,1.875,1.6V21.188H.469a.469.469,0,1,0,0,.938H1.875v1.406a.469.469,0,0,0,.938,0V22.126h7.735a.469.469,0,1,0,0-.938H2.813V13.171l4.53-3.419,4.416,2.65a.469.469,0,0,0,.573-.071l3.213-3.213a5.155,5.155,0,1,0-.663-.663L11.928,11.41,7.554,8.786a.469.469,0,0,0-.524.028L2.813,12V1.6L3.887,2.675a.469.469,0,0,0,.663-.663L2.675.137a.469.469,0,0,0-.663,0L.137,2.012A.469.469,0,0,0,.8,2.675ZM14.625,5.156a4.219,4.219,0,1,1,4.219,4.219A4.224,4.224,0,0,1,14.625,5.156Z"/><path class="b" d="M312.691,412.138a.469.469,0,1,0-.663.663l1.075,1.075h-7.634a.469.469,0,0,0,0,.938H313.1l-1.075,1.075a.469.469,0,0,0,.663.663l1.875-1.875a.469.469,0,0,0,0-.663Z" transform="translate(-290.703 -392.688)"/><path class="b" d="M81.406,272.844a.469.469,0,0,0,.469-.469v-.469h.469a.469.469,0,0,0,.469-.469v-4.031a.469.469,0,0,0-.469-.469h-.469v-.469a.469.469,0,1,0-.938,0v.469h-.469a.469.469,0,0,0-.469.469v4.031a.469.469,0,0,0,.469.469h.469v.469A.469.469,0,0,0,81.406,272.844Zm-.469-4.969h.938v3.094h-.938Z" transform="translate(-76.25 -253.531)"/><path class="b" d="M181.406,292.844a.469.469,0,0,0,.469-.469v-.469h.469a.469.469,0,0,0,.469-.469v-4.031a.469.469,0,0,0-.469-.469h-.469v-.469a.469.469,0,1,0-.938,0v.469h-.469a.469.469,0,0,0-.469.469v4.031a.469.469,0,0,0,.469.469h.469v.469A.469.469,0,0,0,181.406,292.844Zm-.469-4.969h.938v3.094h-.938Z" transform="translate(-171.562 -272.593)"/><path class="b" d="M281.406,272.844a.469.469,0,0,0,.469-.469v-.469h.469a.469.469,0,0,0,.469-.469v-4.031a.469.469,0,0,0-.469-.469h-.469v-.469a.469.469,0,1,0-.938,0v.469h-.469a.469.469,0,0,0-.469.469v4.031a.469.469,0,0,0,.469.469h.469v.469A.469.469,0,0,0,281.406,272.844Zm-.469-4.969h.938v3.094h-.938Z" transform="translate(-266.875 -253.531)"/><path class="b" d="M381.406,252.844a.469.469,0,0,0,.469-.469v-.469h.469a.469.469,0,0,0,.469-.469v-4.031a.469.469,0,0,0-.469-.469h-.469v-.469a.469.469,0,0,0-.937,0v.469h-.469a.469.469,0,0,0-.469.469v4.031a.469.469,0,0,0,.469.469h.469v.469A.469.469,0,0,0,381.406,252.844Zm-.469-4.969h.938v3.094h-.937Z" transform="translate(-362.187 -234.468)"/><circle class="b" cx="0.5" cy="0.5" r="0.5" transform="translate(12 21)"/><g transform="translate(16.7 2.773)"><g transform="translate(0)"><path class="c" d="M191.264,99.543a.407.407,0,0,0-.506-.265l-.2.061a.717.717,0,0,1-.542-.049,1.594,1.594,0,0,0-.652-.167,1.849,1.849,0,0,0,.073-.363c0-.008,0-.016,0-.024,0-.057.008-.122.008-.163h.42a.408.408,0,1,0,0-.815h-.469a2.491,2.491,0,0,0-.065-.33,1.974,1.974,0,0,1-.061-.436.585.585,0,0,1,.033-.188.555.555,0,0,1,.1-.155.429.429,0,0,1,.151-.1,0,0,0,0,0,0,0,.559.559,0,0,1,.2-.037c.2,0,.4.041.457.326a.408.408,0,0,0,.8-.167,1.194,1.194,0,0,0-1.256-.979,1.352,1.352,0,0,0-.522.1,1.238,1.238,0,0,0-.42.285l0,0a1.279,1.279,0,0,0-.265.408s0,0,0,.008a1.333,1.333,0,0,0-.094.485,2.943,2.943,0,0,0,.082.628.8.8,0,0,1,.029.143h-.616a.409.409,0,0,0-.408.408.419.419,0,0,0,.416.412h.677s0,.045,0,.069,0,.02,0,.033a.91.91,0,0,1-.183.485l-.151.2a.411.411,0,0,0,.379.648l.563-.065h.008a.572.572,0,0,1,.082,0,.753.753,0,0,1,.326.077,1.533,1.533,0,0,0,1.154.1l.2-.061A.407.407,0,0,0,191.264,99.543Z" transform="translate(-187.542 -95.686)"/></g></g></g></g></svg>