<svg xmlns="http://www.w3.org/2000/svg" width="45" height="45" viewBox="0 0 45 45"><defs><style>.a{fill:#fef1e1;}.b{fill:#f5a436;stroke:#f5a436;stroke-width:0.3px;}</style></defs><g transform="translate(0 -9.5)"><rect class="a" width="45" height="45" rx="10" transform="translate(0 9.5)"/><path class="b" d="M2.49,24.625A.354.354,0,0,0,2.865,25H5.378a.354.354,0,0,0,.375-.375V22.488a.354.354,0,0,0-.375-.375H2.865a.354.354,0,0,0-.375.375Zm.75-1.763H5V24.25H3.24ZM8.153,20.2a.354.354,0,0,0-.375.375v4.05A.354.354,0,0,0,8.153,25h2.512a.354.354,0,0,0,.375-.375v-4.05a.354.354,0,0,0-.375-.375Zm2.137,4.05H8.528v-3.3H10.29Zm5.663-6.825H13.44a.354.354,0,0,0-.375.375v6.825A.354.354,0,0,0,13.44,25h2.512a.354.354,0,0,0,.375-.375V17.8A.376.376,0,0,0,15.953,17.425Zm-.375,6.825H13.815V18.175h1.763Zm3.15-11.775a.354.354,0,0,0-.375.375V24.625a.354.354,0,0,0,.375.375H21.24a.354.354,0,0,0,.375-.375V12.85a.354.354,0,0,0-.375-.375ZM20.865,24.25H19.1V13.225h1.763ZM2.79,19.788a.389.389,0,0,0-.3.45.365.365,0,0,0,.375.3H2.94c5.288-1.125,9.525-6.487,12.563-9.225l.075,1.8a.4.4,0,0,0,.375.375h0a.376.376,0,0,0,.375-.375l-.112-2.437c.15-.263-.037-.562-.412-.562l-2.625.112a.375.375,0,0,0,0,.75L14.79,10.9C11.79,13.713,7.7,18.738,2.79,19.788ZM20,1a.354.354,0,0,0-.375.375V1.9A4.49,4.49,0,0,0,15.54,5.987h-.525a.375.375,0,1,0,0,.75h.525a4.49,4.49,0,0,0,4.088,4.088v.525a.375.375,0,1,0,.75,0v-.525a4.49,4.49,0,0,0,4.088-4.088h.525a.375.375,0,0,0,0-.75h-.525A4.49,4.49,0,0,0,20.378,1.9V1.375A.376.376,0,0,0,20,1Zm0,5.963a.6.6,0,1,1,.6-.6A.592.592,0,0,1,20,6.963Zm-.375-1.875a1.282,1.282,0,0,0-.9.9H17.9a2.151,2.151,0,0,1,1.763-1.762v.862Zm-.938,1.65a1.282,1.282,0,0,0,.9.9V8.5a2.151,2.151,0,0,1-1.762-1.763Zm1.688.9a1.282,1.282,0,0,0,.9-.9H22.1A2.151,2.151,0,0,1,20.34,8.5V7.638Zm.9-1.65a1.282,1.282,0,0,0-.9-.9V4.225A2.151,2.151,0,0,1,22.14,5.987ZM19.628,2.65v.825a2.943,2.943,0,0,0-2.513,2.512H16.29A3.752,3.752,0,0,1,19.628,2.65ZM16.29,6.737h.825A2.943,2.943,0,0,0,19.628,9.25v.825A3.752,3.752,0,0,1,16.29,6.737Zm4.088,3.338V9.25A2.943,2.943,0,0,0,22.89,6.737h.825A3.752,3.752,0,0,1,20.378,10.075Zm3.337-4.088H22.89a2.943,2.943,0,0,0-2.513-2.512V2.65A3.752,3.752,0,0,1,23.715,5.987Z" transform="translate(9.015 19)"/></g></svg>