<svg xmlns="http://www.w3.org/2000/svg" width="45" height="45" viewBox="0 0 45 45"><defs><style>.a{fill:#fef1e1;}.b{fill:none;}.c,.d{stroke:none;}.d{fill:#ffb248;}</style></defs><g transform="translate(0 -9.5)"><rect class="a" width="45" height="45" rx="10" transform="translate(0 9.5)"/><g transform="translate(13 20.5)"><g class="b" transform="translate(-18.435 -10.627)"><path class="c" d="M30.16,17.756H26.378a.378.378,0,1,1,0-.756H30.16a.378.378,0,0,1,0,.756Z"/><path class="d" d="M 30.15964698791504 17.75630378723145 L 26.3781566619873 17.75630378723145 C 26.1693058013916 17.75630378723145 25.99999618530273 17.58700370788574 25.99999618530273 17.37815284729004 C 25.99999618530273 17.16930198669434 26.1693058013916 17.00000190734863 26.3781566619873 17.00000190734863 L 30.15964698791504 17.00000190734863 C 30.36848640441895 17.00000190734863 30.53779602050781 17.16930198669434 30.53779602050781 17.37815284729004 C 30.53779602050781 17.58700370788574 30.36848640441895 17.75630378723145 30.15964698791504 17.75630378723145 Z"/></g><g class="b" transform="translate(-15.779)"><path class="c" d="M21.727,0l1.708,6.05h4.341l2-6.05Zm5.378,2.388-.968,2.906h-1.05l-.968-2.906a.379.379,0,1,1,.718-.239l.775,2.328.776-2.327a.379.379,0,1,1,.718.239Z"/><path class="d" d="M 21.72700119018555 3.337860107421875e-06 L 29.77780151367188 3.337860107421875e-06 L 27.77587127685547 6.050383567810059 L 23.43472099304199 6.050383567810059 L 21.72700119018555 3.337860107421875e-06 Z M 25.61173057556152 4.47653341293335 L 24.83690071105957 2.149023532867432 C 24.78403091430664 1.990322113037109 24.63627052307129 1.889943599700928 24.47771453857422 1.889947891235352 C 24.43804359436035 1.889948844909668 24.39768600463867 1.896234512329102 24.35798072814941 1.909463405609131 C 24.15957069396973 1.975563526153564 24.05232048034668 2.189983367919922 24.11842155456543 2.388393402099609 L 25.08685111999512 5.294083595275879 L 26.1365909576416 5.294083595275879 L 27.10503196716309 2.388393402099609 L 27.10579109191895 2.388763427734375 C 27.1718921661377 2.19036340713501 27.06464195251465 1.975943565368652 26.86624145507813 1.909843444824219 C 26.8265209197998 1.896610736846924 26.78618431091309 1.89032506942749 26.74649810791016 1.890327930450439 C 26.58794975280762 1.890338897705078 26.44017791748047 1.990714073181152 26.3873119354248 2.14940333366394 L 25.61173057556152 4.47653341293335 Z"/></g><g class="b" transform="translate(-5.775 -12.437)"><path class="c" d="M25.345,32.225l-2.792-9.7A3.373,3.373,0,0,0,19.284,20H11.925a3.373,3.373,0,0,0-3.263,2.506L5.872,32.233a3.184,3.184,0,0,0,.6,2.77,3.7,3.7,0,0,0,2.9,1.434H21.8a3.752,3.752,0,0,0,2.933-1.455A3.174,3.174,0,0,0,25.345,32.225Zm-13.1-10.447.259-1.031h.772l-.3,1.21a.375.375,0,1,1-.727-.179Zm5.239,10.749H14.109a.6.6,0,0,1-.562-.275c-.188-.32.019-.679.237-1.059a6.01,6.01,0,0,0,.326-.71v-.571H12.984a.374.374,0,1,1,0-.747h1.125V27.3a1.123,1.123,0,0,1,1.125-1.121h.75A1.123,1.123,0,0,1,17.109,27.3v.374a.375.375,0,0,1-.75,0V27.3a.374.374,0,0,0-.375-.374h-.75a.374.374,0,0,0-.375.374v1.868h1.5a.374.374,0,1,1,0,.747h-1.5v.57a1.123,1.123,0,0,1-.119.5s-.387.721-.426.8h3.17a.374.374,0,1,1,0,.747ZM18.7,22.23a.375.375,0,0,1-.454-.273l-.3-1.21h.772l.259,1.031A.373.373,0,0,1,18.7,22.23Z"/><path class="d" d="M 21.79312705993652 35.13702774047852 C 22.54799461364746 35.12821197509766 23.24441146850586 34.78210067749023 23.70463562011719 34.18682861328125 L 23.71290588378906 34.1761474609375 L 23.72138595581055 34.1656379699707 C 24.08346366882324 33.71689224243164 24.21973419189453 33.11743927001953 24.08778953552246 32.55799102783203 L 21.30390548706055 22.88176727294922 L 21.29909515380859 22.86505699157715 L 21.29473495483398 22.84821701049805 C 21.14484214782715 22.26936721801758 20.7569637298584 21.80139350891113 20.25101661682129 21.53687858581543 C 20.33468627929688 21.9493236541748 20.26148223876953 22.37177658081055 20.04207611083984 22.73405647277832 C 19.8108959197998 23.11577796936035 19.44485664367676 23.38501739501953 19.00961494445801 23.49263763427734 C 18.87859535217285 23.52483749389648 18.743896484375 23.54116630554199 18.60925483703613 23.54116630554199 C 17.83865547180176 23.54116630554199 17.17040634155273 23.01919746398926 16.98470497131348 22.2739372253418 L 16.74028968811035 21.30000686645508 L 14.47842121124268 21.30000686645508 L 14.23825740814209 22.25699615478516 C 14.10372161865234 22.84180641174316 13.66662788391113 23.31014442443848 13.08991527557373 23.48405647277832 C 12.93281555175781 23.53143692016602 12.76996612548828 23.55546760559082 12.60590553283691 23.55546760559082 C 12.16339588165283 23.55546760559082 11.74604606628418 23.38464736938477 11.43075561523438 23.07449722290039 C 11.02074718475342 22.67119407653809 10.84872436523438 22.09017372131348 10.96751594543457 21.53357696533203 C 10.46134090423584 21.79610252380371 10.0716495513916 22.26194000244141 9.91933536529541 22.83837699890137 L 9.915835380554199 22.85161781311035 L 9.912065505981445 22.86478614807129 L 7.127810001373291 32.56914138793945 C 6.99165153503418 33.13225173950195 7.126206874847412 33.73709106445313 7.48943567276001 34.19063568115234 L 7.496455669403076 34.19940567016602 L 7.503325939178467 34.20829772949219 C 7.954198360443115 34.79167556762695 8.636696815490723 35.13000106811523 9.376470565795898 35.13700866699219 L 21.79312705993652 35.13702774047852 M 12.37219619750977 31.09632301330566 C 11.7504415512085 30.85160255432129 11.30935573577881 30.24555587768555 11.30935573577881 29.53846740722656 C 11.30935573577881 28.67468452453613 11.96767234802246 27.96164894104004 12.80935573577881 27.87396430969238 L 12.80935573577881 27.29705619812012 C 12.80935573577881 25.96227645874023 13.8972053527832 24.87634658813477 15.23435592651367 24.87634658813477 L 15.98435592651367 24.87634658813477 C 17.32150650024414 24.87634658813477 18.40935516357422 25.96227645874023 18.40935516357422 27.29705619812012 L 18.40935516357422 27.67062759399414 C 18.40935516357422 28.14278984069824 18.21267700195313 28.56987762451172 17.8968334197998 28.87443923950195 C 17.98527145385742 29.07809829711914 18.03434562683105 29.30269622802734 18.03434562683105 29.53846740722656 C 18.03434562683105 29.89516639709473 17.92210960388184 30.22611427307129 17.73102760314941 30.49798011779785 C 18.53812217712402 30.61748504638672 19.15935516357422 31.31433486938477 19.15935516357422 32.15344619750977 C 19.15935516357422 33.07625579833984 18.40795516967773 33.82701873779297 17.48435592651367 33.82701873779297 L 14.15408420562744 33.82701873779297 C 14.11999702453613 33.82884979248047 14.08584880828857 33.82977676391602 14.05196571350098 33.82977676391602 C 13.39734554290771 33.82983779907227 12.79778575897217 33.49979782104492 12.44813537597656 32.94690704345703 L 12.43628597259521 32.92818832397461 L 12.4250955581665 32.90906524658203 C 12.02963066101074 32.23384475708008 12.16120052337646 31.5899772644043 12.37219619750977 31.09632301330566 M 21.79985618591309 36.43702697753906 L 9.371225357055664 36.43700790405273 C 8.235745429992676 36.42836761474609 7.167445659637451 35.89956665039063 6.474725723266602 35.00326538085938 C 5.850845813751221 34.22424697875977 5.627825736999512 33.19973754882813 5.871725559234619 32.23325729370117 L 8.6624755859375 22.50626754760742 C 9.052605628967285 21.02982711791992 10.39238548278809 20.00059700012207 11.92497539520264 20.00000762939453 L 19.28435516357422 20.00000762939453 C 19.28473091125488 20.00000762939453 19.28487014770508 20.00000762939453 19.28524589538574 20.00000762939453 C 20.82436370849609 20.00000762939453 22.16876029968262 21.03759002685547 22.55322647094727 22.52233695983887 L 25.3447265625 32.22503662109375 C 25.58356666564941 33.18874740600586 25.35738563537598 34.20828628540039 24.73310661315918 34.98197555541992 C 24.03130531311035 35.88970565795898 22.9499454498291 36.42612838745117 21.79985618591309 36.43702697753906 Z M 12.98435592651367 29.16489791870117 C 12.77724552154541 29.16489791870117 12.60935592651367 29.33215713500977 12.60935592651367 29.53846740722656 C 12.60935592651367 29.74478721618652 12.77724552154541 29.91203689575195 12.98435592651367 29.91203689575195 L 14.11010551452637 29.91203689575195 L 14.11010551452637 30.48284721374512 C 14.01700592041016 30.7262077331543 13.90814590454102 30.96330642700195 13.78422546386719 31.192626953125 C 13.5659761428833 31.57292747497559 13.35935592651367 31.93192672729492 13.54685592651367 32.25206756591797 C 13.65682697296143 32.42596054077148 13.84816837310791 32.52979278564453 14.05183124542236 32.52978134155273 C 14.07090473175049 32.52978134155273 14.09012317657471 32.52886581420898 14.10935592651367 32.52701568603516 L 17.48435592651367 32.52701568603516 C 17.69145584106445 32.52701568603516 17.85935592651367 32.35976791381836 17.85935592651367 32.15344619750977 C 17.85935592651367 31.9471378326416 17.69145584106445 31.77987670898438 17.48435592651367 31.77987670898438 L 14.31447601318359 31.77987670898438 C 14.35347557067871 31.70516777038574 14.7408561706543 30.98380661010742 14.7408561706543 30.98380661010742 C 14.81869602203369 30.82805633544922 14.85924530029297 30.65645790100098 14.85935592651367 30.48247718811035 L 14.85935592651367 29.91203689575195 L 16.35934638977051 29.91203689575195 C 16.56645584106445 29.91203689575195 16.73434638977051 29.74478721618652 16.73434638977051 29.53846740722656 C 16.73434638977051 29.33215713500977 16.56645584106445 29.16489791870117 16.35934638977051 29.16489791870117 L 14.85935592651367 29.16489791870117 L 14.85935592651367 27.29705619812012 C 14.85935592651367 27.09074783325195 15.02724552154541 26.92348670959473 15.23435592651367 26.92348670959473 L 15.98435592651367 26.92348670959473 C 16.19145584106445 26.92348670959473 16.35934638977051 27.09074783325195 16.35934638977051 27.29705619812012 L 16.35934638977051 27.67062759399414 C 16.35934638977051 27.87693786621094 16.52724647521973 28.04419708251953 16.73434638977051 28.04419708251953 C 16.94145584106445 28.04419708251953 17.10935592651367 27.87693786621094 17.10935592651367 27.67062759399414 L 17.10935592651367 27.29705619812012 C 17.10935592651367 26.6781177520752 16.60567665100098 26.17634773254395 15.98435592651367 26.17634773254395 L 15.23435592651367 26.17634773254395 C 14.61303615570068 26.17634773254395 14.10935592651367 26.6781177520752 14.10935592651367 27.29705619812012 L 14.10935592651367 29.16489791870117 L 12.98435592651367 29.16489791870117 Z M 12.50435543060303 20.74714660644531 L 12.24560546875 21.7781867980957 C 12.20744609832764 21.90972709655762 12.24458599090576 22.0515079498291 12.34238529205322 22.14770698547363 C 12.41361045837402 22.21776580810547 12.50868225097656 22.25546836853027 12.60590744018555 22.25546836853027 C 12.64218330383301 22.25546836853027 12.67877292633057 22.25021743774414 12.71451568603516 22.23943710327148 C 12.84606552124023 22.19976615905762 12.94528579711914 22.09158706665039 12.97310543060303 21.95750617980957 L 13.27685546875 20.74714660644531 L 12.50435543060303 20.74714660644531 Z M 17.94185638427734 20.74714660644531 L 18.24560546875 21.95750617980957 C 18.28796577453613 22.12750625610352 18.44096183776855 22.24116516113281 18.60925674438477 22.24116516113281 C 18.63897514343262 22.24116516113281 18.66919898986816 22.23761558532715 18.6993465423584 22.2302074432373 C 18.900146484375 22.18055725097656 19.02264595031738 21.97828674316406 18.97310638427734 21.7781867980957 L 18.71435546875 20.74714660644531 L 17.94185638427734 20.74714660644531 Z"/></g></g></g></svg>