<svg xmlns="http://www.w3.org/2000/svg" width="45" height="45" viewBox="0 0 45 45"><defs><style>.a{fill:#fef1e1;}.b{fill:#ffb248;stroke:#ffb248;stroke-width:0.5px;}</style></defs><g transform="translate(-60 -206)"><g transform="translate(60 196.5)"><rect class="a" width="45" height="45" rx="10" transform="translate(0 9.5)"/></g><g transform="translate(71 217)"><path class="b" d="M23.6,0H0V.8H2.4V2h.8V.8H5.6V2h.8V.8H8.8V2h.8V.8H12V2h.8V.8h2.4V2H16V.8h2.8V2h.8V.8h3.6V4.4H22v.8h1.2V7.6H22v.8h1.2v2.4H22v.8h1.2V14H22v.8h1.2v2.4H22V18h1.2v2.8H22v.8h1.2V24H24V.4A.4.4,0,0,0,23.6,0Z"/><g transform="translate(0.524 4.8)"><path class="b" d="M30.109,96.029a.4.4,0,0,0-.3,0l-4,1.6a.4.4,0,0,0-.134.654l.917.917-4.615,4.615-2.519-2.878a.4.4,0,0,0-.564-.038l-.013.011-8.4,8,.552.579,8.1-7.712,2.525,2.886a.4.4,0,0,0,.288.136.391.391,0,0,0,.3-.117l4.917-4.917.917.917a.4.4,0,0,0,.654-.134l1.6-4A.4.4,0,0,0,30.109,96.029Zm-1.894,3.66-1.542-1.542,2.57-1.028Z" transform="translate(-10.485 -96)"/></g><g transform="translate(6 14.8)"><path class="b" d="M122,297.2h-.4V296h-.8v1.2h-.4a.4.4,0,0,0-.4.4v3.6a.4.4,0,0,0,.4.4h.4v1.2h.8v-1.2h.4a.4.4,0,0,0,.4-.4v-3.6A.4.4,0,0,0,122,297.2Zm-.4,3.6h-.8V298h.8Z" transform="translate(-120 -296)"/></g><g transform="translate(10.8 16)"><path class="b" d="M218,321.2h-.4V320h-.8v1.2h-.4a.4.4,0,0,0-.4.4v2.8a.4.4,0,0,0,.4.4h.4v1.6h.8v-1.6h.4a.4.4,0,0,0,.4-.4v-2.8A.4.4,0,0,0,218,321.2Zm-.4,2.8h-.8v-2h.8Z" transform="translate(-216 -320)"/></g><g transform="translate(15.2 13.2)"><path class="b" d="M306,264.8h-.4V264h-.8v.8h-.4a.4.4,0,0,0-.4.4v2.4a.4.4,0,0,0,.4.4h.4v1.6h.8V268h.4a.4.4,0,0,0,.4-.4v-2.4A.4.4,0,0,0,306,264.8Zm-.4,2.4h-.8v-1.6h.8Z" transform="translate(-304 -264)"/></g></g></g></svg>