<svg xmlns="http://www.w3.org/2000/svg" width="45" height="45" viewBox="0 0 45 45"><defs><style>.a{fill:#fef1e1;}.b{fill:#ffb248;stroke:#ffb248;stroke-width:0.5px;}</style></defs><g transform="translate(0 -9.5)"><rect class="a" width="45" height="45" rx="10" transform="translate(0 9.5)"/><g transform="translate(11 20.5)"><path class="b" d="M12,0A12,12,0,1,0,24,12,12.01,12.01,0,0,0,12,0Zm0,22.789A10.789,10.789,0,1,1,22.789,12,10.808,10.808,0,0,1,12,22.789Z"/><g transform="translate(7.422 7.366)"><path class="b" d="M111.432,109.778l3.555-3.555a.6.6,0,1,0-.853-.853l-3.555,3.555-3.555-3.555a.6.6,0,1,0-.853.853l3.555,3.555-3.555,3.526a.619.619,0,0,0,0,.853.619.619,0,0,0,.853,0l3.555-3.555,3.555,3.555a.619.619,0,0,0,.853,0,.619.619,0,0,0,0-.853Z" transform="translate(-106 -105.2)"/></g></g></g></svg>