<svg xmlns="http://www.w3.org/2000/svg" width="36" height="36" viewBox="0 0 36 36"><defs><style>.a{fill:#e5f4ff;}.b{fill:#0097ff;}</style></defs><g transform="translate(-881 -24)"><rect class="a" width="36" height="36" rx="10" transform="translate(881 24)"/><g transform="translate(892 36.999)"><path class="b" d="M13.417,123.835H.583a.583.583,0,1,1,0-1.167H13.417a.583.583,0,1,1,0,1.167Zm0,0" transform="translate(0 -118.196)"/><path class="b" d="M13.417,1.167H.583A.583.583,0,0,1,.583,0H13.417a.583.583,0,0,1,0,1.167Zm0,0"/><path class="b" d="M13.417,246.5H.583a.583.583,0,0,1,0-1.167H13.417a.583.583,0,0,1,0,1.167Zm0,0" transform="translate(0 -236.387)"/></g></g></svg>