<svg xmlns="http://www.w3.org/2000/svg" width="24" height="24" viewBox="0 0 24 24"><defs><style>.a{fill:#fff;}</style></defs><g transform="translate(-1 -1)"><path class="a" d="M23.065,14.935A1.938,1.938,0,0,0,25,13V2.935A1.938,1.938,0,0,0,23.065,1H7.581A1.938,1.938,0,0,0,5.645,2.935V4.871a.775.775,0,0,0-.774.774v.067A4.616,4.616,0,0,0,1,10.29a1.666,1.666,0,0,0,.477,1.176.927.927,0,0,1,0,1.36,1.69,1.69,0,0,0,0,2.353.931.931,0,0,1,0,1.364,1.692,1.692,0,0,0,0,2.354.926.926,0,0,1,.3.682,1.881,1.881,0,0,0,1.161,1.886V25h12a1.547,1.547,0,0,0,1.493-1.161h7.41a1.161,1.161,0,1,0,0-2.323h-.774a.387.387,0,0,1-.387-.387V14.935Zm-16.645-12A1.163,1.163,0,0,1,7.581,1.774H23.065a1.163,1.163,0,0,1,1.161,1.161V13a1.163,1.163,0,0,1-1.161,1.161H13.682a1.558,1.558,0,0,0-1.457-.774,1.558,1.558,0,0,0-1.457.774h-.543c.036-.046.074-.091.106-.14a2.049,2.049,0,0,0,.345-1.139v-.45l1.161-.774v-.207a6.906,6.906,0,0,0-1.03-2.944h0A1.929,1.929,0,1,0,8.365,5.645h-.4V3.323h14.71v7.742H12.613v.774H22.677a.775.775,0,0,0,.774-.774V3.323a.775.775,0,0,0-.774-.774H7.968a.775.775,0,0,0-.774.774V5.645a.775.775,0,0,0-.774-.774Zm.317,19.742a1.163,1.163,0,0,1-1.094-.77L5.6,21.779l1.737-.868a.763.763,0,0,0,.526.218h3.979a1.938,1.938,0,0,1,1.9,1.548ZM4.871,16.1A1.161,1.161,0,1,1,3.71,17.258,1.163,1.163,0,0,1,4.871,16.1Zm0,3.1A1.927,1.927,0,0,0,6.4,18.429L7,20.214l-1.662.831-.669-1.872a1.891,1.891,0,0,0,.2.021ZM7.86,20.355,6.8,17.168A1.928,1.928,0,0,0,5.9,15.627l.44-.22.143.143a3.167,3.167,0,0,0,2.146.933l.719.431a1.946,1.946,0,0,1,.94,1.66v1.782ZM6.419,9.9a1.161,1.161,0,1,1-1.161,1.161A1.163,1.163,0,0,1,6.419,9.9Zm.774-3.484h.813a1.934,1.934,0,0,0-.039.387v.387h.774V6.806A1.161,1.161,0,1,1,9.9,7.968H7.643a1.526,1.526,0,0,0-.45.075Zm0,2.469a.776.776,0,0,1,.45-.146h2.413l.071.132a7.286,7.286,0,0,1,.927,2.377L9.9,12.019v.864a1.279,1.279,0,0,1-1.279,1.279h-.27a1.549,1.549,0,0,1-1.509-1.212,1.932,1.932,0,0,0,.348-3.656Zm3.576,6.048a1.427,1.427,0,0,0,1.07.735v.814H10.075a2.648,2.648,0,0,0-.326-.234l-.62-.372v-.942Zm1.457,0c-.473,0-.774-.229-.774-.387s.3-.387.774-.387.774.229.774.387S12.7,14.935,12.226,14.935Zm-3.871.741A2.4,2.4,0,0,1,7.033,15l-.227-.227v-.436a2.311,2.311,0,0,0,1.548.6Zm2.365,1.582h8.474a1.163,1.163,0,0,1,1.161,1.161.387.387,0,0,1-.387.387h-8.9v-.233A2.709,2.709,0,0,0,10.72,17.258Zm1.893-.774V15.67a1.428,1.428,0,0,0,1.07-.735h4.35v1.548ZM6.419,5.645V9.129a1.916,1.916,0,0,0-.774.164V5.645ZM2.548,19.581A1.669,1.669,0,0,0,2.071,18.4a.931.931,0,0,1,0-1.365,1.691,1.691,0,0,0,0-2.354.928.928,0,0,1,0-1.362,1.689,1.689,0,0,0,0-2.353.922.922,0,0,1-.3-.68A3.846,3.846,0,0,1,4.871,6.5V9.915a1.918,1.918,0,0,0-.387,1.149,1.939,1.939,0,0,0,1.548,1.9V14.7l-1.276.638a1.933,1.933,0,0,0-1.821,1.924v3.353a1.506,1.506,0,0,1-.387-1.03ZM3.71,18.8h0l1.2,3.371a1.939,1.939,0,0,0,1.823,1.284h4.328a1.532,1.532,0,0,0,.215.774H3.71Zm11.226,5.429H12.613a.775.775,0,0,1-.774-.774h2.71v-.387a2.72,2.72,0,0,0-.031-.387h.418a.774.774,0,1,1,0,1.548Zm8.129-1.935h.774a.387.387,0,0,1,0,.774h-7.41A1.547,1.547,0,0,0,14.935,21.9h-.652a2.71,2.71,0,0,0-2.445-1.548h-.774v-.774h8.9a1.163,1.163,0,0,0,1.161-1.161,1.938,1.938,0,0,0-1.935-1.935h-.387V14.935h3.1v6.194A1.163,1.163,0,0,0,23.065,22.29Z"/><path class="a" d="M49,31h.774v.774H49Z" transform="translate(-29.419 -18.387)"/><path class="a" d="M53,31h.774v.774H53Z" transform="translate(-31.871 -18.387)"/><path class="a" d="M57,31h.774v.774H57Z" transform="translate(-34.323 -18.387)"/><ellipse class="a" cx="0.5" rx="0.5" transform="translate(9 10)"/><path class="a" d="M32,9h7.742v.774H32Z" transform="translate(-19 -4.903)"/><path class="a" d="M32,17h7.742v.774H32Z" transform="translate(-19 -10.581)"/><path class="a" d="M32,21h7.742v.774H32Z" transform="translate(-19 -12.258)"/></g></svg>