<svg xmlns="http://www.w3.org/2000/svg" width="18" height="18" viewBox="0 0 18 18"><defs><style>.a{fill:#acb2c4;}</style></defs><g transform="translate(-1 -1)"><path class="a" d="M17.548,11.452A1.453,1.453,0,0,0,19,10V2.452A1.453,1.453,0,0,0,17.548,1H5.935A1.453,1.453,0,0,0,4.484,2.452V3.9a.581.581,0,0,0-.581.581v.051A3.462,3.462,0,0,0,1,7.968a1.25,1.25,0,0,0,.358.882.695.695,0,0,1,0,1.02,1.267,1.267,0,0,0,0,1.765.7.7,0,0,1,0,1.023,1.269,1.269,0,0,0,0,1.766.694.694,0,0,1,.223.512,1.411,1.411,0,0,0,.871,1.415V19h9a1.16,1.16,0,0,0,1.12-.871h5.557a.871.871,0,0,0,0-1.742h-.581a.291.291,0,0,1-.29-.29V11.452Zm-12.484-9a.872.872,0,0,1,.871-.871H17.548a.872.872,0,0,1,.871.871V10a.872.872,0,0,1-.871.871H10.512a1.168,1.168,0,0,0-1.092-.581,1.168,1.168,0,0,0-1.092.581H7.92c.027-.034.055-.068.08-.1a1.537,1.537,0,0,0,.258-.854V9.575l.871-.581V8.839a5.179,5.179,0,0,0-.772-2.208h0A1.447,1.447,0,1,0,6.524,4.484h-.3V2.742H17.258V8.548H9.71v.581h7.548a.581.581,0,0,0,.581-.581V2.742a.581.581,0,0,0-.581-.581H6.226a.581.581,0,0,0-.581.581V4.484A.581.581,0,0,0,5.065,3.9ZM5.3,17.258a.873.873,0,0,1-.82-.578l-.034-.1,1.3-.651a.573.573,0,0,0,.394.163H9.129a1.454,1.454,0,0,1,1.422,1.161ZM3.9,12.323a.871.871,0,1,1-.871.871A.872.872,0,0,1,3.9,12.323Zm0,2.323a1.445,1.445,0,0,0,1.148-.573L5.5,15.41l-1.246.623-.5-1.4a1.418,1.418,0,0,0,.154.016Zm2.242.871-.8-2.39a1.446,1.446,0,0,0-.671-1.156l.33-.165.107.107a2.375,2.375,0,0,0,1.609.7l.539.323a1.46,1.46,0,0,1,.7,1.245v1.336ZM5.065,7.677a.871.871,0,1,1-.871.871A.872.872,0,0,1,5.065,7.677Zm.581-2.613h.61a1.45,1.45,0,0,0-.029.29v.29h.581v-.29a.871.871,0,1,1,.871.871H5.983a1.145,1.145,0,0,0-.337.057Zm0,1.851a.582.582,0,0,1,.337-.109h1.81l.053.1a5.464,5.464,0,0,1,.7,1.783l-.863.575v.648a.959.959,0,0,1-.959.959h-.2a1.162,1.162,0,0,1-1.132-.909A1.449,1.449,0,0,0,5.645,7.22Zm2.682,4.536a1.07,1.07,0,0,0,.8.551v.61H7.807a1.986,1.986,0,0,0-.245-.176L7.1,12.158v-.707Zm1.092,0c-.354,0-.581-.172-.581-.29s.226-.29.581-.29.581.172.581.29S9.774,11.452,9.419,11.452Zm-2.9.556a1.8,1.8,0,0,1-.991-.506l-.17-.17V11a1.733,1.733,0,0,0,1.161.447ZM8.29,13.194h6.355a.872.872,0,0,1,.871.871.291.291,0,0,1-.29.29H8.548V14.18A2.032,2.032,0,0,0,8.29,13.194Zm1.42-.581V12a1.071,1.071,0,0,0,.8-.551h3.262v1.161ZM5.065,4.484V7.1a1.437,1.437,0,0,0-.581.123V4.484Zm-2.9,10.452a1.251,1.251,0,0,0-.358-.883.7.7,0,0,1,0-1.023,1.268,1.268,0,0,0,0-1.765.7.7,0,0,1,0-1.021,1.267,1.267,0,0,0,0-1.765.692.692,0,0,1-.223-.51A2.885,2.885,0,0,1,3.9,5.124V7.686a1.438,1.438,0,0,0-.29.862A1.454,1.454,0,0,0,4.774,9.971v1.3l-.957.478a1.45,1.45,0,0,0-1.366,1.443v2.514a1.129,1.129,0,0,1-.29-.773Zm.871-.588h0l.9,2.528a1.455,1.455,0,0,0,1.367.963H8.548a1.149,1.149,0,0,0,.161.581H3.032Zm8.419,4.072H9.71a.581.581,0,0,1-.581-.581h2.032v-.29a2.04,2.04,0,0,0-.023-.29h.314a.581.581,0,1,1,0,1.161Zm6.1-1.452h.581a.29.29,0,0,1,0,.581H12.572a1.16,1.16,0,0,0-1.12-.871h-.489a2.033,2.033,0,0,0-1.833-1.161H8.548v-.581h6.677a.872.872,0,0,0,.871-.871,1.453,1.453,0,0,0-1.452-1.452h-.29V11.452h2.323V16.1A.872.872,0,0,0,17.548,16.968Z"/><path class="a" d="M49,31h.581v.581H49Z" transform="translate(-34.065 -21.29)"/><path class="a" d="M53,31h.581v.581H53Z" transform="translate(-36.903 -21.29)"/><path class="a" d="M57,31h.581v.581H57Z" transform="translate(-39.742 -21.29)"/><ellipse class="a" cx="0.5" rx="0.5" transform="translate(7 8)"/><path class="a" d="M32,9h5.806v.581H32Z" transform="translate(-22 -5.677)"/><path class="a" d="M32,17h5.806v.581H32Z" transform="translate(-22 -11.935)"/><path class="a" d="M32,21h5.806v.581H32Z" transform="translate(-22 -14.194)"/></g></svg>