<svg xmlns="http://www.w3.org/2000/svg" width="20.714" height="19.4" viewBox="0 0 20.714 19.4"><defs><style>.a{fill:#ffa177;stroke:#ffa177;stroke-width:0.7px;}</style></defs><g transform="translate(0.35 0.35)"><path class="a" d="M31.2,72.532a.622.622,0,0,0-.579-.38H30.3a3.262,3.262,0,0,0-1.559.4L26.39,73.834h-.671a1.847,1.847,0,0,0-1.826-1.488H19.654a.336.336,0,0,0-.254.115l-1.284,1.487a.333.333,0,0,0-.25-.114H11.582a.324.324,0,1,0,0,.648h4.053v4.644H11.582a.324.324,0,1,0,0,.648h6.284a.328.328,0,0,0,.332-.324V77.9l6.766-.3a.08.08,0,0,0,.019,0,4.828,4.828,0,0,0,2.826-1.3l3.253-3.1A.6.6,0,0,0,31.2,72.532ZM17.535,79.127H16.3V74.482h1.236Zm9.811-3.294a4.155,4.155,0,0,1-2.423,1.114l-6.725.3V74.859l1.611-1.865h4.084a1.188,1.188,0,0,1,1.164.917l-3.362.806a.325.325,0,0,0-.25.353.329.329,0,0,0,.329.285.334.334,0,0,0,.079-.009l3.6-.864h1.02a.339.339,0,0,0,.162-.041l2.429-1.327A2.582,2.582,0,0,1,30.3,72.8h.227Z" transform="translate(-11.25 -61.075)"/><path class="a" d="M61.183,24.287a4.8,4.8,0,1,0-4.8-4.8,4.8,4.8,0,0,0,4.8,4.8Zm0-8.957a4.155,4.155,0,1,1-4.155,4.155A4.155,4.155,0,0,1,61.183,15.33Z" transform="translate(-47.558 -14.682)"/><path class="a" d="M70.082,28.161h.647a1.56,1.56,0,0,1-.29.543l-.509.614a.324.324,0,0,0,.249.531h3.464a.324.324,0,0,0,0-.648H70.868l.069-.084a2.206,2.206,0,0,0,.458-.957h1.337a.324.324,0,1,0,0-.648H71.444V26.321a.893.893,0,0,1,.893-.893h.09a.894.894,0,0,1,.892.893.324.324,0,1,0,.648,0,1.542,1.542,0,0,0-1.541-1.541h-.09A1.543,1.543,0,0,0,70.8,26.321v1.192h-.714a.324.324,0,0,0,0,.648Z" transform="translate(-58.595 -22.91)"/></g></svg>