<svg xmlns="http://www.w3.org/2000/svg" width="43" height="43" viewBox="0 0 43 43"><defs><style>.a{fill:#faf0ee;}.b{fill:#f46a6a;}</style></defs><path class="a" d="M0,0H39a4,4,0,0,1,4,4V39a4,4,0,0,1-4,4H0a0,0,0,0,1,0,0V0A0,0,0,0,1,0,0Z"/><path class="b" d="M6.125,3.719V0H.656A.655.655,0,0,0,0,.656V13.344A.655.655,0,0,0,.656,14H9.844a.655.655,0,0,0,.656-.656V4.375H6.781A.658.658,0,0,1,6.125,3.719ZM8.215,9.5,5.579,12.115a.466.466,0,0,1-.657,0L2.285,9.5a.437.437,0,0,1,.308-.748H4.375V6.563a.437.437,0,0,1,.438-.437h.875a.437.437,0,0,1,.438.438V8.75H7.907A.438.438,0,0,1,8.215,9.5Zm2.093-6.627L7.632.191A.656.656,0,0,0,7.167,0H7V3.5h3.5V3.333A.654.654,0,0,0,10.309,2.871Z" transform="translate(18.143 14)"/></svg>