<svg xmlns="http://www.w3.org/2000/svg" width="67.571" height="88" viewBox="0 0 67.571 88"><defs><style>.a{opacity:0.6;}.b{fill:#e9e9e0;}.c{fill:#d9d7ca;}.d{fill:#cc4b4c;}.e{fill:#fff;}</style></defs><g class="a" transform="translate(-6.5)"><path class="b" d="M54.405,0H8.8C7.529,0,6.5,1.029,6.5,3.027v83.4A2.367,2.367,0,0,0,8.8,88H71.772a2.367,2.367,0,0,0,2.3-1.571V20.394c0-1.094-.146-1.446-.4-1.705L55.382.4A1.389,1.389,0,0,0,54.405,0Z"/><path class="c" d="M37.5.151v18.62H56.12Z" transform="translate(17.714 0.086)"/><path class="d" d="M20.712,48.419h0a2.523,2.523,0,0,1-1.52-.512,3.766,3.766,0,0,1-1.752-3.523c.286-2.558,3.449-5.236,9.405-7.964A105.484,105.484,0,0,0,32.8,19.527c-1.568-3.413-3.093-7.841-1.982-10.439A3.014,3.014,0,0,1,32.6,7.178a7.715,7.715,0,0,1,1.6-.27c.792,0,1.488,1.02,1.982,1.648.464.591,1.515,1.843-.586,10.689a50.214,50.214,0,0,0,8,11.883,30.572,30.572,0,0,1,5.277-.563c2.461,0,3.952.574,4.56,1.755.5.977.3,2.12-.613,3.394a4.176,4.176,0,0,1-3.489,1.872c-1.911,0-4.136-1.207-6.617-3.591a75.3,75.3,0,0,0-13.873,4.435,44.587,44.587,0,0,1-3.745,6.68C23.476,47.366,22.087,48.419,20.712,48.419Zm4.183-8.055c-3.358,1.887-4.727,3.438-4.826,4.312-.016.145-.058.525.677,1.087C20.98,45.689,22.347,45.065,24.895,40.364Zm21.43-6.98c1.281.985,1.593,1.483,2.431,1.483a2.369,2.369,0,0,0,1.9-.693,2.487,2.487,0,0,0,.361-.652c-.193-.1-.449-.31-1.846-.31A22.975,22.975,0,0,0,46.324,33.383ZM34.586,23.04a112.03,112.03,0,0,1-4.2,11.886,78.517,78.517,0,0,1,10.208-3.174A53.791,53.791,0,0,1,34.586,23.04Zm-.954-13.3a3.769,3.769,0,0,0,.151,5.054C35.274,11.473,33.7,9.721,33.632,9.743Z" transform="translate(6.239 3.947)"/><path class="d" d="M71.772,65.714H8.8a2.3,2.3,0,0,1-2.3-2.3V39H74.071V63.415A2.3,2.3,0,0,1,71.772,65.714Z" transform="translate(0 22.286)"/><g transform="translate(21.026 67.452)"><path class="e" d="M18.323,58.758H15.744V42.924H20.3a6.392,6.392,0,0,1,2,.322,5.432,5.432,0,0,1,1.773.966,5.047,5.047,0,0,1,1.268,1.557,4.315,4.315,0,0,1,.484,2.052A5.614,5.614,0,0,1,25.411,50a4.558,4.558,0,0,1-1.139,1.644,5.133,5.133,0,0,1-1.762,1.031,6.779,6.779,0,0,1-2.277.365H18.321v5.715Zm0-13.879v6.273h2.363a2.808,2.808,0,0,0,.935-.162,2.355,2.355,0,0,0,.849-.526,2.573,2.573,0,0,0,.622-1.02,4.831,4.831,0,0,0,.236-1.622,4.387,4.387,0,0,0-.107-.891,2.573,2.573,0,0,0-.44-.966,2.6,2.6,0,0,0-.935-.773,3.474,3.474,0,0,0-1.59-.311H18.323Z" transform="translate(-15.744 -42.924)"/><path class="e" d="M36.868,50.4a11.633,11.633,0,0,1-.42,3.341,8.305,8.305,0,0,1-1.064,2.321,5.465,5.465,0,0,1-1.45,1.472,7.275,7.275,0,0,1-1.557.806A6.435,6.435,0,0,1,31,58.685a9.156,9.156,0,0,1-.924.072H24.084V42.924h4.769a9.062,9.062,0,0,1,3.512.633,7.292,7.292,0,0,1,2.514,1.686,6.921,6.921,0,0,1,1.493,2.395A7.931,7.931,0,0,1,36.868,50.4Zm-7.648,6.466A4.268,4.268,0,0,0,33,55.192a8.5,8.5,0,0,0,1.16-4.856,8.225,8.225,0,0,0-.236-1.955,4.182,4.182,0,0,0-.913-1.751,4.819,4.819,0,0,0-1.837-1.268,7.91,7.91,0,0,0-3.008-.484h-1.5V56.867h2.557Z" transform="translate(-10.978 -42.924)"/><path class="e" d="M37.219,44.879v4.985h6.617v1.762H37.219v7.133H34.6V42.924h9.9v1.955Z" transform="translate(-4.97 -42.924)"/></g></g></svg>