<svg xmlns="http://www.w3.org/2000/svg" width="23.995" height="20.774" viewBox="0 0 23.995 20.774"><defs><style>.a{fill:#fff;}</style></defs><g transform="translate(0 0)"><path class="a" d="M142.871,65.858a1.75,1.75,0,1,0-1.75-1.75A1.752,1.752,0,0,0,142.871,65.858Zm0-2.8a1.047,1.047,0,1,1-1.047,1.047A1.048,1.048,0,0,1,142.871,63.062Zm0,0" transform="translate(-134.507 -59.436)"/><path class="a" d="M53.052,42.74H51.669a4.522,4.522,0,0,0-.27-.649l.979-.979a.613.613,0,0,0,0-.867l-1.117-1.117a.613.613,0,0,0-.867,0l-.979.979a4.5,4.5,0,0,0-.649-.27V38.454a.61.61,0,0,0-.156-.407V36.011a.351.351,0,1,0-.7,0v1.83h-.756V31.484a.351.351,0,0,0-.351-.351H31.481a.351.351,0,0,0-.351.351v12.06a.351.351,0,0,0,.351.351h9.579v.756h-3.6a.351.351,0,0,0,0,.7h3.772a.611.611,0,0,0,.445.193h1.383a4.51,4.51,0,0,0,.27.649l-.979.979a.613.613,0,0,0,0,.867l1.117,1.117a.613.613,0,0,0,.867,0l.979-.979a4.514,4.514,0,0,0,.649.27v1.383a.614.614,0,0,0,.613.613h1.58a.614.614,0,0,0,.613-.613V48.45a4.531,4.531,0,0,0,.649-.27l.979.979a.614.614,0,0,0,.867,0l1.117-1.117a.613.613,0,0,0,0-.867L51.4,46.2a4.514,4.514,0,0,0,.27-.649h1.383a.614.614,0,0,0,.613-.613v-1.58a.614.614,0,0,0-.613-.613ZM31.832,31.835H46.448v6.018a.616.616,0,0,0-.488.6v.561l-3.2-4.682a.722.722,0,0,0-1.191,0l-3.647,5.327-1.765-2.578a.722.722,0,0,0-1.19,0L31.832,41.6ZM35.5,43.192H31.832v-.356l3.71-5.356a.016.016,0,0,1,.015-.008.016.016,0,0,1,.015.008l1.919,2.8L35.5,43.192Zm5.58,0H36.352l5.794-8.462a.016.016,0,0,1,.015-.008.016.016,0,0,1,.015.008l3.55,5.19c-.144.056-.3.126-.416.187l-.979-.979a.613.613,0,0,0-.867,0l-1.117,1.117a.613.613,0,0,0,0,.867l.979.979a4.512,4.512,0,0,0-.27.649H41.672a.615.615,0,0,0-.592.452Zm11.882,1.652H51.6a.61.61,0,0,0-.585.433,3.834,3.834,0,0,1-.27.649.61.61,0,0,0,.108.721l.962.962-.99.99-.962-.962a.611.611,0,0,0-.721-.108,3.811,3.811,0,0,1-.649.27.611.611,0,0,0-.433.586v1.359h-1.4V48.384a.611.611,0,0,0-.433-.586,3.825,3.825,0,0,1-.649-.269.611.611,0,0,0-.721.108L43.9,48.6l-.99-.99.962-.962a.611.611,0,0,0,.108-.721,3.792,3.792,0,0,1-.27-.649.611.611,0,0,0-.586-.432H41.762v-1.4h1.359a.611.611,0,0,0,.586-.433,3.81,3.81,0,0,1,.269-.649.612.612,0,0,0-.107-.721l-.962-.962.99-.99.962.962a.611.611,0,0,0,.721.108,3.8,3.8,0,0,1,.649-.269h0a.612.612,0,0,0,.431-.585v-1.36h1.4V39.9a.611.611,0,0,0,.433.586,3.81,3.81,0,0,1,.649.269.611.611,0,0,0,.721-.108l.962-.962.99.99-.962.962a.611.611,0,0,0-.108.721,3.815,3.815,0,0,1,.27.648.611.611,0,0,0,.586.433h1.359Zm0,0" transform="translate(-29.67 -29.673)"/><path class="a" d="M318.467,246.982a2.9,2.9,0,0,0,.154,5.788c.049,0,.1,0,.147,0a2.9,2.9,0,1,0-.3-5.784Zm2.34,3.007a2.193,2.193,0,1,1-2.3-2.3l.111,0a2.193,2.193,0,0,1,2.193,2.307Zm0,0" transform="translate(-300.925 -235.403)"/><path class="a" d="M.727,15.681H6.145a.351.351,0,1,0,0-.7H.727A.024.024,0,0,1,.7,14.955V.727A.024.024,0,0,1,.727.7H18.212a.024.024,0,0,1,.024.024V4.7a.351.351,0,0,0,.7,0V.727A.727.727,0,0,0,18.212,0H.727A.728.728,0,0,0,0,.727V14.955a.728.728,0,0,0,.727.727Zm0,0"/></g></svg>