<svg xmlns="http://www.w3.org/2000/svg" width="24.309" height="13.273" viewBox="0 0 24.309 13.273"><defs><style>.a{fill:#554d62;fill="#554d62" stroke=#554d62 stroke-width=0.4px}</style></defs><g transform="translate(0.152 -118.029)"><g transform="translate(-0.001 118.236)"><path fill="#554d62" d="M23.921,119.326a1.2,1.2,0,0,0-.81-.734c-.384-.1-3.825-.966-6.261.441-.6.344-1.7,1.081-3.359,2.249l-9.709-2.6a1.2,1.2,0,0,0-.91.12l-1.038.6a1.2,1.2,0,0,0,.037,2.1l6.481,3.449c-1.095.769-2.161,1.5-2.808,1.946L2.636,125.18a1.2,1.2,0,0,0-1.207,0l-.83.48a1.2,1.2,0,0,0-.162,1.966l3.955,3.257a1.2,1.2,0,0,0,.833.271l2.676-.161a1.2,1.2,0,0,0,.528-.158l11.419-6.6a13.573,13.573,0,0,0,3.954-3.817A1.2,1.2,0,0,0,23.921,119.326Zm-4.674,3.865-11.419,6.6-2.676.161L1.2,126.694l.83-.48,3.563,2.1s2.862-1.942,5.038-3.514l-8.194-4.361,1.038-.6,10.25,2.75c1.6-1.13,3.036-2.114,3.727-2.514,2.076-1.2,5.351-.322,5.351-.322A12.4,12.4,0,0,1,19.247,123.19Z" transform="translate(0.001 -118.236)"/></g></g></svg>