<svg xmlns="http://www.w3.org/2000/svg" width="40" height="40" viewBox="0 0 40 40"><defs><style>.a{fill:#e5f4ff;}.b{fill:#0097ff;}</style></defs><g transform="translate(-1330 -723)"><rect class="a" width="40" height="40" rx="5" transform="translate(1330 723)"/><path class="b" d="M15.2,2.617l-6-2.5a1.5,1.5,0,0,0-1.153,0l-6,2.5A1.5,1.5,0,0,0,1.125,4c0,6.2,3.578,10.492,6.923,11.886a1.5,1.5,0,0,0,1.153,0C11.879,14.771,16.126,10.918,16.126,4A1.5,1.5,0,0,0,15.2,2.617ZM8.629,13.949l0-11.907,5.5,2.291c-.1,4.732-2.566,8.16-5.494,9.617Z" transform="translate(1341.875 734.998)"/></g></svg>