<svg xmlns="http://www.w3.org/2000/svg" width="12.002" height="16.003" viewBox="0 0 12.002 16.003"><defs><style>.a{fill:#c52b96;}</style></defs><path class="a" d="M7,11.752V16H.75a.748.748,0,0,1-.75-.75V.75A.748.748,0,0,1,.75,0h10.5A.748.748,0,0,1,12,.75V11H7.751A.752.752,0,0,0,7,11.752ZM9.391,5.146,6.377,2.155a.533.533,0,0,0-.751,0L2.612,5.146A.5.5,0,0,0,2.964,6H5V8.5a.5.5,0,0,0,.5.5h1A.5.5,0,0,0,7,8.5V6H9.038A.5.5,0,0,0,9.391,5.146Zm2.393,7.575-3.06,3.063A.75.75,0,0,1,8.192,16H8V12h4v.191A.748.748,0,0,1,11.783,12.721Z"/></svg>