<svg xmlns="http://www.w3.org/2000/svg" width="18" height="15.206" viewBox="0 0 18 15.206"><defs><style>.a{fill:#01bd6f;}</style></defs><g transform="translate(-196.5 -197.997)"><path class="a" d="M196.5,198h2.729v4.073H196.5Z"/><path class="a" d="M200.1,213.005l1.3-.569a.434.434,0,0,1,.346,0l1.8.767,1.778-.762a.426.426,0,0,1,.346,0l1.778.762,1.8-.767a.434.434,0,0,1,.346,0l1.3.569V198H200.1Zm3.5-10.226h.735c-.013-.074-.03-.149-.048-.223a3.649,3.649,0,0,1-.114-.832,1.7,1.7,0,0,1,.119-.627,1.556,1.556,0,0,1,.346-.534,1.613,1.613,0,0,1,.543-.368,1.692,1.692,0,0,1,.67-.131,1.522,1.522,0,0,1,1.616,1.252.436.436,0,1,1-.854.18c-.053-.258-.189-.556-.758-.556a.9.9,0,0,0-.333.061.8.8,0,0,0-.254.171.671.671,0,0,0-.157.249.785.785,0,0,0-.057.3,2.762,2.762,0,0,0,.087.626c.035.144.062.285.088.429h.863a.438.438,0,1,1,0,.876H205.3c0,.153,0,.307-.018.464v.014a2.332,2.332,0,0,1-.157.678,2.006,2.006,0,0,1,1.029.215,1.1,1.1,0,0,0,.841.074l.276-.083a.438.438,0,1,1,.258.837l-.276.083a1.915,1.915,0,0,1-.587.087,2.047,2.047,0,0,1-.911-.218,1.134,1.134,0,0,0-.648-.114l-.779.092a.432.432,0,0,1-.43-.215.44.44,0,0,1,.027-.482l.21-.285a1.472,1.472,0,0,0,.276-.744v-.013c.009-.131.013-.263.013-.394H203.6a.439.439,0,0,1-.438-.438.432.432,0,0,1,.438-.434Zm-1.813,5.116h7.418a.438.438,0,1,1,0,.875h-7.418a.438.438,0,1,1,0-.875Zm0,2.128h7.418a.438.438,0,1,1,0,.876h-7.418a.438.438,0,0,1,0-.876Z"/><path class="a" d="M211.771,198H214.5v4.073h-2.729Z"/></g></svg>