<svg xmlns="http://www.w3.org/2000/svg" width="45" height="45" viewBox="0 0 45 45"><defs><style>.a{fill:#fef1e1;}.b{fill:#f5a436;}</style></defs><g transform="translate(0 -9.5)"><rect class="a" width="45" height="45" rx="10" transform="translate(0 9.5)"/><g transform="translate(11 -33.284)"><g transform="translate(0 60.266)"><path class="b" d="M23.3,164.348H21.877v-9.369a.7.7,0,0,0-.7-.7H17.282a.7.7,0,0,0-.7.7v9.369H14.65V152.2a.7.7,0,0,0-.7-.7H10.055a.7.7,0,0,0-.7.7v12.152H7.423V154.235a.7.7,0,0,0-.7-.7H2.828a.7.7,0,0,0-.7.7v10.112H.7a.7.7,0,1,0,0,1.405H23.3a.7.7,0,1,0,0-1.405Zm-19.763,0v-9.41H6.014v9.41Zm7.227,0V152.9h2.481v11.45Zm7.227,0v-8.666h2.481v8.666Z" transform="translate(0 -151.493)"/></g><path class="b" d="M31.114,58.457a.7.7,0,0,0-.54-.745L28.3,57.16a.7.7,0,1,0-.332,1.365l.643.156L26.789,59.8l-6.91-3.929a.7.7,0,0,0-.647-.025l-6.869,3.22L9.079,57.023a.7.7,0,1,0-.745,1.192l3.608,2.249a.7.7,0,0,0,.671.04L19.5,57.277l6.956,3.955a.727.727,0,0,0,.718-.013l2.209-1.361-.147.688a.7.7,0,0,0,1.376.293l.488-2.281a.808.808,0,0,0,.016-.1Z" transform="translate(-7.628 0)"/></g></g></svg>