<svg xmlns="http://www.w3.org/2000/svg" width="32" height="32" viewBox="0 0 32 32"><defs><style>.a,.b{fill:#fe6d6b;}.a{opacity:0.1;}</style></defs><rect class="a" width="32" height="32" rx="5"/><path class="b" d="M1,14.5A1.5,1.5,0,0,0,2.5,16h9A1.5,1.5,0,0,0,13,14.5V4H1Zm8.5-8a.5.5,0,0,1,1,0v7a.5.5,0,0,1-1,0Zm-3,0a.5.5,0,1,1,1,0v7a.5.5,0,0,1-1,0Zm-3,0a.5.5,0,1,1,1,0v7a.5.5,0,0,1-1,0ZM13.5,1H9.75L9.456.416A.75.75,0,0,0,8.784,0H5.212a.741.741,0,0,0-.669.416L4.25,1H.5a.5.5,0,0,0-.5.5v1A.5.5,0,0,0,.5,3h13a.5.5,0,0,0,.5-.5v-1A.5.5,0,0,0,13.5,1Z" transform="translate(9 8)"/></svg>