<svg xmlns="http://www.w3.org/2000/svg" width="16" height="16" viewBox="0 0 16 16"><defs><style>.a,.b{fill:#ff6e6b;}.a{opacity:0.1;}</style></defs><g transform="translate(-0.667 -0.667)"><circle class="a" cx="8" cy="8" r="8" transform="translate(0.667 0.667)"/><path class="b" d="M4.137,8.625,5.843,6.919a.536.536,0,0,0,0-.758l-.379-.379a.536.536,0,0,0-.758,0L3,7.488,1.294,5.782a.536.536,0,0,0-.758,0l-.379.379a.536.536,0,0,0,0,.758L1.863,8.625.157,10.331a.536.536,0,0,0,0,.758l.379.379a.536.536,0,0,0,.758,0L3,9.762l1.706,1.706a.536.536,0,0,0,.758,0l.379-.379a.536.536,0,0,0,0-.758Z" transform="translate(5.667 0.042)"/></g></svg>