<svg xmlns="http://www.w3.org/2000/svg" width="19.361" height="24.3" viewBox="0 0 19.361 24.3"><defs><style>.a{fill:#554d62;stroke:#554d62;stroke-width:0.3px;}</style></defs><g transform="translate(-52.517 0.15)"><g transform="translate(52.667)"><g transform="translate(0)"><path class="a" d="M104.013,176.3h-.532v-5.727a.562.562,0,0,0-.907-.443l-.964.751a.51.51,0,0,0-.2.4V176.3h-1.207v-3.275a.513.513,0,0,0-.828-.4l-1.043.811a.51.51,0,0,0-.2.4V176.3H96.93v-4.4a.513.513,0,0,0-.819-.411l-1.043.776a.515.515,0,0,0-.207.411V173.7a.354.354,0,1,0,.708,0v-.929l.652-.485V176.3H95.57v-.939a.354.354,0,0,0-.708,0v.939H93.655v-1.872a.513.513,0,0,0-.829-.4l-1.042.818a.51.51,0,0,0-.2.4V176.3h-.532a.354.354,0,1,0,0,.708h12.958a.354.354,0,1,0,0-.708Zm-1.892-4.919.652-.508V176.3h-.652Zm-3.275,2.55.652-.507V176.3h-.652Zm-6.551,1.409.652-.512V176.3h-.652Z" transform="translate(-88.905 -162.056)"/><path class="a" d="M94.677,356.751H91.055a.354.354,0,1,0,0,.708h3.622a.354.354,0,1,0,0-.708Z" transform="translate(-88.905 -340.026)"/><path class="a" d="M94.677,391.417H91.055a.354.354,0,1,0,0,.708h3.622a.354.354,0,1,0,0-.708Z" transform="translate(-88.905 -373.067)"/><path class="a" d="M70.362,2.1h-.556V1.366A1.367,1.367,0,0,0,68.441,0H57.249a1.368,1.368,0,0,0-.966.4L53.045,3.639a1.365,1.365,0,0,0-.378.943V20.535A1.367,1.367,0,0,0,54.033,21.9h.556v.734A1.367,1.367,0,0,0,55.954,24H70.362a1.367,1.367,0,0,0,1.366-1.366V3.465A1.367,1.367,0,0,0,70.362,2.1ZM56.477,1.2V3.354a.456.456,0,0,1-.456.456H53.868ZM71.025,22.634a.663.663,0,0,1-.662.662H55.954a.663.663,0,0,1-.662-.662V21.9H68.441a1.367,1.367,0,0,0,1.366-1.366v-1.3a.352.352,0,1,0-.7,0v1.3a.663.663,0,0,1-.662.662H54.033a.663.663,0,0,1-.662-.662V4.582a.673.673,0,0,1,0-.068h2.648a1.161,1.161,0,0,0,1.159-1.159V.707c.064-.007-.464,0,11.26,0a.663.663,0,0,1,.662.662V17.588a.352.352,0,1,0,.7,0V2.8h.556a.663.663,0,0,1,.662.662V22.634Z" transform="translate(-52.667)"/><path class="a" d="M120.783,100.824l-4.252,3.292-1.8-1.617a.67.67,0,0,0-.858-.031l-3.606,2.793.1-.8a.354.354,0,0,0-.7-.085c-.186,1.533-.2,1.633-.2,1.675a.354.354,0,0,0,.361.36h1.7a.354.354,0,1,0,0-.708h-.667l3.433-2.658,1.8,1.617a.67.67,0,0,0,.858.031l4.277-3.312a.354.354,0,1,0-.434-.56Z" transform="translate(-106.778 -96.035)"/></g></g></g></svg>