<svg xmlns="http://www.w3.org/2000/svg" xmlns:xlink="http://www.w3.org/1999/xlink" width="60" height="60" viewBox="0 0 60 60"><defs><style>.a,.b{fill:#582484;}.a{opacity:0.1;}.c{filter:url(#a);}</style><filter id="a" x="0" y="0" width="60" height="60" filterUnits="userSpaceOnUse"><feOffset input="SourceAlpha"/><feGaussianBlur stdDeviation="3" result="b"/><feFlood flood-color="#fff" flood-opacity="0.561"/><feComposite operator="in" in2="b"/><feComposite in="SourceGraphic"/></filter></defs><g transform="translate(-1318 -581)"><g class="c" transform="matrix(1, 0, 0, 1, 1318, 581)"><rect class="a" width="42" height="42" rx="10" transform="translate(9 9)"/></g><path class="b" d="M18.018,20H2.838a.962.962,0,0,1-.961-.96V17.332H1.044a1.044,1.044,0,0,1,0-2.088h.832v-2.1H1.182a.293.293,0,0,1,0-.586H2.5v.586H2.462v2.1H2.5v-2.1h.8a1.044,1.044,0,1,0,0-2.087H2.5v.586H1.044a.459.459,0,0,0-.458.458A.293.293,0,0,1,0,12.1a1.045,1.045,0,0,1,1.044-1.044h.832v-2.1H1.044a1.044,1.044,0,1,1,0-2.087h.832v-2.1H1.044a1.044,1.044,0,1,1,0-2.087h.832V.961A.962.962,0,0,1,2.838,0h15.18a.961.961,0,0,1,.96.96V19.04A.961.961,0,0,1,18.018,20Zm-1.542-1v.04a.959.959,0,0,1-.076.374h1.618a.375.375,0,0,0,.374-.374v-.814a.944.944,0,0,1-.374.076h-.564A1,1,0,0,0,17.5,18v-.284H16.476V12.984h.958a.3.3,0,0,0,.067-.008v4.739h.517a.375.375,0,0,0,.374-.375V7.667H17.5V7.081H16.476V2.35H17.5V7.08h.892V2.724a.375.375,0,0,0-.374-.374H17.5V2a1,1,0,0,0-.028-.235h-1V1H16.5a1,1,0,0,1,.972.763h.546a.958.958,0,0,1,.374.076V.961a.375.375,0,0,0-.374-.374H16.4a.96.96,0,0,1,.076.374V1H15.89V.961a.375.375,0,0,0-.375-.374H2.838a.375.375,0,0,0-.375.374V2.67H2.5V2a1,1,0,0,1,1-1H15.89V19h.586ZM1.044,15.83a.458.458,0,1,0,0,.916H2.5v.586H2.462V19.04a.375.375,0,0,0,.375.374H15.515a.375.375,0,0,0,.375-.374V19H3.5a1,1,0,0,1-1-1v-.668h.8a1.044,1.044,0,0,0,0-2.088H2.5v.586Zm0-8.383a.458.458,0,1,0,0,.915H2.5v.586H2.462v2.1H2.5V8.95h.8a1.044,1.044,0,1,0,0-2.087H2.5v.586ZM10.8,8.726a.3.3,0,1,0,0,.6H12.5a1.106,1.106,0,0,0,1.1-1.1V5.069a1.106,1.106,0,0,0-1.1-1.1H5.87a1.106,1.106,0,0,0-1.1,1.1V8.223a1.106,1.106,0,0,0,1.1,1.1H9.506a.3.3,0,1,0,0-.6H5.87a.5.5,0,0,1-.5-.5V5.069a.5.5,0,0,1,.5-.5H12.5a.5.5,0,0,1,.5.5V8.223a.5.5,0,0,1-.5.5ZM1.044,3.256a.458.458,0,1,0,0,.915H2.5v.586H2.462v2.1H2.5v-2.1h.8a1.044,1.044,0,1,0,0-2.087H2.5v.586ZM16.5,19h-.024v-.7h.978A1,1,0,0,1,16.5,19ZM3.3,16.746H2.5V15.83h.8a.458.458,0,1,1,0,.916Zm14.2-3.77h0v-.569h0a.3.3,0,0,0-.065-.007h-.958V7.667H17.5V12.4h0a.293.293,0,0,1,0,.57ZM3.3,12.554H2.5v-.915h.8a.458.458,0,1,1,0,.915Zm0-4.191H2.5V7.448h.8a.458.458,0,1,1,0,.915Zm0-4.191H2.5V3.256h.8a.458.458,0,1,1,0,.915Z" transform="translate(1339 600.999)"/></g></svg>