<svg xmlns="http://www.w3.org/2000/svg" width="18" height="18" viewBox="0 0 18 18"><path d="M9.321,14.866a6.2,6.2,0,0,1,4.044-5.8,5.136,5.136,0,0,0,.456-2.071c0-2.8,0-5.062-3.375-5.062S7.071,4.195,7.071,6.991a5.025,5.025,0,0,0,2.25,4.181V12.1c-3.816.312-6.75,2.187-6.75,4.454H9.555a6.173,6.173,0,0,1-.234-1.688ZM15.508,9.8a5.063,5.063,0,1,0,5.063,5.063A5.062,5.062,0,0,0,15.508,9.8Zm2.813,5.625h-2.25v2.25H14.946v-2.25H12.7V14.3h2.25v-2.25h1.125V14.3h2.25Z" transform="translate(-2.571 -1.928)"/></svg>