<svg xmlns="http://www.w3.org/2000/svg" width="110" height="46" viewBox="0 0 110 46"><defs><style>.a,.b,.c{fill:#c52b96;}.a{opacity:0.1;}.c{font-size:16px;font-family:Roboto-Medium, Roboto;font-weight:500;}</style></defs><g transform="translate(-1252 -727.193)"><rect class="a" width="110" height="46" rx="5" transform="translate(1252 727.193)"/><g transform="translate(-15 8)"><path class="b" d="M11.25,7.383a9.678,9.678,0,0,0-9,6.067,9.709,9.709,0,0,0,18,0A9.678,9.678,0,0,0,11.25,7.383Zm0,10.113a4.046,4.046,0,1,1,4.09-4.046A4.08,4.08,0,0,1,11.25,17.5Zm0-6.473A2.427,2.427,0,1,0,13.7,13.45,2.449,2.449,0,0,0,11.25,11.023Z" transform="translate(1291.75 729.81)"/><text class="c" transform="translate(1334 749.193)"><tspan x="-17.363" y="0">View</tspan></text></g></g></svg>