<svg xmlns="http://www.w3.org/2000/svg" width="32" height="32" viewBox="0 0 32 32"><defs><style>.a,.b{fill:#f5a436;}.a{opacity:0.1;}</style></defs><g transform="translate(-1330 -727.193)"><rect class="a" width="32" height="32" rx="5" transform="translate(1330 727.193)"/><path class="b" d="M9.25,7.383a7.527,7.527,0,0,0-7,4.719,7.551,7.551,0,0,0,14,0A7.527,7.527,0,0,0,9.25,7.383Zm0,7.866A3.147,3.147,0,1,1,12.431,12.1,3.173,3.173,0,0,1,9.25,15.248Zm0-5.034A1.888,1.888,0,1,0,11.159,12.1,1.9,1.9,0,0,0,9.25,10.214Z" transform="translate(1336.75 730.81)"/></g></svg>