<svg xmlns="http://www.w3.org/2000/svg" width="24" height="21.076" viewBox="0 0 24 21.076"><defs><style>.a{fill:#acb2c4;}</style></defs><path class="a" d="M4.284,14.707A5.05,5.05,0,0,1,5.42,11.468a5.085,5.085,0,0,1,2.871-1.83,6.214,6.214,0,0,1,2.23-3.544,6.315,6.315,0,0,1,7.835-.032,6.084,6.084,0,0,1,2.209,3.46h.347a5.232,5.232,0,0,1,2.619.684,5.033,5.033,0,0,1,1.9,1.883,5.227,5.227,0,0,1-.41,5.847,3.754,3.754,0,0,0,2.377.915l.694.063c.126,0,.189.063.189.2v.81a5.817,5.817,0,0,1-5.826,5.868,5.888,5.888,0,0,1-2.3-.463,5.79,5.79,0,0,1-1.872-1.252,5.937,5.937,0,0,1-1.241-1.872,5.824,5.824,0,0,1-.463-2.282H9.332a5.123,5.123,0,0,1-3.576-1.609A5,5,0,0,1,4.284,14.707Zm1.8,0a3.355,3.355,0,0,0,.947,2.377,3.259,3.259,0,0,0,2.3,1.073H21.1a3.259,3.259,0,0,0,2.3-1.073,3.355,3.355,0,0,0,.947-2.377,3.263,3.263,0,0,0-1.02-2.4,3.356,3.356,0,0,0-2.429-1.02H19.2a.161.161,0,0,1-.179-.179l-.074-.61a4.254,4.254,0,0,0-1.472-2.85A4.422,4.422,0,0,0,14.464,6.5,4.336,4.336,0,0,0,11.457,7.65a4.228,4.228,0,0,0-1.43,2.85l-.074.61c0,.116-.074.179-.21.179H9.185a3.463,3.463,0,0,0-2.209,1.125A3.29,3.29,0,0,0,6.082,14.707ZM18.1,19.924a4.285,4.285,0,0,0,.631,2.282,4.389,4.389,0,0,0,1.62,1.578,4.232,4.232,0,0,0,2.093.547,4.187,4.187,0,0,0,1.914-.473,4.728,4.728,0,0,0,1.662-1.43,4.681,4.681,0,0,0,.9-2.209,6.06,6.06,0,0,1-2.861-1.367A4.892,4.892,0,0,1,21.1,19.913h-3Z" transform="translate(-4.284 -4.716)"/></svg>