<svg xmlns="http://www.w3.org/2000/svg" width="24" height="16.701" viewBox="0 0 24 16.701"><defs><style>.a{fill:#acb2c4;}</style></defs><path class="a" d="M5.532,19.829a5.709,5.709,0,0,1,4.412-5.544,6.807,6.807,0,0,1,2.437-3.892,6.915,6.915,0,0,1,8.6-.046,6.682,6.682,0,0,1,2.425,3.8h.381a5.745,5.745,0,0,1,2.876.751,5.527,5.527,0,0,1,2.09,2.067,5.607,5.607,0,0,1,.774,2.864,5.711,5.711,0,0,1-2.726,4.909,5.6,5.6,0,0,1-2.783.832H11.076A5.625,5.625,0,0,1,7.149,23.8,5.484,5.484,0,0,1,5.532,19.829Zm1.975,0a3.685,3.685,0,0,0,1.039,2.61,3.638,3.638,0,0,0,2.529,1.19H24a3.591,3.591,0,0,0,2.529-1.19,3.667,3.667,0,0,0,1.051-2.61,3.551,3.551,0,0,0-1.132-2.622A3.682,3.682,0,0,0,23.769,16.1H21.921c-.127,0-.2-.069-.2-.208l-.081-.658a4.723,4.723,0,0,0-1.617-3.141,4.813,4.813,0,0,0-3.3-1.27,4.744,4.744,0,0,0-3.292,1.27,4.683,4.683,0,0,0-1.582,3.141l-.092.658c0,.139-.081.208-.231.208h-.612a3.8,3.8,0,0,0-2.425,1.236A3.578,3.578,0,0,0,7.507,19.829Z" transform="translate(-5.532 -8.868)"/></svg>