<svg xmlns="http://www.w3.org/2000/svg" width="17.983" height="18" viewBox="0 0 17.983 18"><defs><style>.a{fill:#acb2c4;}</style></defs><path class="a" d="M5.244,13.792a.715.715,0,0,1,.212-.525.732.732,0,0,1,.508-.2H7.691a.642.642,0,0,1,.491.212.8.8,0,0,1,.008,1.033.629.629,0,0,1-.491.212H5.972a.691.691,0,0,1-.508-.212A.7.7,0,0,1,5.244,13.792Zm2.421,5.867a.784.784,0,0,1,.195-.516L9.1,17.932a.651.651,0,0,1,.5-.195.717.717,0,0,1,.508.195.633.633,0,0,1,.2.483.8.8,0,0,1-.2.542l-1.2,1.2a.769.769,0,0,1-1.041,0A.684.684,0,0,1,7.665,19.659Zm0-11.718a.784.784,0,0,1,.195-.516A.813.813,0,0,1,8.4,7.213a.712.712,0,0,1,.5.2l1.211,1.245a.657.657,0,0,1,.2.5.694.694,0,0,1-.711.711.657.657,0,0,1-.5-.2L7.869,8.458A.709.709,0,0,1,7.665,7.941Zm2.159,5.85a4.273,4.273,0,0,1,.593-2.2,4.422,4.422,0,0,1,1.617-1.617,4.344,4.344,0,0,1,3.912-.237,4.423,4.423,0,0,1,1.405.948A4.443,4.443,0,0,1,18.638,13.8a4.282,4.282,0,0,1-.593,2.21,4.44,4.44,0,0,1-1.609,1.609,4.416,4.416,0,0,1-4.42,0,4.44,4.44,0,0,1-1.609-1.609A4.5,4.5,0,0,1,9.824,13.792Zm1.439,0a2.992,2.992,0,0,0,2.98,3,3.006,3.006,0,0,0,3-3,2.854,2.854,0,0,0-.881-2.091,2.9,2.9,0,0,0-2.117-.864,2.863,2.863,0,0,0-2.1.864A2.822,2.822,0,0,0,11.264,13.792Zm2.252,6.587a.665.665,0,0,1,.212-.508.717.717,0,0,1,.508-.2.709.709,0,0,1,.516.2.689.689,0,0,1,.2.508v1.685a.715.715,0,0,1-.212.525.691.691,0,0,1-.508.212.678.678,0,0,1-.508-.212.715.715,0,0,1-.212-.525V20.379Zm0-13.123V5.528a.691.691,0,0,1,.212-.508.7.7,0,0,1,.516-.22.678.678,0,0,1,.508.212.691.691,0,0,1,.212.508V7.255a.642.642,0,0,1-.212.491.709.709,0,0,1-.508.195.732.732,0,0,1-.508-.195A.666.666,0,0,1,13.516,7.255Zm4.674,11.159a.665.665,0,0,1,.669-.669.717.717,0,0,1,.508.195L20.6,19.151a.737.737,0,0,1,.2.516.684.684,0,0,1-.2.5.754.754,0,0,1-1.016,0l-1.2-1.2A.824.824,0,0,1,18.189,18.414Zm0-9.246a.656.656,0,0,1,.195-.5l1.2-1.245a.712.712,0,0,1,.5-.2.665.665,0,0,1,.508.212.691.691,0,0,1,.212.508.715.715,0,0,1-.2.525L19.366,9.677a.747.747,0,0,1-.508.2.615.615,0,0,1-.474-.2A.717.717,0,0,1,18.189,9.169ZM20.1,13.792a.757.757,0,0,1,.2-.525.659.659,0,0,1,.483-.2H22.5a.719.719,0,0,1,.508,1.236.691.691,0,0,1-.508.212h-1.71A.629.629,0,0,1,20.3,14.3.732.732,0,0,1,20.1,13.792Z" transform="translate(-5.244 -4.8)"/></svg>