<svg xmlns="http://www.w3.org/2000/svg" width="24" height="20.138" viewBox="0 0 24 20.138"><defs><style>.a{fill:#acb2c4;}</style></defs><path class="a" d="M3.576,22.053a.8.8,0,0,0,.269.6.821.821,0,0,0,.609.249h5.728a.976.976,0,0,1,.689.289.93.93,0,0,1,0,1.367.976.976,0,0,1-.689.289.925.925,0,0,1-.679-.3.886.886,0,0,0-.609-.24.819.819,0,0,0-.838.838.88.88,0,0,0,.24.6,2.555,2.555,0,0,0,1.886.788,2.669,2.669,0,0,0,0-5.339H4.454a.869.869,0,0,0-.619.259A.824.824,0,0,0,3.576,22.053Zm0-3.014a.772.772,0,0,0,.269.579.869.869,0,0,0,.609.24H15.282a2.65,2.65,0,1,0,0-5.3,2.527,2.527,0,0,0-1.886.758.853.853,0,0,0-.23.609.787.787,0,0,0,.818.828.883.883,0,0,0,.619-.23.927.927,0,0,1,.679-.279.9.9,0,0,1,.669.279.968.968,0,0,1-.669,1.647H4.454a.886.886,0,0,0-.878.868Zm2.515-2.345c0,.09.05.13.16.13H7.687a.279.279,0,0,0,.22-.15,3.14,3.14,0,0,1,1.048-1.347,3.034,3.034,0,0,1,1.577-.6l.519-.07c.12,0,.19-.06.19-.17l.08-.519a4.056,4.056,0,0,1,1.377-2.7,4.132,4.132,0,0,1,2.854-1.088,4.231,4.231,0,0,1,4.221,3.8l.07.579c0,.12.06.18.19.18h1.617a3.179,3.179,0,0,1,2.315.948,3.076,3.076,0,0,1,.958,2.275,3.271,3.271,0,0,1-3.263,3.243h-6.9c-.11,0-.17.06-.17.18v1.367a.153.153,0,0,0,.17.17h6.9a4.775,4.775,0,0,0,2.475-.669,4.949,4.949,0,0,0,1.8-1.806,4.883,4.883,0,0,0-.01-4.95,5.607,5.607,0,0,0,1.507-2.575l.12-.689a.091.091,0,0,0,.03-.07c0-.04-.05-.1-.14-.16l-.6-.21a3.451,3.451,0,0,1-1.916-1.357,3.541,3.541,0,0,1-.659-2.016,3.821,3.821,0,0,1,.09-.788l.13-.619a.179.179,0,0,0-.13-.22l-.8-.24a5.092,5.092,0,0,0-1.247-.16,4.808,4.808,0,0,0-1.118.13,6.142,6.142,0,0,0-1.178.409,4.471,4.471,0,0,0-1.178.8,5.423,5.423,0,0,0-1,1.217,6.075,6.075,0,0,0-6.057.858,5.723,5.723,0,0,0-2.066,3.343,5.01,5.01,0,0,0-3.622,3.423v.03C6.1,16.625,6.091,16.655,6.091,16.695Zm13.2-6.876a3.124,3.124,0,0,1,1.287-1.257,3.62,3.62,0,0,1,1.706-.439,2.54,2.54,0,0,1,.309.01,3.2,3.2,0,0,0-.02.359,5.087,5.087,0,0,0,.788,2.7,4.91,4.91,0,0,0,2.165,1.936,2.925,2.925,0,0,1-.748,1.028,4.694,4.694,0,0,0-3.153-1.138H21.3A5.487,5.487,0,0,0,19.293,9.819Z" transform="translate(-3.576 -6.396)"/></svg>