<svg xmlns="http://www.w3.org/2000/svg" width="24" height="15.723" viewBox="0 0 24 15.723"><defs><style>.a{fill:#acb2c4;}</style></defs><path class="a" d="M4.668,19.89a4.589,4.589,0,0,1,3.577-4.474,5.485,5.485,0,0,1,5.4-4.322,5.351,5.351,0,0,1,3.415,1.178A5.3,5.3,0,0,1,19.007,15.3H19.3a4.593,4.593,0,0,1,4.6,4.582,4.612,4.612,0,0,1-4.6,4.6H9.282A4.355,4.355,0,0,1,7.5,24.115a4.8,4.8,0,0,1-1.48-.962,4.8,4.8,0,0,1-.983-1.47A4.442,4.442,0,0,1,4.668,19.89Zm1.567,0a2.907,2.907,0,0,0,.886,2.118,2.944,2.944,0,0,0,2.15.886H19.3a2.937,2.937,0,0,0,2.15-.886,2.893,2.893,0,0,0,.9-2.118,2.835,2.835,0,0,0-.9-2.118,2.962,2.962,0,0,0-2.15-.886H17.8a.143.143,0,0,1-.162-.162l-.076-.529a3.929,3.929,0,0,0-3.933-3.544,3.842,3.842,0,0,0-2.658,1.016,3.754,3.754,0,0,0-1.275,2.529l-.076.454c0,.108-.054.162-.173.162l-.486.076A2.906,2.906,0,0,0,7,17.848,3.032,3.032,0,0,0,6.235,19.89ZM15.8,10.467c-.108.1-.086.173.076.227a9.635,9.635,0,0,1,1.167.594c.119.032.205.022.238-.032a3.334,3.334,0,0,1,5.63,2.107l.1.692H24.54a2.473,2.473,0,0,1,1.815.756,2.494,2.494,0,0,1,.086,3.49,2.548,2.548,0,0,1-1.653.832c-.108,0-.162.054-.162.173v1.221c0,.119.054.173.162.173a4.122,4.122,0,0,0,3.879-4.1,4.132,4.132,0,0,0-4.128-4.128h-.162A5.032,5.032,0,0,0,19.569,8.76,4.745,4.745,0,0,0,15.8,10.467Z" transform="translate(-4.668 -8.76)"/></svg>