<svg xmlns="http://www.w3.org/2000/svg" width="24" height="18.213" viewBox="0 0 24 18.213"><defs><style>.a{fill:#acb2c4;}</style></defs><path class="a" d="M4.968,19.178a5.324,5.324,0,0,1,1.171-3.4,5.173,5.173,0,0,1,3.026-1.9,6.454,6.454,0,0,1,1.546-2.982,6.65,6.65,0,0,1,7.521-1.646A5.727,5.727,0,0,1,19.326,7.9a5.125,5.125,0,0,1,1.292-.873,7.333,7.333,0,0,1,1.3-.453,5.39,5.39,0,0,1,1.237-.144,5.6,5.6,0,0,1,1.358.177l.906.276c.155.066.2.144.155.243l-.155.663a4.331,4.331,0,0,0-.11.95,3.522,3.522,0,0,0,.166,1.049,4.2,4.2,0,0,0,.486,1.038,3.3,3.3,0,0,0,.884.917,4.142,4.142,0,0,0,1.27.63l.685.243c.11.033.166.088.166.177a.281.281,0,0,1-.022.077l-.2.74a5.459,5.459,0,0,1-1.657,2.838,5.343,5.343,0,0,1,.718,2.474,1.494,1.494,0,0,1,.011.254,5.285,5.285,0,0,1-.74,2.739A5.447,5.447,0,0,1,25.091,23.9a5.392,5.392,0,0,1-2.739.74H10.413a5.285,5.285,0,0,1-2.739-.74A5.5,5.5,0,0,1,5.7,21.917,5.324,5.324,0,0,1,4.968,19.178Zm1.889,0a3.514,3.514,0,0,0,1.06,2.551,3.39,3.39,0,0,0,2.5,1.082H22.352A3.374,3.374,0,0,0,24.87,21.74a3.554,3.554,0,0,0,1.049-2.562,3.374,3.374,0,0,0-1.06-2.5,3.473,3.473,0,0,0-2.518-1.049H20.375l-.11-.828a4.468,4.468,0,0,0-1.392-2.861,4.69,4.69,0,0,0-2.9-1.325,1.092,1.092,0,0,1-.166-.011,1.02,1.02,0,0,0-.166-.011,4.926,4.926,0,0,0-1.7.32v-.022A4.827,4.827,0,0,0,10.91,14.8l-.077.8-.751.033A3.624,3.624,0,0,0,7.762,16.8,3.365,3.365,0,0,0,6.857,19.178ZM19.834,10.22a6.254,6.254,0,0,1,2.176,3.512h.353a5.024,5.024,0,0,1,3.5,1.3,3.672,3.672,0,0,0,.839-1.182,5.468,5.468,0,0,1-2.386-2.176,5.967,5.967,0,0,1-.873-3.07V8.343a1.645,1.645,0,0,0-.265-.011,3.642,3.642,0,0,0-1.878.486A3.811,3.811,0,0,0,19.834,10.22Z" transform="translate(-4.968 -6.432)"/></svg>