<svg xmlns="http://www.w3.org/2000/svg" width="23.516" height="24" viewBox="0 0 23.516 24"><defs><style>.a{fill:#acb2c4;}</style></defs><path class="a" d="M4.884,18.833a5.141,5.141,0,0,0,1.505,3.7,5.257,5.257,0,0,0,3.656,1.645c.129,0,.194-.065.194-.183V22.554c0-.118-.065-.183-.194-.183A3.387,3.387,0,0,1,7.69,21.263a3.431,3.431,0,0,1-.968-2.43A3.328,3.328,0,0,1,7.637,16.5a3.542,3.542,0,0,1,2.258-1.151l.57-.043c.14,0,.215-.065.215-.183l.075-.581a4.58,4.58,0,0,1,4.559-4.108,4.622,4.622,0,0,1,4.581,4.108l.086.613c0,.129.065.194.183.194h1.742A3.445,3.445,0,0,1,24.4,16.382a3.329,3.329,0,0,1,1.054,2.452,3.431,3.431,0,0,1-.968,2.43,3.387,3.387,0,0,1-2.355,1.108c-.151,0-.226.065-.226.183v1.441c0,.118.075.183.226.183a5.08,5.08,0,0,0,3.634-1.624,5.174,5.174,0,0,0,1.495-3.71,5.107,5.107,0,0,0-.731-2.645,5.458,5.458,0,0,0,1.7-2.817l.151-.774a.1.1,0,0,0,.022-.075c0-.075-.054-.14-.172-.172l-.6-.194a3.617,3.617,0,0,1-1.57-.892,3.669,3.669,0,0,1-1.215-2.7,3.033,3.033,0,0,1,.086-.882l.151-.656c.043-.108,0-.194-.151-.258l-.849-.258a6.284,6.284,0,0,0-1.366-.161,5.3,5.3,0,0,0-1.226.14,6.549,6.549,0,0,0-1.29.441,4.91,4.91,0,0,0-1.29.86A5.567,5.567,0,0,0,17.83,9.113a7.315,7.315,0,0,0-2.505-.484,6.268,6.268,0,0,0-4.043,1.419,6.337,6.337,0,0,0-2.269,3.624,5.173,5.173,0,0,0-2.946,1.86A5.018,5.018,0,0,0,4.884,18.833Zm5.978,7.355a.905.905,0,0,0,.172.527.894.894,0,0,0,.527.355.94.94,0,0,0,.688-.043.845.845,0,0,0,.43-.6l1.538-6.312a.961.961,0,0,0-.086-.72.822.822,0,0,0-.559-.4.792.792,0,0,0-.677.075.9.9,0,0,0-.441.548l-1.548,6.344c0,.011-.011.043-.022.1A.794.794,0,0,0,10.862,26.188Zm2.806,3.3a.874.874,0,0,0,.161.495.843.843,0,0,0,.484.333,1.038,1.038,0,0,0,.258.043.82.82,0,0,0,.882-.634l2.419-9.6a.888.888,0,0,0-.613-1.118.865.865,0,0,0-.71.075.805.805,0,0,0-.419.538L13.7,29.209a.9.9,0,0,1-.011.129A.45.45,0,0,0,13.669,29.489Zm4.473-3.215c0,.387.226.645.677.8a1.367,1.367,0,0,0,.323.065.978.978,0,0,0,.376-.075.731.731,0,0,0,.419-.624l1.538-6.312a.874.874,0,0,0-.086-.7.912.912,0,0,0-.548-.419.865.865,0,0,0-.71.075.765.765,0,0,0-.409.548l-1.538,6.344C18.164,26.145,18.142,26.252,18.142,26.274Zm1.269-16.183a3.538,3.538,0,0,1,1.409-1.43,3.777,3.777,0,0,1,1.892-.473A2.086,2.086,0,0,1,23,8.2v.323a5.564,5.564,0,0,0,3.2,5.075,3.485,3.485,0,0,1-.849,1.151,5.265,5.265,0,0,0-3.473-1.215h-.333A5.947,5.947,0,0,0,19.411,10.091Z" transform="translate(-4.884 -6.36)"/></svg>