<svg xmlns="http://www.w3.org/2000/svg" width="24" height="23.224" viewBox="0 0 24 23.224"><defs><style>.a{fill:#acb2c4;}</style></defs><path class="a" d="M5.568,19.892a5.528,5.528,0,0,1,1.25-3.554,5.58,5.58,0,0,1,3.161-2,6.832,6.832,0,0,1,2.443-3.89,6.919,6.919,0,0,1,8.6-.035,6.7,6.7,0,0,1,2.431,3.809h.37a5.748,5.748,0,0,1,2.871.753,5.645,5.645,0,0,1,2.871,4.92A5.724,5.724,0,0,1,26.836,24.8a5.446,5.446,0,0,1-2.779.822c-.151,0-.232-.069-.232-.2v-1.54c0-.139.081-.208.232-.208A3.583,3.583,0,0,0,26.581,22.5a3.694,3.694,0,0,0,1.042-2.617,3.553,3.553,0,0,0-1.135-2.616,3.683,3.683,0,0,0-2.674-1.111H21.95c-.139,0-.208-.069-.208-.2l-.093-.671a4.719,4.719,0,0,0-1.609-3.137,4.945,4.945,0,0,0-6.6,0,4.654,4.654,0,0,0-1.575,3.137l-.081.614a.2.2,0,0,1-.232.22l-.614.035a3.869,3.869,0,0,0-2.431,1.239,3.536,3.536,0,0,0-.984,2.5,3.694,3.694,0,0,0,1.042,2.616,3.583,3.583,0,0,0,2.524,1.181c.127,0,.2.069.2.208v1.54a.177.177,0,0,1-.2.2,5.639,5.639,0,0,1-3.936-1.771A5.477,5.477,0,0,1,5.568,19.892Zm6.194,7.745a.79.79,0,0,1,.046-.232l1.887-6.68a.935.935,0,0,1,.37-.509.969.969,0,0,1,.533-.174,1.3,1.3,0,0,1,.278.035.871.871,0,0,1,.625.428.944.944,0,0,1,.093.776l-1.887,6.634a.911.911,0,0,1-.949.741.492.492,0,0,1-.127-.023.749.749,0,0,0-.116-.035.962.962,0,0,1-.567-.382A1.036,1.036,0,0,1,11.762,27.637ZM14.8,30.89,17.62,20.737a.763.763,0,0,1,.347-.509,1.049,1.049,0,0,1,.567-.174,1.437,1.437,0,0,1,.313.035.889.889,0,0,1,.567.452.966.966,0,0,1,.081.741L16.682,31.446a.841.841,0,0,1-.336.5.943.943,0,0,1-.59.208.758.758,0,0,1-.289-.058,1.062,1.062,0,0,1-.6-.452A.918.918,0,0,1,14.8,30.89Zm4.781-3.23a1.234,1.234,0,0,1,.046-.266l1.887-6.68a.961.961,0,0,1,.347-.509.941.941,0,0,1,.533-.174,1.414,1.414,0,0,1,.3.035.9.9,0,0,1,.533.359.976.976,0,0,1,.174.544,1.328,1.328,0,0,1-.023.162c-.012.069-.023.116-.023.139L21.464,27.9a.855.855,0,0,1-.324.533.979.979,0,0,1-.59.2l-.278-.058a.936.936,0,0,1-.533-.37A1.06,1.06,0,0,1,19.577,27.66Z" transform="translate(-5.568 -8.928)"/></svg>