<svg xmlns="http://www.w3.org/2000/svg" width="23.142" height="24" viewBox="0 0 23.142 24"><defs><style>.a{fill:#acb2c4;}</style></defs><path class="a" d="M4.884,18.671A5.038,5.038,0,0,0,6.366,22.3a5.068,5.068,0,0,0,3.6,1.6c.127,0,.191-.064.191-.18V22.3c0-.116-.064-.18-.191-.18a3.288,3.288,0,0,1-2.308-1.09,3.431,3.431,0,0,1-.064-4.7,3.307,3.307,0,0,1,2.223-1.1l.561-.074c.138,0,.212-.064.212-.191l.074-.54a4.483,4.483,0,0,1,4.478-4.076,4.412,4.412,0,0,1,3.028,1.165,4.33,4.33,0,0,1,1.482,2.88l.074.6c0,.127.064.2.18.2h1.715a3.35,3.35,0,0,1,2.467,1.027,3.3,3.3,0,0,1,1.027,2.446,3.377,3.377,0,0,1-.434,1.652,3.525,3.525,0,0,1-1.2,1.27,3.324,3.324,0,0,1-1.652.54c-.138,0-.212.064-.212.18v1.419c0,.116.074.18.212.18A5.025,5.025,0,0,0,24.4,23.16a5.234,5.234,0,0,0,2.5-4.478,5.3,5.3,0,0,0-.72-2.657,5.159,5.159,0,0,0,1.673-2.774l.148-.72a.1.1,0,0,0,.032-.074c0-.064-.064-.116-.18-.169l-.582-.191a3.636,3.636,0,0,1-1.556-.9,3.757,3.757,0,0,1-.921-1.323,3.7,3.7,0,0,1-.275-1.366,2.761,2.761,0,0,1,.1-.868l.138-.614c.042-.106,0-.191-.138-.243l-.847-.254a5.249,5.249,0,0,0-1.366-.18,5.166,5.166,0,0,0-1.186.138,6.6,6.6,0,0,0-1.26.434,5.165,5.165,0,0,0-1.27.858,5.537,5.537,0,0,0-1.059,1.3,6.962,6.962,0,0,0-2.488-.487,6.171,6.171,0,0,0-3.981,1.4,6.239,6.239,0,0,0-2.234,3.568,5.34,5.34,0,0,0-2.911,1.874A4.984,4.984,0,0,0,4.884,18.671Zm5.727,7.464a.979.979,0,0,0,.169.54.931.931,0,0,0,.5.371A.88.88,0,0,0,11.956,27a.821.821,0,0,0,.413-.593l.148-.646a.9.9,0,0,0-.1-.667.869.869,0,0,0-.551-.423.8.8,0,0,0-.678.085.909.909,0,0,0-.423.561l-.138.614A.5.5,0,0,0,10.611,26.135Zm.8-3.07a.829.829,0,0,0,.265.6.774.774,0,0,0,.593.265.862.862,0,0,0,.635-.254.838.838,0,0,0,.254-.625.891.891,0,0,0-1.5-.635A.923.923,0,0,0,11.416,23.064Zm.646-2.4a.674.674,0,0,0,.148.476.9.9,0,0,0,.508.339.846.846,0,0,0,.656-.074.856.856,0,0,0,.434-.54l.3-.953a.814.814,0,0,0-.074-.688.967.967,0,0,0-.572-.413.78.78,0,0,0-.667.074.9.9,0,0,0-.434.529l-.254.974c0,.021-.011.064-.021.127A.386.386,0,0,0,12.062,20.661Zm1.228,8.776a.967.967,0,0,0,.159.529.824.824,0,0,0,.508.349,1.131,1.131,0,0,0,.265.032.773.773,0,0,0,.836-.646l.148-.625a.974.974,0,0,0-.085-.72A.944.944,0,0,0,13.9,28.04a.914.914,0,0,0-.434.54l-.148.625A1.094,1.094,0,0,0,13.29,29.438Zm.826-3.07a.835.835,0,0,0,.265.614.824.824,0,0,0,.6.254.871.871,0,0,0,.625-.243.829.829,0,0,0,.243-.625.864.864,0,0,0-.243-.614.814.814,0,0,0-.625-.243.871.871,0,0,0-.625.243A.846.846,0,0,0,14.116,26.367Zm.667-2.4a.83.83,0,0,0,.138.5.7.7,0,0,0,.476.318.863.863,0,0,0,1.112-.656l.286-.953a.78.78,0,0,0-.074-.667.918.918,0,0,0-.561-.423.811.811,0,0,0-.678.085.925.925,0,0,0-.434.561l-.233.953A1.181,1.181,0,0,0,14.783,23.964Zm2.911,2.276a.952.952,0,0,0,.159.508.838.838,0,0,0,.487.349,1.215,1.215,0,0,1,.148.021.987.987,0,0,0,.148.021.773.773,0,0,0,.8-.7l.148-.635a.788.788,0,0,0-.074-.667.856.856,0,0,0-.54-.434.926.926,0,0,0-1.154.646l-.1.625a1.021,1.021,0,0,1-.021.127C17.7,26.156,17.694,26.2,17.694,26.24Zm.783-3.134a.78.78,0,0,0,.265.6.791.791,0,0,0,.6.254.871.871,0,0,0,.625-.243.806.806,0,0,0,.243-.614.871.871,0,0,0-.243-.625.814.814,0,0,0-.625-.243.871.871,0,0,0-.625.243A.814.814,0,0,0,18.477,23.107Zm.646-2.446a.838.838,0,0,0,.169.508.916.916,0,0,0,.519.339c.021,0,.064.011.127.021a1.215,1.215,0,0,0,.148.021,1,1,0,0,0,.381-.1A.844.844,0,0,0,20.9,20.9l.254-.953a.811.811,0,0,0-.085-.667.875.875,0,0,0-.54-.423.849.849,0,0,0-1.09.6l-.3.963c0,.021-.011.064-.021.127A.355.355,0,0,1,19.123,20.661Zm.074-10.64A3.648,3.648,0,0,1,20.584,8.6a3.5,3.5,0,0,1,1.831-.487,1.789,1.789,0,0,1,.318.032v.328a5.446,5.446,0,0,0,.815,2.922,5.293,5.293,0,0,0,2.35,2.054,3.954,3.954,0,0,1-.847,1.175,5.212,5.212,0,0,0-3.419-1.207H21.3A6.048,6.048,0,0,0,19.2,10.022Z" transform="translate(-4.884 -6.348)"/></svg>