<svg xmlns="http://www.w3.org/2000/svg" width="23.815" height="24" viewBox="0 0 23.815 24"><defs><style>.a{fill:#acb2c4;}</style></defs><path class="a" d="M1.776,15.165a4.353,4.353,0,0,0,3.153,4.21.242.242,0,0,0,.211-.07l1.03-1.242a2.743,2.743,0,0,1-2.026-.854A2.813,2.813,0,0,1,3.3,15.156a2.726,2.726,0,0,1,.749-1.911A2.943,2.943,0,0,1,5.907,12.3l.432-.026c.114,0,.176-.053.176-.167l.062-.476A3.751,3.751,0,0,1,10.31,8.268a3.7,3.7,0,0,1,2.537.969,3.591,3.591,0,0,1,1.224,2.4l.062.52a.2.2,0,0,0,.194.15h1.444a2.769,2.769,0,0,1,2.008.837,2.729,2.729,0,0,1,.846,2.008,2.81,2.81,0,0,1-.749,1.946,2.683,2.683,0,0,1-1.823.925,1.378,1.378,0,0,0-.793.247l-1.929,2.484a.739.739,0,0,0-.141.555.717.717,0,0,0,.273.493.571.571,0,0,0,.528.185.732.732,0,0,0,.528-.317L16.211,19.5a4.132,4.132,0,0,0,1.982-.722A4.441,4.441,0,0,0,19.611,17.2a4.313,4.313,0,0,0,.52-2.061,4.251,4.251,0,0,0-.37-1.77,4.6,4.6,0,0,0,.669-4.721,4.587,4.587,0,0,0-2.475-2.466,4.567,4.567,0,0,0-5.214,1.163,4.848,4.848,0,0,0-2.4-.581,5.11,5.11,0,0,0-3.3,1.163A5.05,5.05,0,0,0,5.22,10.893a4.412,4.412,0,0,0-3.444,4.272Zm3.435,7.257a.686.686,0,0,0,.405.423.725.725,0,0,0,.59.009.673.673,0,0,0,.405-.414.625.625,0,0,0,0-.546.774.774,0,0,0-.4-.405.705.705,0,0,0-.581-.018.668.668,0,0,0-.4.405A.744.744,0,0,0,5.211,22.422ZM6.8,20.009v.1a.691.691,0,0,0,.264.484.73.73,0,0,0,.555.176.7.7,0,0,0,.5-.255l1.92-2.484a.774.774,0,0,0,.167-.555.7.7,0,0,0-.255-.5A.736.736,0,0,0,9.4,16.8a.778.778,0,0,0-.528.273L6.981,19.542A.688.688,0,0,0,6.8,20.009Zm.449,4.28a1.12,1.12,0,0,0,.053.264.706.706,0,0,0,.405.405.923.923,0,0,0,.317.062,1.1,1.1,0,0,0,.273-.044.649.649,0,0,0,.388-.388A.725.725,0,0,0,8.707,24a.627.627,0,0,0-.4-.405.725.725,0,0,0-.59-.009.633.633,0,0,0-.4.4A.751.751,0,0,0,7.254,24.289ZM8.725,22.2v.088a.715.715,0,0,0,.291.511.588.588,0,0,0,.528.176.741.741,0,0,0,.528-.3l3.646-4.606a.82.82,0,0,0,.15-.564.8.8,0,0,0-.273-.52.749.749,0,0,0-1.039.123L8.892,21.744A.685.685,0,0,0,8.725,22.2Zm.511-17.87a.648.648,0,0,0,.238.52l.537.581a.758.758,0,0,0,.476.229.645.645,0,0,0,.537-.194.73.73,0,0,0,.264-.564.761.761,0,0,0-.211-.528L10.513,3.8A.664.664,0,0,0,10,3.592a.772.772,0,0,0-.546.211A.755.755,0,0,0,9.236,4.332Zm2.6,18.874a.544.544,0,0,0,.062.273.786.786,0,0,0,.7.476,1.12,1.12,0,0,0,.264-.053.682.682,0,0,0,.405-.405.705.705,0,0,0,.018-.581.633.633,0,0,0-.4-.4.725.725,0,0,0-.59-.018.669.669,0,0,0-.405.4A.742.742,0,0,0,11.834,23.206ZM13.948,8.224a3.159,3.159,0,0,1,2.184-.854,3.051,3.051,0,0,1,2.228.907,2.955,2.955,0,0,1,.925,2.193,3.113,3.113,0,0,1-.458,1.638,4.178,4.178,0,0,0-3.065-1.277h-.3A5.043,5.043,0,0,0,13.948,8.224Zm1.436-4.633a.686.686,0,0,0,.22.52.746.746,0,0,0,.528.211.772.772,0,0,0,.546-.211.686.686,0,0,0,.22-.52V1.769a.728.728,0,0,0-.229-.528.738.738,0,0,0-.537-.22.719.719,0,0,0-.528.22.719.719,0,0,0-.22.528ZM20.289,5.6a.739.739,0,0,0,.194.528.8.8,0,0,0,.537.229.618.618,0,0,0,.5-.229l1.321-1.277a.766.766,0,0,0-.018-1.074.728.728,0,0,0-.528-.229.748.748,0,0,0-.528.22L20.492,5.063A.783.783,0,0,0,20.289,5.6Zm.687,10.481a.717.717,0,0,0,.211.528l.581.555a.771.771,0,0,0,.476.238H22.3a.957.957,0,0,0,.546-.238.705.705,0,0,0,.211-.511.809.809,0,0,0-.211-.555l-.581-.546a.686.686,0,0,0-.52-.22.752.752,0,0,0-.766.749ZM22.3,10.47a.717.717,0,0,0,.211.528.678.678,0,0,0,.528.238h1.8a.767.767,0,0,0,.757-.766.686.686,0,0,0-.22-.52.752.752,0,0,0-.537-.211h-1.8a.722.722,0,0,0-.74.731Z" transform="translate(-1.776 -1.02)"/></svg>