<svg xmlns="http://www.w3.org/2000/svg" width="44" height="44" viewBox="0 0 44 44"><defs><style>.a{fill:#bf282a;}.b{fill:#fff;}</style></defs><g transform="translate(-1 -1)"><path class="a" d="M5,0H44a0,0,0,0,1,0,0V44a0,0,0,0,1,0,0H5a5,5,0,0,1-5-5V5A5,5,0,0,1,5,0Z" transform="translate(1 1)"/><path class="b" d="M20.632,6.7a2.513,2.513,0,0,0-1.768-1.78C17.3,4.5,11.05,4.5,11.05,4.5s-6.254,0-7.814.421A2.513,2.513,0,0,0,1.468,6.7a26.362,26.362,0,0,0-.418,4.845,26.362,26.362,0,0,0,.418,4.845,2.476,2.476,0,0,0,1.768,1.751c1.56.421,7.814.421,7.814.421s6.254,0,7.814-.421a2.476,2.476,0,0,0,1.768-1.751,26.362,26.362,0,0,0,.418-4.845A26.362,26.362,0,0,0,20.632,6.7ZM9,14.519V8.572l5.227,2.974L9,14.519Z" transform="translate(11.95 11.5)"/></g></svg>